{
.appVersion = "1342";
DisplayStrings = (
"Çç¸¸¸/cedillacomb/Scedilla/scedilla",
"L/Ldot",
"/ldot",
C,
"C/Ccircumflex",
"J/Jcircumflex"
);
classes = (
{
automatic = 1;
code = "A B C D E F G H I J K L M N O P Q R S T U V W X Y Z Adieresis Aring Ccedilla Eacute Ntilde Odieresis Udieresis AE Agrave Atilde Otilde OE Ydieresis Acircumflex Ecircumflex Aacute Edieresis Egrave Iacute Icircumflex Idieresis Igrave Oacute Ocircumflex Ograve Uacute Ucircumflex Ugrave Eth Lslash Scaron Yacute Thorn Zcaron Oslash Lcaron Sacute Aogonek Scommaaccent Tcaron Zacute Zdotaccent Racute Abreve Lacute Cacute Ccaron Eogonek Ecaron Dcaron Dcroat Nacute Ncaron Ohungarumlaut Rcaron Uring Uhungarumlaut Tcommaaccent Hbar Hcircumflex Idotaccent Scedilla Gbreve Jcircumflex Cdotaccent Ccircumflex Gdotaccent Gcircumflex Ubreve Scircumflex Rcommaaccent Itilde Lcommaaccent Emacron Gcommaaccent Tbar Eng Amacron Iogonek Edotaccent Imacron Ncommaaccent Omacron Kcommaaccent Uogonek Utilde Umacron Wgrave Wacute Ygrave Wdieresis Wcircumflex Ycircumflex A.001 B.001 C.001 D.001 E.001 F.001 G.001 H.001 I.001 J.001 K.001 L.001 M.001 N.001 O.001 P.001 Q.001 R.001 S.001 T.001 U.001 V.001 W.001 X.001 Y.001 Z.001 Z.001.stroke C.alt Abreveacute Abrevedotbelow Abrevegrave Abrevehookabove Abrevetilde Acircumflexacute Acircumflexdotbelow Acircumflexgrave Acircumflexhookabove Acircumflextilde Adotbelow Ahookabove Ecircumflexacute Ecircumflexdotbelow Ecircumflexgrave Ecircumflexhookabove Ecircumflextilde Edotbelow Ehookabove Etilde Idotbelow Ihookabove Ocircumflexacute Ocircumflexdotbelow Ocircumflexgrave Ocircumflexhookabove Ocircumflextilde Odotbelow Ohookabove Ohorn Ohornacute Ohorndotbelow Ohorngrave Ohornhookabove Ohorntilde Germandbls Tcedilla Udotbelow Uhookabove Uhorn Uhornacute Uhorndotbelow Uhorngrave Uhornhookabove Uhorntilde Ydotbelow Yhookabove Ytilde Z.ss01 Zacute.ss01 Zcaron.ss01 Zdotaccent.ss01";
name = Uppercase;
}
);

glyphs = (
{
glyphname = threequarters;
lastChange = "2021-05-27 10:25:14 +0000";
layers = (
{
layerId = "61E7180A-0B32-4047-B910-001D8BB62225";
paths = (
{
closed = 1;
nodes = (
"159 339 OFFCURVE",
"505 783 OFFCURVE",
"592 891 CURVE SMOOTH",
"594 894 OFFCURVE",
"595 896 OFFCURVE",
"595 899 CURVE SMOOTH",
"595 905 OFFCURVE",
"588 908 OFFCURVE",
"578 908 CURVE SMOOTH",
"567 908 OFFCURVE",
"555 904 OFFCURVE",
"548 896 CURVE",
"498 828 OFFCURVE",
"184 430 OFFCURVE",
"66 296 CURVE SMOOTH",
"62 291 OFFCURVE",
"60 287 OFFCURVE",
"60 285 CURVE SMOOTH",
"60 283 OFFCURVE",
"61 282 OFFCURVE",
"63 282 CURVE SMOOTH",
"66 282 OFFCURVE",
"70 283 OFFCURVE",
"76 287 CURVE SMOOTH"
);
},
{
closed = 1;
nodes = (
"161 532 OFFCURVE",
"264 612 OFFCURVE",
"264 693 CURVE SMOOTH",
"264 732 OFFCURVE",
"232 749 OFFCURVE",
"198 754 CURVE",
"249 775 OFFCURVE",
"318 813 OFFCURVE",
"318 870 CURVE SMOOTH",
"318 902 OFFCURVE",
"291 915 OFFCURVE",
"260 915 CURVE SMOOTH",
"209 915 OFFCURVE",
"168 878 OFFCURVE",
"137 840 CURVE",
"135 831 OFFCURVE",
"137 828 OFFCURVE",
"140 828 CURVE SMOOTH",
"143 828 OFFCURVE",
"147 830 OFFCURVE",
"150 833 CURVE SMOOTH",
"170 856 OFFCURVE",
"201 882 OFFCURVE",
"229 882 CURVE SMOOTH",
"240 882 OFFCURVE",
"256 876 OFFCURVE",
"256 866 CURVE SMOOTH",
"256 799 OFFCURVE",
"169 746 OFFCURVE",
"118 736 CURVE",
"115 735 OFFCURVE",
"112 731 OFFCURVE",
"112 728 CURVE SMOOTH",
"112 726 OFFCURVE",
"115 723 OFFCURVE",
"121 723 CURVE SMOOTH",
"124 723 OFFCURVE",
"127 723 OFFCURVE",
"131 724 CURVE SMOOTH",
"143 726 OFFCURVE",
"169 737 OFFCURVE",
"178 737 CURVE SMOOTH",
"197 737 OFFCURVE",
"209 721 OFFCURVE",
"209 699 CURVE SMOOTH",
"209 637 OFFCURVE",
"142 548 OFFCURVE",
"64 548 CURVE SMOOTH",
"43 548 OFFCURVE",
"24 564 OFFCURVE",
"17 582 CURVE",
"13 584 OFFCURVE",
"10 585 OFFCURVE",
"8 585 CURVE SMOOTH",
"5 585 OFFCURVE",
"4 583 OFFCURVE",
"4 581 CURVE SMOOTH",
"4 578 OFFCURVE",
"5 574 OFFCURVE",
"7 570 CURVE SMOOTH",
"17 543 OFFCURVE",
"39 532 OFFCURVE",
"68 532 CURVE SMOOTH"
);
},
{
closed = 1;
nodes = (
"432 284 OFFCURVE",
"438 283 OFFCURVE",
"445 283 CURVE SMOOTH",
"464 283 OFFCURVE",
"487 292 OFFCURVE",
"490 295 CURVE",
"549 409 LINE",
"564 409 LINE",
"580 415 OFFCURVE",
"587 420 OFFCURVE",
"587 424 CURVE SMOOTH",
"587 428 OFFCURVE",
"581 431 OFFCURVE",
"568 433 CURVE",
"563 433 LINE",
"575 456 OFFCURVE",
"602 508 OFFCURVE",
"602 511 CURVE",
"608 521 OFFCURVE",
"601 525 OFFCURVE",
"590 525 CURVE SMOOTH",
"575 525 OFFCURVE",
"551 517 OFFCURVE",
"543 507 CURVE",
"524 469 OFFCURVE",
"517 457 OFFCURVE",
"505 431 CURVE",
"383 429 LINE",
"397 446 OFFCURVE",
"410 458 OFFCURVE",
"426 472 CURVE SMOOTH",
"497 532 OFFCURVE",
"614 630 OFFCURVE",
"615 646 CURVE",
"610 650 OFFCURVE",
"598 652 OFFCURVE",
"584 652 CURVE SMOOTH",
"564 652 OFFCURVE",
"541 647 OFFCURVE",
"531 630 CURVE",
"505 594 OFFCURVE",
"473 559 OFFCURVE",
"445 525 CURVE SMOOTH",
"431 512 OFFCURVE",
"417 497 OFFCURVE",
"403 482 CURVE SMOOTH",
"382 462 OFFCURVE",
"362 441 OFFCURVE",
"346 421 CURVE",
"342 402 LINE",
"489 405 LINE",
"477 382 OFFCURVE",
"427 291 OFFCURVE",
"427 287 CURVE"
);
}
);
width = 626;
}
);
note = threequarters;
unicode = 00BE;
},
{
glyphname = brokenbar;
lastChange = "2021-05-27 10:25:14 +0000";
layers = (
{
layerId = "61E7180A-0B32-4047-B910-001D8BB62225";
paths = (
{
closed = 1;
nodes = (
"221 55 LINE",
"312 505 LINE",
"265 509 LINE",
"169 55 LINE"
);
},
{
closed = 1;
nodes = (
"430 1040 LINE",
"378 1040 LINE",
"288 616 LINE",
"336 611 LINE"
);
}
);
width = 488;
}
);
note = brokenbar;
unicode = 00A6;
},
{
glyphname = minus;
lastChange = "2021-05-27 10:25:14 +0000";
layers = (
{
layerId = "61E7180A-0B32-4047-B910-001D8BB62225";
paths = (
{
closed = 1;
nodes = (
"363 496 LINE",
"364 497 LINE",
"364 517 LINE",
"363 519 LINE",
"109 519 LINE",
"107 517 LINE",
"107 497 LINE",
"109 496 LINE"
);
}
);
width = 375;
}
);
note = minus;
unicode = 2212;
},
{
glyphname = multiply;
lastChange = "2021-05-27 10:25:14 +0000";
layers = (
{
layerId = "61E7180A-0B32-4047-B910-001D8BB62225";
paths = (
{
closed = 1;
nodes = (
"216 390 OFFCURVE",
"229 405 OFFCURVE",
"230 409 CURVE",
"188 493 LINE",
"261 574 LINE",
"261 578 OFFCURVE",
"255 595 OFFCURVE",
"251 595 CURVE",
"176 515 LINE",
"134 600 LINE",
"130 599 OFFCURVE",
"115 584 OFFCURVE",
"115 580 CURVE",
"158 496 LINE",
"83 415 LINE",
"83 413 OFFCURVE",
"91 395 OFFCURVE",
"95 394 CURVE",
"169 474 LINE",
"212 389 LINE"
);
}
);
width = 306;
}
);
note = multiply;
unicode = 00D7;
},
{
glyphname = onequarter;
lastChange = "2021-05-27 10:25:14 +0000";
layers = (
{
layerId = "61E7180A-0B32-4047-B910-001D8BB62225";
paths = (
{
closed = 1;
nodes = (
"159 339 OFFCURVE",
"505 783 OFFCURVE",
"592 891 CURVE SMOOTH",
"594 894 OFFCURVE",
"595 896 OFFCURVE",
"595 899 CURVE SMOOTH",
"595 905 OFFCURVE",
"588 908 OFFCURVE",
"578 908 CURVE SMOOTH",
"567 908 OFFCURVE",
"555 904 OFFCURVE",
"548 896 CURVE",
"498 828 OFFCURVE",
"184 430 OFFCURVE",
"66 296 CURVE SMOOTH",
"62 291 OFFCURVE",
"60 287 OFFCURVE",
"60 285 CURVE SMOOTH",
"60 283 OFFCURVE",
"61 282 OFFCURVE",
"63 282 CURVE SMOOTH",
"66 282 OFFCURVE",
"70 283 OFFCURVE",
"76 287 CURVE SMOOTH"
);
},
{
closed = 1;
nodes = (
"32 535 OFFCURVE",
"39 533 OFFCURVE",
"49 533 CURVE SMOOTH",
"63 533 OFFCURVE",
"82 537 OFFCURVE",
"87 545 CURVE",
"151 661 OFFCURVE",
"204 777 OFFCURVE",
"267 891 CURVE",
"268 896 OFFCURVE",
"269 899 OFFCURVE",
"269 901 CURVE SMOOTH",
"269 907 OFFCURVE",
"266 908 OFFCURVE",
"260 908 CURVE SMOOTH",
"257 908 OFFCURVE",
"253 908 OFFCURVE",
"247 907 CURVE SMOOTH",
"232 906 OFFCURVE",
"220 892 OFFCURVE",
"212 884 CURVE SMOOTH",
"184 855 OFFCURVE",
"142 813 OFFCURVE",
"110 789 CURVE SMOOTH",
"94 777 LINE",
"87 769 OFFCURVE",
"84 765 OFFCURVE",
"84 763 CURVE SMOOTH",
"84 762 OFFCURVE",
"85 761 OFFCURVE",
"87 761 CURVE SMOOTH",
"91 761 OFFCURVE",
"99 765 OFFCURVE",
"105 768 CURVE",
"129 787 OFFCURVE",
"162 801 OFFCURVE",
"182 817 CURVE",
"32 539 LINE"
);
},
{
closed = 1;
nodes = (
"432 284 OFFCURVE",
"438 283 OFFCURVE",
"445 283 CURVE SMOOTH",
"464 283 OFFCURVE",
"487 292 OFFCURVE",
"490 295 CURVE",
"549 409 LINE",
"564 409 LINE",
"580 415 OFFCURVE",
"587 420 OFFCURVE",
"587 424 CURVE SMOOTH",
"587 428 OFFCURVE",
"581 431 OFFCURVE",
"568 433 CURVE",
"563 433 LINE",
"575 456 OFFCURVE",
"602 508 OFFCURVE",
"602 511 CURVE",
"608 521 OFFCURVE",
"601 525 OFFCURVE",
"590 525 CURVE SMOOTH",
"575 525 OFFCURVE",
"551 517 OFFCURVE",
"543 507 CURVE",
"524 469 OFFCURVE",
"517 457 OFFCURVE",
"505 431 CURVE",
"383 429 LINE",
"397 446 OFFCURVE",
"410 458 OFFCURVE",
"426 472 CURVE SMOOTH",
"497 532 OFFCURVE",
"614 630 OFFCURVE",
"615 646 CURVE",
"610 650 OFFCURVE",
"598 652 OFFCURVE",
"584 652 CURVE SMOOTH",
"564 652 OFFCURVE",
"541 647 OFFCURVE",
"531 630 CURVE",
"505 594 OFFCURVE",
"473 559 OFFCURVE",
"445 525 CURVE SMOOTH",
"431 512 OFFCURVE",
"417 497 OFFCURVE",
"403 482 CURVE SMOOTH",
"382 462 OFFCURVE",
"362 441 OFFCURVE",
"346 421 CURVE",
"342 402 LINE",
"489 405 LINE",
"477 382 OFFCURVE",
"427 291 OFFCURVE",
"427 287 CURVE"
);
}
);
width = 626;
}
);
note = onequarter;
unicode = 00BC;
},
{
glyphname = exclam;
lastChange = "2021-05-27 10:25:14 +0000";
layers = (
{
layerId = "61E7180A-0B32-4047-B910-001D8BB62225";
paths = (
{
closed = 1;
nodes = (
"244 452 OFFCURVE",
"532 871 OFFCURVE",
"543 902 CURVE",
"541 907 LINE",
"536 910 LINE",
"527 910 OFFCURVE",
"516 910 OFFCURVE",
"504 910 CURVE SMOOTH",
"483 910 OFFCURVE",
"462 908 OFFCURVE",
"453 890 CURVE SMOOTH",
"197 403 LINE",
"196 397 LINE",
"206 395 LINE"
);
},
{
closed = 1;
nodes = (
"180 273 OFFCURVE",
"205 296 OFFCURVE",
"205 322 CURVE SMOOTH",
"205 342 OFFCURVE",
"190 356 OFFCURVE",
"169 356 CURVE SMOOTH",
"146 356 OFFCURVE",
"123 338 OFFCURVE",
"121 315 CURVE SMOOTH",
"117 292 OFFCURVE",
"131 273 OFFCURVE",
"155 273 CURVE SMOOTH"
);
}
);
width = 352;
}
);
note = exclam;
unicode = 0021;
},
{
glyphname = quotedbl;
lastChange = "2021-05-27 10:25:14 +0000";
layers = (
{
layerId = "61E7180A-0B32-4047-B910-001D8BB62225";
paths = (
{
closed = 1;
nodes = (
"299 749 LINE",
"305 776 OFFCURVE",
"333 877 OFFCURVE",
"333 917 CURVE SMOOTH",
"333 938 OFFCURVE",
"327 947 OFFCURVE",
"310 947 CURVE SMOOTH",
"292 947 OFFCURVE",
"279 935 OFFCURVE",
"280 915 CURVE SMOOTH",
"288 749 LINE"
);
},
{
closed = 1;
nodes = (
"190 749 LINE",
"197 778 OFFCURVE",
"225 882 OFFCURVE",
"225 921 CURVE SMOOTH",
"225 940 OFFCURVE",
"215 947 OFFCURVE",
"201 947 CURVE SMOOTH",
"184 947 OFFCURVE",
"170 931 OFFCURVE",
"172 915 CURVE SMOOTH",
"180 749 LINE"
);
}
);
width = 320;
}
);
note = quotedbl;
unicode = 0022;
},
{
glyphname = numbersign;
lastChange = "2021-05-27 10:25:14 +0000";
layers = (
{
layerId = "61E7180A-0B32-4047-B910-001D8BB62225";
paths = (
{
closed = 1;
nodes = (
"99 288 LINE",
"239 517 LINE",
"377 517 LINE",
"240 288 LINE",
"292 288 LINE",
"433 517 LINE",
"594 517 LINE",
"623 565 LINE",
"461 565 LINE",
"545 706 LINE",
"694 706 LINE",
"722 754 LINE",
"574 754 LINE",
"714 988 LINE",
"659 988 LINE",
"520 754 LINE",
"379 754 LINE",
"520 988 LINE",
"465 988 LINE",
"326 754 LINE",
"155 754 LINE",
"126 706 LINE",
"296 706 LINE",
"212 565 LINE",
"55 565 LINE",
"25 517 LINE",
"184 517 LINE",
"46 288 LINE"
);
},
{
closed = 1;
nodes = (
"351 706 LINE",
"490 706 LINE",
"406 565 LINE",
"265 565 LINE"
);
}
);
width = 750;
}
);
note = numbersign;
unicode = 0023;
},
{
glyphname = dollar;
lastChange = "2021-05-27 10:25:14 +0000";
layers = (
{
layerId = "61E7180A-0B32-4047-B910-001D8BB62225";
paths = (
{
closed = 1;
nodes = (
"55 232 LINE",
"83 285 LINE",
"194 285 OFFCURVE",
"340 352 OFFCURVE",
"340 481 CURVE SMOOTH",
"340 536 OFFCURVE",
"306 587 OFFCURVE",
"273 630 CURVE",
"391 843 LINE",
"419 836 OFFCURVE",
"449 823 OFFCURVE",
"454 783 CURVE",
"452 791 OFFCURVE",
"434 799 OFFCURVE",
"423 799 CURVE SMOOTH",
"396 799 OFFCURVE",
"378 780 OFFCURVE",
"378 755 CURVE SMOOTH",
"378 731 OFFCURVE",
"398 710 OFFCURVE",
"422 710 CURVE SMOOTH",
"454 710 OFFCURVE",
"477 742 OFFCURVE",
"477 777 CURVE SMOOTH",
"477 815 OFFCURVE",
"457 854 OFFCURVE",
"403 863 CURVE",
"437 923 LINE",
"405 918 LINE",
"377 866 LINE",
"285 866 OFFCURVE",
"158 819 OFFCURVE",
"158 710 CURVE SMOOTH",
"158 662 OFFCURVE",
"189 618 OFFCURVE",
"218 582 CURVE",
"68 308 LINE",
"28 316 OFFCURVE",
"-11 335 OFFCURVE",
"-40 364 CURVE",
"-50 364 LINE",
"-54 360 OFFCURVE",
"-67 347 OFFCURVE",
"-67 340 CURVE",
"-43 308 OFFCURVE",
"19 295 OFFCURVE",
"56 288 CURVE",
"21 226 LINE"
);
},
{
closed = 1;
nodes = (
"236 561 LINE",
"257 533 OFFCURVE",
"277 498 OFFCURVE",
"277 462 CURVE SMOOTH",
"277 369 OFFCURVE",
"181 306 OFFCURVE",
"95 306 CURVE"
);
},
{
closed = 1;
nodes = (
"240 679 OFFCURVE",
"221 702 OFFCURVE",
"221 736 CURVE SMOOTH",
"221 803 OFFCURVE",
"292 847 OFFCURVE",
"352 847 CURVE SMOOTH",
"356 847 OFFCURVE",
"360 847 OFFCURVE",
"366 847 CURVE",
"257 651 LINE"
);
}
);
width = 452;
}
);
note = dollar;
unicode = 0024;
},
{
glyphname = percent;
lastChange = "2021-05-27 10:25:14 +0000";
layers = (
{
layerId = "61E7180A-0B32-4047-B910-001D8BB62225";
paths = (
{
closed = 1;
nodes = (
"5 204 LINE",
"623 951 LINE",
"623 957 OFFCURVE",
"618 959 OFFCURVE",
"612 959 CURVE SMOOTH",
"606 959 OFFCURVE",
"599 957 OFFCURVE",
"598 955 CURVE SMOOTH",
"583 947 OFFCURVE",
"461 801 OFFCURVE",
"415 766 CURVE SMOOTH",
"366 727 OFFCURVE",
"317 698 OFFCURVE",
"281 698 CURVE SMOOTH",
"264 698 OFFCURVE",
"249 705 OFFCURVE",
"240 722 CURVE",
"285 764 OFFCURVE",
"348 875 OFFCURVE",
"348 950 CURVE SMOOTH",
"348 992 OFFCURVE",
"329 1023 OFFCURVE",
"275 1024 CURVE SMOOTH",
"208 1024 OFFCURVE",
"123 946 OFFCURVE",
"83 855 CURVE SMOOTH",
"69 822 OFFCURVE",
"62 789 OFFCURVE",
"62 760 CURVE SMOOTH",
"62 710 OFFCURVE",
"84 672 OFFCURVE",
"133 670 CURVE SMOOTH",
"163 670 OFFCURVE",
"193 683 OFFCURVE",
"220 705 CURVE",
"237 688 OFFCURVE",
"257 680 OFFCURVE",
"279 680 CURVE SMOOTH",
"327 680 OFFCURVE",
"385 716 OFFCURVE",
"440 762 CURVE",
"287 574 OFFCURVE",
"135 385 OFFCURVE",
"-34 208 CURVE",
"-32 204 LINE"
);
},
{
closed = 1;
nodes = (
"343 286 OFFCURVE",
"336 301 OFFCURVE",
"336 324 CURVE SMOOTH",
"336 355 OFFCURVE",
"349 398 OFFCURVE",
"371 445 CURVE SMOOTH",
"406 518 OFFCURVE",
"459 578 OFFCURVE",
"502 578 CURVE SMOOTH",
"530 578 OFFCURVE",
"540 559 OFFCURVE",
"540 531 CURVE SMOOTH",
"540 511 OFFCURVE",
"534 486 OFFCURVE",
"525 461 CURVE SMOOTH",
"509 419 OFFCURVE",
"489 377 OFFCURVE",
"474 358 CURVE SMOOTH",
"452 331 OFFCURVE",
"413 279 OFFCURVE",
"372 279 CURVE SMOOTH",
"368 279 OFFCURVE",
"363 280 OFFCURVE",
"359 281 CURVE SMOOTH"
);
},
{
closed = 1;
nodes = (
"452 259 OFFCURVE",
"568 429 OFFCURVE",
"568 532 CURVE SMOOTH",
"568 577 OFFCURVE",
"545 610 OFFCURVE",
"490 610 CURVE SMOOTH",
"423 610 OFFCURVE",
"340 532 OFFCURVE",
"302 441 CURVE SMOOTH",
"288 408 OFFCURVE",
"281 375 OFFCURVE",
"281 347 CURVE SMOOTH",
"281 296 OFFCURVE",
"304 259 OFFCURVE",
"354 259 CURVE SMOOTH"
);
},
{
closed = 1;
nodes = (
"129 693 OFFCURVE",
"118 710 OFFCURVE",
"118 737 CURVE SMOOTH",
"118 767 OFFCURVE",
"131 810 OFFCURVE",
"153 858 CURVE SMOOTH",
"189 931 OFFCURVE",
"242 990 OFFCURVE",
"285 990 CURVE SMOOTH",
"311 990 OFFCURVE",
"321 972 OFFCURVE",
"321 946 CURVE SMOOTH",
"321 890 OFFCURVE",
"277 800 OFFCURVE",
"256 771 CURVE",
"259 775 OFFCURVE",
"259 777 OFFCURVE",
"259 781 CURVE SMOOTH",
"259 799 OFFCURVE",
"245 811 OFFCURVE",
"228 811 CURVE SMOOTH",
"203 811 OFFCURVE",
"194 789 OFFCURVE",
"194 765 CURVE SMOOTH",
"194 751 OFFCURVE",
"201 733 OFFCURVE",
"209 718 CURVE",
"189 702 OFFCURVE",
"170 693 OFFCURVE",
"152 693 CURVE SMOOTH"
);
}
);
width = 624;
}
);
note = percent;
unicode = 0025;
},
{
glyphname = ampersand;
lastChange = "2021-05-27 10:25:14 +0000";
layers = (
{
layerId = "61E7180A-0B32-4047-B910-001D8BB62225";
paths = (
{
closed = 1;
nodes = (
"433 243 OFFCURVE",
"558 364 OFFCURVE",
"558 462 CURVE SMOOTH",
"558 491 OFFCURVE",
"546 519 OFFCURVE",
"521 540 CURVE",
"632 537 OFFCURVE",
"749 593 OFFCURVE",
"749 665 CURVE SMOOTH",
"749 680 OFFCURVE",
"744 695 OFFCURVE",
"734 710 CURVE SMOOTH",
"732 714 OFFCURVE",
"729 715 OFFCURVE",
"727 715 CURVE SMOOTH",
"724 715 OFFCURVE",
"722 713 OFFCURVE",
"722 709 CURVE SMOOTH",
"722 707 OFFCURVE",
"722 705 OFFCURVE",
"724 702 CURVE SMOOTH",
"730 692 OFFCURVE",
"733 683 OFFCURVE",
"733 674 CURVE SMOOTH",
"733 611 OFFCURVE",
"584 572 OFFCURVE",
"541 572 CURVE SMOOTH",
"364 572 LINE SMOOTH",
"244 572 OFFCURVE",
"177 522 OFFCURVE",
"177 462 CURVE SMOOTH",
"177 419 OFFCURVE",
"211 371 OFFCURVE",
"284 332 CURVE SMOOTH",
"290 330 OFFCURVE",
"293 333 OFFCURVE",
"293 339 CURVE SMOOTH",
"293 344 OFFCURVE",
"290 351 OFFCURVE",
"284 354 CURVE SMOOTH",
"237 378 OFFCURVE",
"216 408 OFFCURVE",
"216 437 CURVE SMOOTH",
"216 440 OFFCURVE",
"217 443 OFFCURVE",
"217 446 CURVE SMOOTH",
"227 505 OFFCURVE",
"303 534 OFFCURVE",
"374 534 CURVE SMOOTH",
"442 534 OFFCURVE",
"505 508 OFFCURVE",
"505 456 CURVE SMOOTH",
"505 377 OFFCURVE",
"407 256 OFFCURVE",
"263 256 CURVE SMOOTH",
"158 256 OFFCURVE",
"110 331 OFFCURVE",
"110 418 CURVE SMOOTH",
"110 526 OFFCURVE",
"184 651 OFFCURVE",
"316 670 CURVE",
"336 650 OFFCURVE",
"373 626 OFFCURVE",
"417 626 CURVE SMOOTH",
"452 626 OFFCURVE",
"467 640 OFFCURVE",
"467 654 CURVE SMOOTH",
"467 672 OFFCURVE",
"446 690 OFFCURVE",
"411 690 CURVE SMOOTH",
"383 690 OFFCURVE",
"356 687 OFFCURVE",
"336 687 CURVE",
"330 700 OFFCURVE",
"328 713 OFFCURVE",
"328 727 CURVE SMOOTH",
"328 786 OFFCURVE",
"373 851 OFFCURVE",
"410 884 CURVE SMOOTH",
"477 943 OFFCURVE",
"553 967 OFFCURVE",
"606 967 CURVE SMOOTH",
"639 966 OFFCURVE",
"675 954 OFFCURVE",
"675 918 CURVE SMOOTH",
"675 914 OFFCURVE",
"675 911 OFFCURVE",
"674 907 CURVE",
"670 915 OFFCURVE",
"651 925 OFFCURVE",
"639 925 CURVE SMOOTH",
"612 925 OFFCURVE",
"592 905 OFFCURVE",
"592 877 CURVE SMOOTH",
"592 853 OFFCURVE",
"613 831 OFFCURVE",
"639 831 CURVE SMOOTH",
"674 831 OFFCURVE",
"701 867 OFFCURVE",
"701 906 CURVE SMOOTH",
"701 975 OFFCURVE",
"631 994 OFFCURVE",
"575 994 CURVE SMOOTH",
"452 994 OFFCURVE",
"277 916 OFFCURVE",
"275 775 CURVE SMOOTH",
"275 744 OFFCURVE",
"284 710 OFFCURVE",
"303 685 CURVE",
"112 664 OFFCURVE",
"11 542 OFFCURVE",
"11 432 CURVE SMOOTH",
"11 333 OFFCURVE",
"92 243 OFFCURVE",
"263 243 CURVE SMOOTH"
);
},
{
closed = 1;
nodes = (
"385 643 OFFCURVE",
"360 654 OFFCURVE",
"344 674 CURVE",
"369 674 OFFCURVE",
"393 674 OFFCURVE",
"419 673 CURVE SMOOTH",
"438 671 OFFCURVE",
"450 663 OFFCURVE",
"450 656 CURVE SMOOTH",
"450 649 OFFCURVE",
"440 643 OFFCURVE",
"417 643 CURVE SMOOTH"
);
}
);
width = 610;
}
);
note = ampersand;
unicode = 0026;
},
{
glyphname = quotesingle;
lastChange = "2021-05-27 10:25:14 +0000";
layers = (
{
layerId = "61E7180A-0B32-4047-B910-001D8BB62225";
paths = (
{
closed = 1;
nodes = (
"131 691 OFFCURVE",
"189 729 OFFCURVE",
"189 795 CURVE SMOOTH",
"189 820 OFFCURVE",
"177 850 OFFCURVE",
"147 850 CURVE SMOOTH",
"123 850 OFFCURVE",
"98 827 OFFCURVE",
"98 801 CURVE SMOOTH",
"98 781 OFFCURVE",
"113 766 OFFCURVE",
"134 766 CURVE SMOOTH",
"145 766 OFFCURVE",
"154 771 OFFCURVE",
"163 776 CURVE",
"157 730 OFFCURVE",
"123 702 OFFCURVE",
"86 689 CURVE SMOOTH",
"80 687 OFFCURVE",
"78 684 OFFCURVE",
"78 681 CURVE SMOOTH",
"78 679 OFFCURVE",
"79 677 OFFCURVE",
"83 677 CURVE SMOOTH",
"84 677 OFFCURVE",
"86 677 OFFCURVE",
"88 678 CURVE SMOOTH"
);
}
);
width = 159;
}
);
note = quotesingle;
unicode = 0027;
},
{
glyphname = parenleft;
lastChange = "2021-05-27 10:25:14 +0000";
layers = (
{
layerId = "61E7180A-0B32-4047-B910-001D8BB62225";
paths = (
{
closed = 1;
nodes = (
"249 230 OFFCURVE",
"257 237 OFFCURVE",
"257 243 CURVE SMOOTH",
"257 247 OFFCURVE",
"252 251 OFFCURVE",
"242 251 CURVE SMOOTH",
"241 251 OFFCURVE",
"240 251 OFFCURVE",
"239 251 CURVE SMOOTH",
"233 250 OFFCURVE",
"226 250 OFFCURVE",
"220 250 CURVE SMOOTH",
"127 250 OFFCURVE",
"83 342 OFFCURVE",
"83 457 CURVE SMOOTH",
"83 509 OFFCURVE",
"92 567 OFFCURVE",
"110 622 CURVE SMOOTH",
"147 738 OFFCURVE",
"268 965 OFFCURVE",
"498 1025 CURVE SMOOTH",
"514 1029 OFFCURVE",
"522 1037 OFFCURVE",
"522 1043 CURVE SMOOTH",
"522 1046 OFFCURVE",
"519 1049 OFFCURVE",
"511 1049 CURVE SMOOTH",
"507 1049 OFFCURVE",
"503 1048 OFFCURVE",
"498 1047 CURVE SMOOTH",
"268 988 OFFCURVE",
"80 761 OFFCURVE",
"42 614 CURVE SMOOTH",
"30 569 OFFCURVE",
"25 526 OFFCURVE",
"25 486 CURVE SMOOTH",
"25 332 OFFCURVE",
"107 227 OFFCURVE",
"213 227 CURVE SMOOTH",
"220 227 OFFCURVE",
"226 227 OFFCURVE",
"232 228 CURVE SMOOTH"
);
}
);
width = 352;
}
);
note = parenleft;
unicode = 0028;
},
{
glyphname = parenright;
lastChange = "2021-05-27 10:25:14 +0000";
layers = (
{
layerId = "61E7180A-0B32-4047-B910-001D8BB62225";
paths = (
{
closed = 1;
nodes = (
"268 296 OFFCURVE",
"457 521 OFFCURVE",
"494 670 CURVE SMOOTH",
"505 714 OFFCURVE",
"511 757 OFFCURVE",
"511 796 CURVE SMOOTH",
"511 950 OFFCURVE",
"430 1056 OFFCURVE",
"323 1056 CURVE SMOOTH",
"317 1056 OFFCURVE",
"311 1056 OFFCURVE",
"304 1055 CURVE SMOOTH",
"287 1053 OFFCURVE",
"279 1046 OFFCURVE",
"279 1040 CURVE SMOOTH",
"279 1036 OFFCURVE",
"284 1032 OFFCURVE",
"294 1032 CURVE SMOOTH",
"296 1032 OFFCURVE",
"297 1032 OFFCURVE",
"299 1032 CURVE SMOOTH",
"305 1033 OFFCURVE",
"311 1033 OFFCURVE",
"316 1033 CURVE SMOOTH",
"409 1033 OFFCURVE",
"453 942 OFFCURVE",
"453 826 CURVE SMOOTH",
"453 774 OFFCURVE",
"444 717 OFFCURVE",
"426 661 CURVE SMOOTH",
"389 544 OFFCURVE",
"268 318 OFFCURVE",
"39 257 CURVE SMOOTH",
"23 253 OFFCURVE",
"14 245 OFFCURVE",
"14 240 CURVE SMOOTH",
"14 236 OFFCURVE",
"18 234 OFFCURVE",
"25 234 CURVE SMOOTH",
"28 234 OFFCURVE",
"33 235 OFFCURVE",
"38 236 CURVE SMOOTH"
);
}
);
width = 521;
}
);
note = parenright;
unicode = 0029;
},
{
glyphname = asterisk;
lastChange = "2021-05-27 10:25:14 +0000";
layers = (
{
layerId = "61E7180A-0B32-4047-B910-001D8BB62225";
paths = (
{
closed = 1;
nodes = (
"208 624 LINE",
"229 575 OFFCURVE",
"247 536 OFFCURVE",
"257 512 CURVE SMOOTH",
"262 503 OFFCURVE",
"268 499 OFFCURVE",
"273 499 CURVE SMOOTH",
"288 499 OFFCURVE",
"302 524 OFFCURVE",
"296 536 CURVE SMOOTH",
"276 572 OFFCURVE",
"260 606 OFFCURVE",
"243 642 CURVE",
"375 646 LINE SMOOTH",
"397 647 OFFCURVE",
"410 659 OFFCURVE",
"410 668 CURVE SMOOTH",
"410 674 OFFCURVE",
"405 678 OFFCURVE",
"394 678 CURVE SMOOTH",
"257 678 LINE",
"343 771 LINE SMOOTH",
"353 782 OFFCURVE",
"358 793 OFFCURVE",
"358 802 CURVE SMOOTH",
"358 809 OFFCURVE",
"354 814 OFFCURVE",
"349 814 CURVE SMOOTH",
"345 814 OFFCURVE",
"341 812 OFFCURVE",
"336 807 CURVE SMOOTH",
"220 690 LINE",
"201 725 OFFCURVE",
"182 762 OFFCURVE",
"159 805 CURVE SMOOTH",
"152 820 OFFCURVE",
"141 827 OFFCURVE",
"133 827 CURVE SMOOTH",
"127 827 OFFCURVE",
"123 823 OFFCURVE",
"123 816 CURVE SMOOTH",
"123 813 OFFCURVE",
"124 809 OFFCURVE",
"126 804 CURVE SMOOTH",
"147 760 OFFCURVE",
"166 718 OFFCURVE",
"184 678 CURVE",
"38 678 LINE SMOOTH",
"22 678 OFFCURVE",
"16 669 OFFCURVE",
"16 660 CURVE SMOOTH",
"16 647 OFFCURVE",
"26 633 OFFCURVE",
"36 634 CURVE SMOOTH",
"169 638 LINE",
"68 537 LINE SMOOTH",
"62 531 OFFCURVE",
"60 525 OFFCURVE",
"60 520 CURVE SMOOTH",
"60 508 OFFCURVE",
"73 501 OFFCURVE",
"85 501 CURVE SMOOTH",
"90 501 OFFCURVE",
"95 502 OFFCURVE",
"98 505 CURVE SMOOTH"
);
}
);
width = 433;
}
);
note = asterisk;
unicode = 002A;
},
{
glyphname = plus;
lastChange = "2021-05-27 10:25:14 +0000";
layers = (
{
layerId = "61E7180A-0B32-4047-B910-001D8BB62225";
paths = (
{
closed = 1;
nodes = (
"253 344 OFFCURVE",
"260 339 OFFCURVE",
"270 339 CURVE SMOOTH",
"284 339 OFFCURVE",
"303 348 OFFCURVE",
"304 356 CURVE SMOOTH",
"307 386 OFFCURVE",
"319 445 OFFCURVE",
"327 493 CURVE",
"370 497 OFFCURVE",
"422 500 OFFCURVE",
"461 500 CURVE SMOOTH",
"475 500 OFFCURVE",
"481 506 OFFCURVE",
"481 513 CURVE SMOOTH",
"481 519 OFFCURVE",
"475 526 OFFCURVE",
"464 527 CURVE SMOOTH",
"443 528 OFFCURVE",
"420 528 OFFCURVE",
"397 528 CURVE SMOOTH",
"375 528 OFFCURVE",
"353 528 OFFCURVE",
"332 528 CURVE",
"340 570 OFFCURVE",
"354 641 OFFCURVE",
"363 678 CURVE SMOOTH",
"366 690 OFFCURVE",
"361 695 OFFCURVE",
"356 695 CURVE SMOOTH",
"348 695 OFFCURVE",
"338 687 OFFCURVE",
"335 674 CURVE SMOOTH",
"324 634 OFFCURVE",
"308 565 OFFCURVE",
"300 528 CURVE",
"247 529 OFFCURVE",
"182 531 OFFCURVE",
"159 531 CURVE SMOOTH",
"143 531 OFFCURVE",
"137 516 OFFCURVE",
"137 502 CURVE SMOOTH",
"137 491 OFFCURVE",
"141 482 OFFCURVE",
"147 482 CURVE SMOOTH",
"177 485 OFFCURVE",
"243 488 OFFCURVE",
"289 492 CURVE",
"276 437 OFFCURVE",
"260 379 OFFCURVE",
"256 356 CURVE SMOOTH"
);
}
);
width = 461;
}
);
note = plus;
unicode = 002B;
},
{
glyphname = comma;
lastChange = "2021-05-27 10:25:14 +0000";
layers = (
{
layerId = "61E7180A-0B32-4047-B910-001D8BB62225";
paths = (
{
closed = 1;
nodes = (
"52 200 OFFCURVE",
"115 241 OFFCURVE",
"115 308 CURVE SMOOTH",
"115 334 OFFCURVE",
"99 356 OFFCURVE",
"71 356 CURVE SMOOTH",
"47 356 OFFCURVE",
"25 338 OFFCURVE",
"23 315 CURVE SMOOTH",
"19 292 OFFCURVE",
"34 273 OFFCURVE",
"56 273 CURVE SMOOTH",
"67 273 OFFCURVE",
"76 277 OFFCURVE",
"84 284 CURVE",
"79 239 OFFCURVE",
"46 208 OFFCURVE",
"8 196 CURVE SMOOTH",
"2 194 OFFCURVE",
"-1 191 OFFCURVE",
"-1 188 CURVE SMOOTH",
"-1 186 OFFCURVE",
"1 184 OFFCURVE",
"5 184 CURVE SMOOTH",
"7 184 OFFCURVE",
"9 184 OFFCURVE",
"11 185 CURVE SMOOTH"
);
}
);
width = 154;
}
);
note = comma;
unicode = 002C;
},
{
glyphname = hyphen;
lastChange = "2021-05-27 10:25:14 +0000";
layers = (
{
layerId = "61E7180A-0B32-4047-B910-001D8BB62225";
paths = (
{
closed = 1;
nodes = (
"225 489 OFFCURVE",
"297 500 OFFCURVE",
"390 500 CURVE SMOOTH",
"402 500 OFFCURVE",
"407 505 OFFCURVE",
"407 510 CURVE SMOOTH",
"407 518 OFFCURVE",
"399 526 OFFCURVE",
"386 527 CURVE SMOOTH",
"269 529 OFFCURVE",
"208 531 OFFCURVE",
"165 531 CURVE SMOOTH",
"153 531 OFFCURVE",
"148 522 OFFCURVE",
"148 512 CURVE SMOOTH",
"148 498 OFFCURVE",
"157 481 OFFCURVE",
"165 482 CURVE SMOOTH"
);
}
);
width = 409;
}
);
note = hyphen;
unicode = 002D;
},
{
glyphname = period;
lastChange = "2021-05-27 10:25:14 +0000";
layers = (
{
layerId = "61E7180A-0B32-4047-B910-001D8BB62225";
paths = (
{
closed = 1;
nodes = (
"163 273 OFFCURVE",
"187 296 OFFCURVE",
"187 322 CURVE SMOOTH",
"187 342 OFFCURVE",
"172 356 OFFCURVE",
"151 356 CURVE SMOOTH",
"127 356 OFFCURVE",
"102 334 OFFCURVE",
"102 308 CURVE SMOOTH",
"102 288 OFFCURVE",
"117 273 OFFCURVE",
"138 273 CURVE SMOOTH"
);
}
);
width = 209;
}
);
note = period;
unicode = 002E;
},
{
glyphname = slash;
lastChange = "2021-05-27 10:25:14 +0000";
layers = (
{
layerId = "61E7180A-0B32-4047-B910-001D8BB62225";
paths = (
{
closed = 1;
nodes = (
"168 335 OFFCURVE",
"586 887 OFFCURVE",
"752 1080 CURVE SMOOTH",
"756 1085 OFFCURVE",
"758 1089 OFFCURVE",
"758 1092 CURVE SMOOTH",
"758 1101 OFFCURVE",
"747 1107 OFFCURVE",
"735 1107 CURVE SMOOTH",
"723 1107 OFFCURVE",
"710 1103 OFFCURVE",
"702 1092 CURVE SMOOTH",
"425 742 OFFCURVE",
"127 358 OFFCURVE",
"27 271 CURVE SMOOTH",
"20 265 OFFCURVE",
"16 258 OFFCURVE",
"16 254 CURVE SMOOTH",
"16 250 OFFCURVE",
"19 247 OFFCURVE",
"24 247 CURVE SMOOTH",
"29 247 OFFCURVE",
"36 249 OFFCURVE",
"44 255 CURVE SMOOTH"
);
}
);
width = 551;
}
);
note = slash;
unicode = 002F;
},
{
glyphname = zero;
lastChange = "2021-05-27 10:25:14 +0000";
layers = (
{
layerId = "61E7180A-0B32-4047-B910-001D8BB62225";
paths = (
{
closed = 1;
nodes = (
"344 276 OFFCURVE",
"508 599 OFFCURVE",
"508 758 CURVE SMOOTH",
"508 820 OFFCURVE",
"484 870 OFFCURVE",
"414 870 CURVE SMOOTH",
"245 870 OFFCURVE",
"52 560 OFFCURVE",
"52 407 CURVE SMOOTH",
"52 339 OFFCURVE",
"87 276 OFFCURVE",
"162 276 CURVE SMOOTH"
);
},
{
closed = 1;
nodes = (
"127 296 OFFCURVE",
"113 331 OFFCURVE",
"113 373 CURVE SMOOTH",
"113 485 OFFCURVE",
"284 851 OFFCURVE",
"415 851 CURVE SMOOTH",
"458 851 OFFCURVE",
"469 815 OFFCURVE",
"469 777 CURVE SMOOTH",
"469 657 OFFCURVE",
"311 296 OFFCURVE",
"174 296 CURVE SMOOTH"
);
}
);
width = 505;
}
);
note = zero;
unicode = 0030;
},
{
glyphname = one;
lastChange = "2021-05-27 10:25:14 +0000";
layers = (
{
layerId = "61E7180A-0B32-4047-B910-001D8BB62225";
paths = (
{
closed = 1;
nodes = (
"83 287 OFFCURVE",
"113 287 OFFCURVE",
"123 292 CURVE",
"423 843 LINE",
"429 854 LINE",
"429 859 LINE",
"426 859 OFFCURVE",
"425 860 OFFCURVE",
"422 859 CURVE",
"391 856 LINE SMOOTH",
"374 855 OFFCURVE",
"356 835 OFFCURVE",
"346 823 CURVE SMOOTH",
"288 762 OFFCURVE",
"229 720 OFFCURVE",
"162 669 CURVE",
"159 662 LINE",
"163 654 LINE",
"168 654 LINE",
"228 690 OFFCURVE",
"280 732 OFFCURVE",
"332 779 CURVE",
"241 618 OFFCURVE",
"151 456 OFFCURVE",
"60 293 CURVE",
"62 288 LINE",
"63 288 OFFCURVE",
"68 285 OFFCURVE",
"71 285 CURVE SMOOTH"
);
}
);
width = 381;
}
);
note = one;
unicode = 0031;
},
{
glyphname = two;
lastChange = "2021-05-27 10:25:14 +0000";
layers = (
{
layerId = "61E7180A-0B32-4047-B910-001D8BB62225";
paths = (
{
closed = 1;
nodes = (
"295 276 OFFCURVE",
"369 356 OFFCURVE",
"401 395 CURVE",
"401 399 LINE",
"393 405 LINE",
"381 401 OFFCURVE",
"336 332 OFFCURVE",
"280 332 CURVE SMOOTH",
"256 332 OFFCURVE",
"168 377 OFFCURVE",
"142 389 CURVE",
"218 453 OFFCURVE",
"505 674 OFFCURVE",
"505 783 CURVE SMOOTH",
"505 838 OFFCURVE",
"465 867 OFFCURVE",
"414 867 CURVE SMOOTH",
"312 867 OFFCURVE",
"235 769 OFFCURVE",
"204 682 CURVE",
"205 675 LINE",
"217 675 LINE",
"221 679 LINE",
"247 745 OFFCURVE",
"311 835 OFFCURVE",
"387 835 CURVE SMOOTH",
"417 835 OFFCURVE",
"436 823 OFFCURVE",
"436 791 CURVE SMOOTH",
"436 677 OFFCURVE",
"204 469 OFFCURVE",
"122 395 CURVE",
"118 397 OFFCURVE",
"113 397 OFFCURVE",
"108 397 CURVE SMOOTH",
"105 397 OFFCURVE",
"102 397 OFFCURVE",
"99 397 CURVE SMOOTH",
"94 394 OFFCURVE",
"3 295 OFFCURVE",
"1 288 CURVE",
"15 280 LINE",
"84 335 LINE",
"109 324 OFFCURVE",
"212 276 OFFCURVE",
"241 276 CURVE SMOOTH"
);
}
);
width = 490;
}
);
note = two;
unicode = 0032;
},
{
glyphname = three;
lastChange = "2021-05-27 10:25:14 +0000";
layers = (
{
layerId = "61E7180A-0B32-4047-B910-001D8BB62225";
paths = (
{
closed = 1;
nodes = (
"218 276 OFFCURVE",
"401 401 OFFCURVE",
"401 524 CURVE SMOOTH",
"401 596 OFFCURVE",
"324 616 OFFCURVE",
"265 616 CURVE",
"344 645 OFFCURVE",
"489 706 OFFCURVE",
"489 807 CURVE SMOOTH",
"489 851 OFFCURVE",
"453 868 OFFCURVE",
"413 868 CURVE SMOOTH",
"336 868 OFFCURVE",
"275 813 OFFCURVE",
"229 758 CURVE",
"229 753 LINE",
"236 746 LINE",
"241 746 LINE",
"273 783 OFFCURVE",
"328 836 OFFCURVE",
"381 836 CURVE SMOOTH",
"405 836 OFFCURVE",
"419 825 OFFCURVE",
"419 800 CURVE SMOOTH",
"419 702 OFFCURVE",
"261 626 OFFCURVE",
"188 598 CURVE",
"184 592 LINE",
"185 583 LINE",
"192 580 LINE",
"214 586 OFFCURVE",
"240 594 OFFCURVE",
"263 594 CURVE SMOOTH",
"300 594 OFFCURVE",
"332 574 OFFCURVE",
"332 532 CURVE SMOOTH",
"332 425 OFFCURVE",
"196 299 OFFCURVE",
"92 299 CURVE SMOOTH",
"71 299 OFFCURVE",
"42 304 OFFCURVE",
"23 314 CURVE",
"17 312 LINE",
"11 306 LINE",
"11 300 LINE",
"36 281 OFFCURVE",
"72 276 OFFCURVE",
"103 276 CURVE SMOOTH"
);
}
);
width = 461;
}
);
note = three;
unicode = 0033;
},
{
glyphname = four;
lastChange = "2021-05-27 10:25:14 +0000";
layers = (
{
layerId = "61E7180A-0B32-4047-B910-001D8BB62225";
paths = (
{
closed = 1;
nodes = (
"236 280 OFFCURVE",
"288 291 OFFCURVE",
"292 296 CURVE SMOOTH",
"304 307 OFFCURVE",
"375 456 OFFCURVE",
"387 480 CURVE",
"417 481 LINE",
"423 485 LINE",
"429 497 LINE",
"422 501 LINE",
"398 501 LINE",
"405 513 OFFCURVE",
"465 630 OFFCURVE",
"465 634 CURVE SMOOTH",
"465 641 LINE",
"458 643 LINE",
"441 642 OFFCURVE",
"410 643 OFFCURVE",
"401 624 CURVE SMOOTH",
"336 497 LINE",
"118 493 LINE",
"150 523 OFFCURVE",
"489 820 OFFCURVE",
"488 852 CURVE SMOOTH",
"486 859 LINE",
"480 863 LINE",
"426 852 OFFCURVE",
"409 859 OFFCURVE",
"377 816 CURVE SMOOTH",
"332 758 OFFCURVE",
"288 706 OFFCURVE",
"240 653 CURVE SMOOTH",
"192 598 OFFCURVE",
"127 541 OFFCURVE",
"83 485 CURVE SMOOTH",
"82 484 OFFCURVE",
"80 481 OFFCURVE",
"79 478 CURVE",
"79 470 LINE",
"324 477 LINE",
"315 461 OFFCURVE",
"224 292 OFFCURVE",
"224 285 CURVE SMOOTH",
"224 281 LINE",
"228 280 LINE"
);
}
);
width = 466;
}
);
note = four;
unicode = 0034;
},
{
glyphname = five;
lastChange = "2021-05-27 10:25:14 +0000";
layers = (
{
layerId = "61E7180A-0B32-4047-B910-001D8BB62225";
paths = (
{
closed = 1;
nodes = (
"188 275 OFFCURVE",
"385 413 OFFCURVE",
"385 552 CURVE SMOOTH",
"385 612 OFFCURVE",
"340 639 OFFCURVE",
"284 639 CURVE SMOOTH",
"240 639 OFFCURVE",
"188 619 OFFCURVE",
"150 594 CURVE",
"260 787 LINE",
"284 785 OFFCURVE",
"312 783 OFFCURVE",
"340 783 CURVE SMOOTH",
"410 783 OFFCURVE",
"483 797 OFFCURVE",
"509 867 CURVE",
"505 868 LINE",
"483 851 OFFCURVE",
"455 847 OFFCURVE",
"424 847 CURVE SMOOTH",
"392 847 OFFCURVE",
"358 852 OFFCURVE",
"328 852 CURVE SMOOTH",
"308 852 OFFCURVE",
"290 850 OFFCURVE",
"275 844 CURVE",
"261 833 OFFCURVE",
"123 592 OFFCURVE",
"114 565 CURVE",
"114 559 LINE",
"119 557 LINE",
"162 578 OFFCURVE",
"204 614 OFFCURVE",
"252 614 CURVE SMOOTH",
"293 614 OFFCURVE",
"318 590 OFFCURVE",
"318 549 CURVE SMOOTH",
"318 437 OFFCURVE",
"173 293 OFFCURVE",
"60 293 CURVE SMOOTH",
"40 293 OFFCURVE",
"17 296 OFFCURVE",
"-3 303 CURVE",
"-7 300 LINE",
"-12 293 LINE",
"-12 287 LINE",
"4 276 OFFCURVE",
"40 275 OFFCURVE",
"59 275 CURVE SMOOTH"
);
}
);
width = 448;
}
);
note = five;
unicode = 0035;
},
{
glyphname = six;
lastChange = "2021-05-27 10:25:14 +0000";
layers = (
{
layerId = "61E7180A-0B32-4047-B910-001D8BB62225";
paths = (
{
closed = 1;
nodes = (
"263 276 OFFCURVE",
"402 433 OFFCURVE",
"402 547 CURVE SMOOTH",
"402 591 OFFCURVE",
"378 626 OFFCURVE",
"331 626 CURVE SMOOTH",
"241 626 OFFCURVE",
"163 513 OFFCURVE",
"145 436 CURVE",
"147 429 LINE",
"157 430 LINE",
"161 436 LINE",
"182 490 OFFCURVE",
"240 595 OFFCURVE",
"307 595 CURVE SMOOTH",
"332 595 OFFCURVE",
"340 578 OFFCURVE",
"340 555 CURVE SMOOTH",
"340 470 OFFCURVE",
"247 300 OFFCURVE",
"151 300 CURVE SMOOTH",
"115 300 OFFCURVE",
"96 328 OFFCURVE",
"96 362 CURVE SMOOTH",
"96 457 OFFCURVE",
"177 586 OFFCURVE",
"232 659 CURVE SMOOTH",
"272 710 OFFCURVE",
"315 758 OFFCURVE",
"362 801 CURVE SMOOTH",
"383 820 OFFCURVE",
"413 839 OFFCURVE",
"430 859 CURVE SMOOTH",
"433 862 OFFCURVE",
"433 866 OFFCURVE",
"436 867 CURVE",
"429 879 LINE",
"422 878 LINE",
"283 781 OFFCURVE",
"38 567 OFFCURVE",
"38 385 CURVE SMOOTH",
"38 316 OFFCURVE",
"79 276 OFFCURVE",
"146 276 CURVE SMOOTH"
);
}
);
width = 423;
}
);
note = six;
unicode = 0036;
},
{
glyphname = seven;
lastChange = "2021-05-27 10:25:14 +0000";
layers = (
{
layerId = "61E7180A-0B32-4047-B910-001D8BB62225";
paths = (
{
closed = 1;
nodes = (
"51 284 OFFCURVE",
"87 283 OFFCURVE",
"102 292 CURVE SMOOTH",
"106 295 OFFCURVE",
"146 366 OFFCURVE",
"151 374 CURVE SMOOTH",
"209 461 OFFCURVE",
"260 553 OFFCURVE",
"322 637 CURVE SMOOTH",
"374 706 OFFCURVE",
"427 775 OFFCURVE",
"474 846 CURVE",
"476 852 LINE",
"470 859 LINE",
"465 859 OFFCURVE",
"456 851 OFFCURVE",
"452 848 CURVE",
"402 855 OFFCURVE",
"354 855 OFFCURVE",
"307 855 CURVE SMOOTH",
"188 855 OFFCURVE",
"172 831 OFFCURVE",
"141 725 CURVE",
"142 718 LINE",
"145 717 LINE",
"174 718 OFFCURVE",
"161 789 OFFCURVE",
"249 789 CURVE SMOOTH",
"303 789 OFFCURVE",
"356 787 OFFCURVE",
"409 785 CURVE",
"371 738 OFFCURVE",
"24 328 OFFCURVE",
"23 289 CURVE",
"24 285 LINE",
"31 283 LINE"
);
}
);
width = 490;
}
);
note = seven;
unicode = 0037;
},
{
glyphname = eight;
lastChange = "2021-05-27 10:25:14 +0000";
layers = (
{
layerId = "61E7180A-0B32-4047-B910-001D8BB62225";
paths = (
{
closed = 1;
nodes = (
"225 276 OFFCURVE",
"331 360 OFFCURVE",
"331 461 CURVE SMOOTH",
"331 505 OFFCURVE",
"330 533 OFFCURVE",
"312 574 CURVE",
"370 624 OFFCURVE",
"464 706 OFFCURVE",
"464 791 CURVE SMOOTH",
"464 844 OFFCURVE",
"421 867 OFFCURVE",
"371 867 CURVE SMOOTH",
"284 867 OFFCURVE",
"202 792 OFFCURVE",
"202 704 CURVE SMOOTH",
"202 677 OFFCURVE",
"208 649 OFFCURVE",
"220 623 CURVE",
"149 571 OFFCURVE",
"15 469 OFFCURVE",
"15 374 CURVE SMOOTH",
"15 310 OFFCURVE",
"71 276 OFFCURVE",
"129 276 CURVE SMOOTH"
);
},
{
closed = 1;
nodes = (
"84 297 OFFCURVE",
"60 327 OFFCURVE",
"60 371 CURVE SMOOTH",
"60 468 OFFCURVE",
"154 552 OFFCURVE",
"224 604 CURVE",
"244 557 OFFCURVE",
"267 494 OFFCURVE",
"267 445 CURVE SMOOTH",
"267 373 OFFCURVE",
"206 297 OFFCURVE",
"131 297 CURVE SMOOTH"
);
},
{
closed = 1;
nodes = (
"289 634 OFFCURVE",
"268 693 OFFCURVE",
"268 737 CURVE SMOOTH",
"268 792 OFFCURVE",
"315 847 OFFCURVE",
"373 847 CURVE SMOOTH",
"407 847 OFFCURVE",
"427 827 OFFCURVE",
"427 791 CURVE SMOOTH",
"427 717 OFFCURVE",
"359 638 OFFCURVE",
"304 594 CURVE"
);
}
);
width = 422;
}
);
note = eight;
unicode = 0038;
},
{
glyphname = nine;
lastChange = "2021-05-27 10:25:14 +0000";
layers = (
{
layerId = "61E7180A-0B32-4047-B910-001D8BB62225";
paths = (
{
closed = 1;
nodes = (
"70 265 LINE",
"213 360 OFFCURVE",
"441 559 OFFCURVE",
"441 746 CURVE SMOOTH",
"441 807 OFFCURVE",
"411 867 OFFCURVE",
"342 867 CURVE SMOOTH",
"226 867 OFFCURVE",
"75 689 OFFCURVE",
"75 575 CURVE SMOOTH",
"75 531 OFFCURVE",
"99 497 OFFCURVE",
"146 497 CURVE SMOOTH",
"235 497 OFFCURVE",
"308 619 OFFCURVE",
"336 691 CURVE",
"335 697 LINE",
"324 698 LINE",
"320 694 LINE",
"296 639 OFFCURVE",
"252 555 OFFCURVE",
"182 555 CURVE SMOOTH",
"147 555 OFFCURVE",
"131 579 OFFCURVE",
"131 611 CURVE SMOOTH",
"131 699 OFFCURVE",
"229 847 OFFCURVE",
"324 847 CURVE SMOOTH",
"367 847 OFFCURVE",
"381 815 OFFCURVE",
"381 777 CURVE SMOOTH",
"381 753 OFFCURVE",
"377 728 OFFCURVE",
"370 705 CURVE SMOOTH",
"324 524 OFFCURVE",
"212 386 OFFCURVE",
"63 280 CURVE",
"59 275 LINE",
"63 265 LINE"
);
}
);
width = 437;
}
);
note = nine;
unicode = 0039;
},
{
glyphname = colon;
lastChange = "2021-05-27 10:25:14 +0000";
layers = (
{
layerId = "61E7180A-0B32-4047-B910-001D8BB62225";
paths = (
{
closed = 1;
nodes = (
"232 498 OFFCURVE",
"257 521 OFFCURVE",
"257 547 CURVE SMOOTH",
"257 567 OFFCURVE",
"242 582 OFFCURVE",
"221 582 CURVE SMOOTH",
"196 582 OFFCURVE",
"172 559 OFFCURVE",
"172 533 CURVE SMOOTH",
"172 513 OFFCURVE",
"187 498 OFFCURVE",
"208 498 CURVE SMOOTH"
);
},
{
closed = 1;
nodes = (
"121 273 OFFCURVE",
"146 296 OFFCURVE",
"146 322 CURVE SMOOTH",
"146 342 OFFCURVE",
"132 356 OFFCURVE",
"111 356 CURVE SMOOTH",
"85 356 OFFCURVE",
"62 334 OFFCURVE",
"62 308 CURVE SMOOTH",
"62 288 OFFCURVE",
"77 273 OFFCURVE",
"96 273 CURVE SMOOTH"
);
}
);
width = 257;
}
);
note = colon;
unicode = 003A;
},
{
glyphname = semicolon;
lastChange = "2021-05-27 10:25:14 +0000";
layers = (
{
layerId = "61E7180A-0B32-4047-B910-001D8BB62225";
paths = (
{
closed = 1;
nodes = (
"94 200 OFFCURVE",
"151 236 OFFCURVE",
"151 302 CURVE SMOOTH",
"151 328 OFFCURVE",
"139 356 OFFCURVE",
"111 356 CURVE SMOOTH",
"85 356 OFFCURVE",
"62 334 OFFCURVE",
"62 308 CURVE SMOOTH",
"62 288 OFFCURVE",
"77 273 OFFCURVE",
"96 273 CURVE SMOOTH",
"107 273 OFFCURVE",
"117 277 OFFCURVE",
"126 284 CURVE",
"119 239 OFFCURVE",
"86 208 OFFCURVE",
"48 196 CURVE SMOOTH",
"43 194 OFFCURVE",
"40 191 OFFCURVE",
"40 188 CURVE SMOOTH",
"40 186 OFFCURVE",
"42 184 OFFCURVE",
"46 184 CURVE SMOOTH",
"47 184 OFFCURVE",
"49 184 OFFCURVE",
"51 185 CURVE SMOOTH"
);
},
{
closed = 1;
nodes = (
"232 498 OFFCURVE",
"257 521 OFFCURVE",
"257 547 CURVE SMOOTH",
"257 567 OFFCURVE",
"242 582 OFFCURVE",
"221 582 CURVE SMOOTH",
"196 582 OFFCURVE",
"172 559 OFFCURVE",
"172 533 CURVE SMOOTH",
"172 513 OFFCURVE",
"187 498 OFFCURVE",
"208 498 CURVE SMOOTH"
);
}
);
width = 256;
}
);
note = semicolon;
unicode = 003B;
},
{
glyphname = less;
lastChange = "2021-05-27 10:25:14 +0000";
layers = (
{
layerId = "61E7180A-0B32-4047-B910-001D8BB62225";
paths = (
{
closed = 1;
nodes = (
"166 312 LINE",
"172 322 LINE",
"172 458 LINE",
"200 480 OFFCURVE",
"316 556 OFFCURVE",
"335 586 CURVE",
"334 594 LINE",
"327 596 LINE",
"316 598 OFFCURVE",
"135 481 OFFCURVE",
"113 468 CURVE",
"125 417 OFFCURVE",
"131 359 OFFCURVE",
"151 312 CURVE",
"153 310 OFFCURVE",
"155 308 OFFCURVE",
"159 308 CURVE"
);
}
);
width = 331;
}
);
note = less;
unicode = 003C;
},
{
glyphname = equal;
lastChange = "2021-05-27 10:25:14 +0000";
layers = (
{
layerId = "61E7180A-0B32-4047-B910-001D8BB62225";
paths = (
{
closed = 1;
nodes = (
"192 482 OFFCURVE",
"216 489 OFFCURVE",
"243 492 CURVE SMOOTH",
"292 497 OFFCURVE",
"344 500 OFFCURVE",
"394 500 CURVE SMOOTH",
"401 500 OFFCURVE",
"411 501 OFFCURVE",
"411 511 CURVE SMOOTH",
"411 532 OFFCURVE",
"327 531 OFFCURVE",
"312 531 CURVE SMOOTH",
"165 531 LINE SMOOTH",
"154 531 OFFCURVE",
"147 521 OFFCURVE",
"147 512 CURVE SMOOTH",
"147 503 OFFCURVE",
"153 482 OFFCURVE",
"165 482 CURVE SMOOTH"
);
},
{
closed = 1;
nodes = (
"192 583 OFFCURVE",
"216 590 OFFCURVE",
"243 592 CURVE SMOOTH",
"292 598 OFFCURVE",
"344 600 OFFCURVE",
"394 600 CURVE SMOOTH",
"401 600 OFFCURVE",
"411 602 OFFCURVE",
"411 611 CURVE SMOOTH",
"411 632 OFFCURVE",
"327 631 OFFCURVE",
"312 631 CURVE SMOOTH",
"165 631 LINE SMOOTH",
"154 631 OFFCURVE",
"147 622 OFFCURVE",
"147 612 CURVE SMOOTH",
"147 603 OFFCURVE",
"153 583 OFFCURVE",
"165 583 CURVE SMOOTH"
);
}
);
width = 461;
}
);
note = equal;
unicode = 003D;
},
{
glyphname = greater;
lastChange = "2021-05-27 10:25:14 +0000";
layers = (
{
layerId = "61E7180A-0B32-4047-B910-001D8BB62225";
paths = (
{
closed = 1;
nodes = (
"43 310 LINE",
"249 438 LINE",
"239 488 OFFCURVE",
"232 545 OFFCURVE",
"213 592 CURVE",
"204 596 LINE",
"196 592 LINE",
"194 590 OFFCURVE",
"193 586 OFFCURVE",
"192 583 CURVE",
"190 446 LINE",
"186 444 OFFCURVE",
"27 336 OFFCURVE",
"27 315 CURVE",
"28 311 LINE",
"31 310 OFFCURVE",
"35 308 OFFCURVE",
"36 308 CURVE SMOOTH"
);
}
);
width = 331;
}
);
note = greater;
unicode = 003E;
},
{
glyphname = question;
lastChange = "2021-05-27 10:25:14 +0000";
layers = (
{
layerId = "61E7180A-0B32-4047-B910-001D8BB62225";
paths = (
{
closed = 1;
nodes = (
"252 584 OFFCURVE",
"340 635 OFFCURVE",
"426 734 CURVE SMOOTH",
"473 787 OFFCURVE",
"492 831 OFFCURVE",
"492 864 CURVE SMOOTH",
"492 912 OFFCURVE",
"452 939 OFFCURVE",
"398 939 CURVE SMOOTH",
"365 939 OFFCURVE",
"326 929 OFFCURVE",
"288 907 CURVE SMOOTH",
"261 891 OFFCURVE",
"228 871 OFFCURVE",
"216 842 CURVE SMOOTH",
"211 829 OFFCURVE",
"208 818 OFFCURVE",
"208 807 CURVE SMOOTH",
"208 775 OFFCURVE",
"230 755 OFFCURVE",
"258 755 CURVE SMOOTH",
"272 755 OFFCURVE",
"287 760 OFFCURVE",
"302 771 CURVE SMOOTH",
"318 784 OFFCURVE",
"325 800 OFFCURVE",
"325 815 CURVE SMOOTH",
"325 835 OFFCURVE",
"312 852 OFFCURVE",
"290 852 CURVE SMOOTH",
"281 852 OFFCURVE",
"272 850 OFFCURVE",
"261 844 CURVE SMOOTH",
"245 835 OFFCURVE",
"230 824 OFFCURVE",
"226 808 CURVE",
"222 832 OFFCURVE",
"252 863 OFFCURVE",
"283 878 CURVE SMOOTH",
"307 890 OFFCURVE",
"330 895 OFFCURVE",
"351 895 CURVE SMOOTH",
"391 895 OFFCURVE",
"420 875 OFFCURVE",
"420 839 CURVE SMOOTH",
"420 817 OFFCURVE",
"410 790 OFFCURVE",
"385 758 CURVE SMOOTH",
"310 666 OFFCURVE",
"206 556 OFFCURVE",
"182 456 CURVE SMOOTH",
"181 447 OFFCURVE",
"186 442 OFFCURVE",
"192 442 CURVE SMOOTH",
"195 442 OFFCURVE",
"199 444 OFFCURVE",
"201 449 CURVE SMOOTH"
);
},
{
closed = 1;
nodes = (
"180 273 OFFCURVE",
"205 296 OFFCURVE",
"205 322 CURVE SMOOTH",
"205 342 OFFCURVE",
"190 356 OFFCURVE",
"169 356 CURVE SMOOTH",
"146 356 OFFCURVE",
"123 338 OFFCURVE",
"121 315 CURVE SMOOTH",
"117 292 OFFCURVE",
"131 273 OFFCURVE",
"155 273 CURVE SMOOTH"
);
}
);
width = 385;
}
);
note = question;
unicode = 003F;
},
{
glyphname = at;
lastChange = "2021-05-27 10:25:14 +0000";
layers = (
{
layerId = "61E7180A-0B32-4047-B910-001D8BB62225";
paths = (
{
closed = 1;
nodes = (
"575 139 OFFCURVE",
"686 180 OFFCURVE",
"783 244 CURVE",
"788 246 OFFCURVE",
"790 250 OFFCURVE",
"790 253 CURVE SMOOTH",
"790 259 OFFCURVE",
"785 264 OFFCURVE",
"779 264 CURVE SMOOTH",
"777 264 OFFCURVE",
"774 263 OFFCURVE",
"771 260 CURVE",
"682 200 OFFCURVE",
"574 161 OFFCURVE",
"461 161 CURVE SMOOTH",
"300 161 OFFCURVE",
"139 240 OFFCURVE",
"126 419 CURVE SMOOTH",
"125 431 OFFCURVE",
"124 443 OFFCURVE",
"124 455 CURVE SMOOTH",
"124 716 OFFCURVE",
"358 949 OFFCURVE",
"618 949 CURVE SMOOTH",
"765 949 OFFCURVE",
"908 884 OFFCURVE",
"908 707 CURVE SMOOTH",
"908 594 OFFCURVE",
"852 474 OFFCURVE",
"768 406 CURVE SMOOTH",
"737 381 OFFCURVE",
"682 355 OFFCURVE",
"641 355 CURVE SMOOTH",
"611 355 OFFCURVE",
"589 368 OFFCURVE",
"589 406 CURVE SMOOTH",
"589 414 OFFCURVE",
"590 423 OFFCURVE",
"592 434 CURVE SMOOTH",
"607 511 OFFCURVE",
"682 645 OFFCURVE",
"710 670 CURVE",
"690 667 OFFCURVE",
"670 677 OFFCURVE",
"653 677 CURVE SMOOTH",
"615 677 OFFCURVE",
"597 647 OFFCURVE",
"570 594 CURVE SMOOTH",
"537 533 OFFCURVE",
"503 470 OFFCURVE",
"457 417 CURVE SMOOTH",
"427 382 OFFCURVE",
"395 362 OFFCURVE",
"371 362 CURVE SMOOTH",
"352 362 OFFCURVE",
"339 375 OFFCURVE",
"339 406 CURVE SMOOTH",
"339 455 OFFCURVE",
"380 534 OFFCURVE",
"393 553 CURVE SMOOTH",
"438 628 OFFCURVE",
"504 702 OFFCURVE",
"561 734 CURVE SMOOTH",
"577 743 OFFCURVE",
"594 748 OFFCURVE",
"610 748 CURVE SMOOTH",
"637 748 OFFCURVE",
"660 733 OFFCURVE",
"670 702 CURVE",
"683 699 OFFCURVE",
"691 707 OFFCURVE",
"691 718 CURVE SMOOTH",
"691 724 OFFCURVE",
"688 731 OFFCURVE",
"682 738 CURVE SMOOTH",
"656 767 OFFCURVE",
"621 779 OFFCURVE",
"583 779 CURVE SMOOTH",
"515 779 OFFCURVE",
"438 739 OFFCURVE",
"389 681 CURVE SMOOTH",
"313 590 OFFCURVE",
"282 499 OFFCURVE",
"282 433 CURVE SMOOTH",
"282 368 OFFCURVE",
"310 326 OFFCURVE",
"354 326 CURVE SMOOTH",
"379 326 OFFCURVE",
"408 340 OFFCURVE",
"440 370 CURVE SMOOTH",
"477 406 OFFCURVE",
"511 456 OFFCURVE",
"531 489 CURVE",
"524 463 OFFCURVE",
"520 442 OFFCURVE",
"520 424 CURVE SMOOTH",
"520 351 OFFCURVE",
"572 332 OFFCURVE",
"606 332 CURVE SMOOTH",
"654 332 OFFCURVE",
"736 355 OFFCURVE",
"773 386 CURVE SMOOTH",
"868 461 OFFCURVE",
"948 581 OFFCURVE",
"948 708 CURVE SMOOTH",
"948 896 OFFCURVE",
"775 970 OFFCURVE",
"616 970 CURVE SMOOTH",
"346 970 OFFCURVE",
"75 740 OFFCURVE",
"75 463 CURVE SMOOTH",
"75 452 OFFCURVE",
"75 442 OFFCURVE",
"76 431 CURVE SMOOTH",
"94 224 OFFCURVE",
"268 139 OFFCURVE",
"453 139 CURVE SMOOTH"
);
}
);
width = 961;
}
);
note = at;
unicode = 0040;
},
{
glyphname = A;
lastChange = "2021-05-27 10:25:14 +0000";
layers = (
{
anchors = (
{
name = bottom;
position = "{238, 230}";
},
{
name = ogonek;
position = "{545, 255}";
},
{
name = top;
position = "{691, 1064}";
}
);
background = {
paths = (
{
closed = 1;
nodes = (
"665 734 LINE",
"631 734 OFFCURVE",
"566 601 OFFCURVE",
"493 512 CURVE SMOOTH",
"444 454 OFFCURVE",
"394 403 OFFCURVE",
"344 360 CURVE SMOOTH",
"272 302 OFFCURVE",
"210 272 OFFCURVE",
"156 272 CURVE SMOOTH",
"108 272 OFFCURVE",
"80 300 OFFCURVE",
"72 355 CURVE SMOOTH",
"71 361 OFFCURVE",
"71 368 OFFCURVE",
"71 375 CURVE SMOOTH",
"71 410 OFFCURVE",
"83 459 OFFCURVE",
"109 522 CURVE SMOOTH",
"134 585 OFFCURVE",
"180 664 OFFCURVE",
"248 759 CURVE",
"306 741 OFFCURVE",
"379 731 OFFCURVE",
"467 731 CURVE SMOOTH",
"556 731 OFFCURVE",
"632 743 OFFCURVE",
"696 765 CURVE SMOOTH",
"738 780 OFFCURVE",
"770 797 OFFCURVE",
"793 817 CURVE SMOOTH",
"838 855 OFFCURVE",
"861 895 OFFCURVE",
"861 935 CURVE SMOOTH",
"861 1010 OFFCURVE",
"794 1062 OFFCURVE",
"689 1062 CURVE SMOOTH",
"520 1062 OFFCURVE",
"357 975 OFFCURVE",
"201 801 CURVE",
"126 836 OFFCURVE",
"87 884 OFFCURVE",
"87 920 CURVE SMOOTH",
"87 928 OFFCURVE",
"89 937 OFFCURVE",
"92 945 CURVE SMOOTH",
"96 954 OFFCURVE",
"96 961 OFFCURVE",
"92 967 CURVE",
"86 973 OFFCURVE",
"80 971 OFFCURVE",
"74 962 CURVE",
"64 956 OFFCURVE",
"59 940 OFFCURVE",
"59 914 CURVE SMOOTH",
"59 889 OFFCURVE",
"67 867 OFFCURVE",
"83 849 CURVE SMOOTH",
"105 825 OFFCURVE",
"138 802 OFFCURVE",
"183 780 CURVE",
"151 744 OFFCURVE",
"121 701 OFFCURVE",
"95 653 CURVE SMOOTH",
"44 563 OFFCURVE",
"19 479 OFFCURVE",
"19 401 CURVE SMOOTH",
"19 323 OFFCURVE",
"43 274 OFFCURVE",
"91 254 CURVE",
"106 246 OFFCURVE",
"119 242 OFFCURVE",
"130 242 CURVE SMOOTH",
"141 242 OFFCURVE",
"149 243 OFFCURVE",
"154 243 CURVE SMOOTH",
"202 248 OFFCURVE",
"247 263 OFFCURVE",
"287 287 CURVE SMOOTH",
"363 336 OFFCURVE",
"434 401 OFFCURVE",
"502 481 CURVE",
"479 451 OFFCURVE",
"464 389 OFFCURVE",
"464 331 CURVE SMOOTH",
"464 303 OFFCURVE",
"470 278 OFFCURVE",
"484 257 CURVE SMOOTH",
"510 215 OFFCURVE",
"571 218 OFFCURVE",
"623 250 CURVE SMOOTH",
"649 266 OFFCURVE",
"672 287 OFFCURVE",
"690 311 CURVE SMOOTH",
"724 357 OFFCURVE",
"755 411 OFFCURVE",
"783 471 CURVE SMOOTH",
"792 493 OFFCURVE",
"776 497 OFFCURVE",
"766 475 CURVE SMOOTH",
"746 429 OFFCURVE",
"717 382 OFFCURVE",
"679 333 CURVE SMOOTH",
"636 281 OFFCURVE",
"599 255 OFFCURVE",
"567 255 CURVE SMOOTH",
"545 255 OFFCURVE",
"526 276 OFFCURVE",
"526 322 CURVE SMOOTH",
"526 382 OFFCURVE",
"544 450 OFFCURVE",
"582 524 CURVE SMOOTH",
"606 574 OFFCURVE",
"633 615 OFFCURVE",
"663 647 CURVE SMOOTH",
"679 665 OFFCURVE",
"688 685 OFFCURVE",
"688 705 CURVE SMOOTH",
"688 725 OFFCURVE",
"680 734 OFFCURVE",
"665 734 CURVE"
);
},
{
closed = 1;
nodes = (
"820 947 LINE",
"820 897 OFFCURVE",
"795 855 OFFCURVE",
"747 821 CURVE SMOOTH",
"684 777 OFFCURVE",
"584 755 OFFCURVE",
"448 755 CURVE SMOOTH",
"375 755 OFFCURVE",
"314 763 OFFCURVE",
"264 779 CURVE",
"328 855 OFFCURVE",
"377 905 OFFCURVE",
"448 957 CURVE SMOOTH",
"484 983 OFFCURVE",
"522 1003 OFFCURVE",
"563 1016 CURVE SMOOTH",
"638 1041 OFFCURVE",
"735 1045 OFFCURVE",
"784 1013 CURVE SMOOTH",
"808 998 OFFCURVE",
"820 976 OFFCURVE",
"820 947 CURVE"
);
}
);
};
layerId = "61E7180A-0B32-4047-B910-001D8BB62225";
paths = (
{
closed = 1;
nodes = (
"602 224 OFFCURVE",
"658 264 OFFCURVE",
"693 310 CURVE SMOOTH",
"730 359 OFFCURVE",
"768 430 OFFCURVE",
"787 470 CURVE SMOOTH",
"789 475 OFFCURVE",
"790 479 OFFCURVE",
"790 482 CURVE SMOOTH",
"790 486 OFFCURVE",
"788 488 OFFCURVE",
"785 488 CURVE SMOOTH",
"781 488 OFFCURVE",
"774 483 OFFCURVE",
"769 474 CURVE SMOOTH",
"746 425 OFFCURVE",
"713 373 OFFCURVE",
"682 332 CURVE SMOOTH",
"644 284 OFFCURVE",
"601 254 OFFCURVE",
"570 254 CURVE SMOOTH",
"545 254 OFFCURVE",
"528 274 OFFCURVE",
"528 323 CURVE SMOOTH",
"528 338 OFFCURVE",
"529 357 OFFCURVE",
"533 378 CURVE SMOOTH",
"552 477 OFFCURVE",
"610 584 OFFCURVE",
"666 647 CURVE SMOOTH",
"684 666 OFFCURVE",
"691 687 OFFCURVE",
"691 703 CURVE SMOOTH",
"691 721 OFFCURVE",
"682 734 OFFCURVE",
"668 734 CURVE SMOOTH",
"653 734 OFFCURVE",
"631 718 OFFCURVE",
"608 675 CURVE SMOOTH",
"555 578 OFFCURVE",
"449 446 OFFCURVE",
"344 359 CURVE SMOOTH",
"273 300 OFFCURVE",
"206 271 OFFCURVE",
"156 271 CURVE SMOOTH",
"104 271 OFFCURVE",
"71 303 OFFCURVE",
"71 369 CURVE SMOOTH",
"71 405 OFFCURVE",
"81 451 OFFCURVE",
"103 507 CURVE SMOOTH",
"139 596 OFFCURVE",
"212 709 OFFCURVE",
"248 760 CURVE",
"312 740 OFFCURVE",
"376 731 OFFCURVE",
"445 731 CURVE SMOOTH",
"479 731 OFFCURVE",
"515 733 OFFCURVE",
"552 737 CURVE SMOOTH",
"787 758 OFFCURVE",
"864 863 OFFCURVE",
"864 937 CURVE SMOOTH",
"864 1012 OFFCURVE",
"799 1064 OFFCURVE",
"691 1064 CURVE SMOOTH",
"496 1064 OFFCURVE",
"328 943 OFFCURVE",
"201 803 CURVE",
"165 819 OFFCURVE",
"135 840 OFFCURVE",
"113 866 CURVE SMOOTH",
"96 884 OFFCURVE",
"86 902 OFFCURVE",
"86 921 CURVE SMOOTH",
"86 929 OFFCURVE",
"88 937 OFFCURVE",
"91 945 CURVE SMOOTH",
"94 951 OFFCURVE",
"95 956 OFFCURVE",
"95 960 CURVE SMOOTH",
"95 967 OFFCURVE",
"91 971 OFFCURVE",
"86 971 CURVE SMOOTH",
"83 971 OFFCURVE",
"78 969 OFFCURVE",
"74 963 CURVE",
"64 956 OFFCURVE",
"59 940 OFFCURVE",
"59 921 CURVE SMOOTH",
"59 897 OFFCURVE",
"67 869 OFFCURVE",
"83 851 CURVE SMOOTH",
"107 823 OFFCURVE",
"143 800 OFFCURVE",
"184 781 CURVE",
"149 742 OFFCURVE",
"119 698 OFFCURVE",
"95 654 CURVE SMOOTH",
"43 562 OFFCURVE",
"18 471 OFFCURVE",
"18 398 CURVE SMOOTH",
"18 326 OFFCURVE",
"42 272 OFFCURVE",
"91 252 CURVE SMOOTH",
"110 244 OFFCURVE",
"129 241 OFFCURVE",
"149 241 CURVE SMOOTH",
"281 241 OFFCURVE",
"432 396 OFFCURVE",
"504 481 CURVE",
"482 453 OFFCURVE",
"465 393 OFFCURVE",
"465 339 CURVE SMOOTH",
"465 278 OFFCURVE",
"486 224 OFFCURVE",
"545 224 CURVE SMOOTH"
);
},
{
closed = 1;
nodes = (
"370 755 OFFCURVE",
"316 763 OFFCURVE",
"264 780 CURVE",
"377 915 OFFCURVE",
"507 1039 OFFCURVE",
"694 1039 CURVE SMOOTH",
"768 1039 OFFCURVE",
"823 1008 OFFCURVE",
"823 949 CURVE SMOOTH",
"823 850 OFFCURVE",
"718 775 OFFCURVE",
"552 761 CURVE SMOOTH",
"509 757 OFFCURVE",
"471 755 OFFCURVE",
"436 755 CURVE SMOOTH"
);
}
);
width = 716;
}
);
note = A;
unicode = 0041;
},
{
glyphname = B;
lastChange = "2021-05-27 10:25:14 +0000";
layers = (
{
background = {
paths = (
{
closed = 1;
nodes = (
"964 615 QCURVE SMOOTH",
"909 651 OFFCURVE",
"845 671 QCURVE",
"911 674 OFFCURVE",
"1041 725 OFFCURVE",
"1070 775 QCURVE SMOOTH",
"1092 813 OFFCURVE",
"1092 888 OFFCURVE",
"1060 924 QCURVE SMOOTH",
"1000 989 OFFCURVE",
"864 1024 QCURVE",
"868 1034 OFFCURVE",
"905 1058 OFFCURVE",
"912 1071 OFFCURVE",
"906 1071 QCURVE",
"905 1072 OFFCURVE",
"898 1072 OFFCURVE",
"856 1056 OFFCURVE",
"828 1032 QCURVE",
"725 1054 OFFCURVE",
"526 1054 OFFCURVE",
"434 1041 QCURVE SMOOTH",
"244 1014 OFFCURVE",
"146 904 QCURVE SMOOTH",
"85 837 OFFCURVE",
"85 768 QCURVE SMOOTH",
"85 667 OFFCURVE",
"191 630 QCURVE",
"243 621 LINE",
"284 621 OFFCURVE",
"325 643 QCURVE SMOOTH",
"392 681 OFFCURVE",
"403 754 QCURVE SMOOTH",
"403 755 LINE SMOOTH",
"402 768 OFFCURVE",
"392 769 QCURVE SMOOTH",
"382 769 OFFCURVE",
"382 748 OFFCURVE",
"361 706 OFFCURVE",
"314 661 OFFCURVE",
"264 647 OFFCURVE",
"226 647 OFFCURVE",
"201 654 QCURVE SMOOTH",
"130 676 OFFCURVE",
"130 749 QCURVE SMOOTH",
"130 804 OFFCURVE",
"181 865 QCURVE SMOOTH",
"265 966 OFFCURVE",
"421 999 QCURVE SMOOTH",
"535 1024 OFFCURVE",
"725 1024 OFFCURVE",
"804 1010 QCURVE",
"747 945 LINE SMOOTH",
"690 882 OFFCURVE",
"580 702 OFFCURVE",
"509 555 OFFCURVE",
"415 402 OFFCURVE",
"371 359 QCURVE",
"347 371 OFFCURVE",
"247 425 OFFCURVE",
"179 449 OFFCURVE",
"137 449 QCURVE SMOOTH",
"73 449 OFFCURVE",
"37 409 QCURVE SMOOTH",
"14 383 OFFCURVE",
"14 337 OFFCURVE",
"21 320 QCURVE SMOOTH",
"52 248 OFFCURVE",
"182 248 QCURVE SMOOTH",
"292 248 OFFCURVE",
"391 321 QCURVE",
"500 272 OFFCURVE",
"657 252 QCURVE SMOOTH",
"681 249 OFFCURVE",
"706 249 QCURVE SMOOTH",
"774 249 OFFCURVE",
"846 272 QCURVE SMOOTH",
"943 303 OFFCURVE",
"1001 373 QCURVE SMOOTH",
"1042 422 OFFCURVE",
"1042 479 QCURVE SMOOTH",
"1042 564 OFFCURVE"
);
},
{
closed = 1;
nodes = (
"656 279 QCURVE SMOOTH",
"526 292 OFFCURVE",
"413 339 QCURVE",
"451 375 LINE",
"525 455 OFFCURVE",
"799 926 OFFCURVE",
"852 999 QCURVE",
"1028 958 OFFCURVE",
"1028 864 QCURVE SMOOTH",
"1028 820 OFFCURVE",
"983 770 QCURVE SMOOTH",
"955 739 OFFCURVE",
"876 700 OFFCURVE",
"820 699 OFFCURVE",
"742 705 OFFCURVE",
"723 705 QCURVE SMOOTH",
"694 704 OFFCURVE",
"694 685 QCURVE",
"698 676 OFFCURVE",
"755 656 OFFCURVE",
"848 627 OFFCURVE",
"880 612 QCURVE SMOOTH",
"967 570 OFFCURVE",
"967 488 QCURVE SMOOTH",
"967 409 OFFCURVE",
"882 341 QCURVE SMOOTH",
"804 277 OFFCURVE",
"692 277 QCURVE SMOOTH",
"675 277 OFFCURVE"
);
},
{
closed = 1;
nodes = (
"173 279 QCURVE SMOOTH",
"103 279 OFFCURVE",
"81 324 QCURVE SMOOTH",
"73 340 OFFCURVE",
"73 375 OFFCURVE",
"109 418 OFFCURVE",
"170 418 OFFCURVE",
"232 396 OFFCURVE",
"349 340 QCURVE",
"268 279 OFFCURVE"
);
}
);
};
layerId = "61E7180A-0B32-4047-B910-001D8BB62225";
paths = (
{
closed = 1;
nodes = (
"253 249 OFFCURVE",
"325 274 OFFCURVE",
"389 322 CURVE",
"452 293 OFFCURVE",
"529 268 OFFCURVE",
"657 252 CURVE SMOOTH",
"672 250 OFFCURVE",
"687 249 OFFCURVE",
"702 249 CURVE SMOOTH",
"859 249 OFFCURVE",
"1043 341 OFFCURVE",
"1043 482 CURVE SMOOTH",
"1043 498 OFFCURVE",
"1041 514 OFFCURVE",
"1036 531 CURVE SMOOTH",
"1013 606 OFFCURVE",
"911 653 OFFCURVE",
"846 674 CURVE",
"921 677 OFFCURVE",
"1028 705 OFFCURVE",
"1072 779 CURVE SMOOTH",
"1086 804 OFFCURVE",
"1093 827 OFFCURVE",
"1093 849 CURVE SMOOTH",
"1093 931 OFFCURVE",
"1000 993 OFFCURVE",
"864 1028 CURVE",
"867 1033 OFFCURVE",
"880 1047 OFFCURVE",
"894 1056 CURVE SMOOTH",
"904 1063 OFFCURVE",
"909 1069 OFFCURVE",
"909 1072 CURVE SMOOTH",
"909 1075 OFFCURVE",
"907 1076 OFFCURVE",
"903 1076 CURVE SMOOTH",
"899 1076 OFFCURVE",
"892 1075 OFFCURVE",
"883 1071 CURVE SMOOTH",
"867 1064 OFFCURVE",
"846 1052 OFFCURVE",
"828 1036 CURVE",
"762 1050 OFFCURVE",
"687 1058 OFFCURVE",
"610 1058 CURVE SMOOTH",
"552 1058 OFFCURVE",
"493 1054 OFFCURVE",
"433 1045 CURVE SMOOTH",
"203 1013 OFFCURVE",
"82 878 OFFCURVE",
"82 768 CURVE SMOOTH",
"82 709 OFFCURVE",
"116 657 OFFCURVE",
"188 632 CURVE SMOOTH",
"204 627 OFFCURVE",
"221 624 OFFCURVE",
"238 624 CURVE SMOOTH",
"313 624 OFFCURVE",
"389 676 OFFCURVE",
"401 757 CURVE SMOOTH",
"401 758 LINE SMOOTH",
"401 769 OFFCURVE",
"396 773 OFFCURVE",
"391 773 CURVE SMOOTH",
"386 773 OFFCURVE",
"381 769 OFFCURVE",
"381 766 CURVE",
"384 741 OFFCURVE",
"333 650 OFFCURVE",
"243 650 CURVE SMOOTH",
"229 650 OFFCURVE",
"214 652 OFFCURVE",
"198 657 CURVE SMOOTH",
"151 671 OFFCURVE",
"128 706 OFFCURVE",
"128 748 CURVE SMOOTH",
"128 838 OFFCURVE",
"230 963 OFFCURVE",
"419 1004 CURVE SMOOTH",
"495 1020 OFFCURVE",
"572 1027 OFFCURVE",
"644 1027 CURVE SMOOTH",
"701 1027 OFFCURVE",
"755 1022 OFFCURVE",
"804 1014 CURVE",
"746 949 LINE SMOOTH",
"575 758 OFFCURVE",
"503 489 OFFCURVE",
"369 360 CURVE",
"306 391 OFFCURVE",
"260 421 OFFCURVE",
"224 434 CURVE SMOOTH",
"192 445 OFFCURVE",
"163 450 OFFCURVE",
"137 450 CURVE SMOOTH",
"57 450 OFFCURVE",
"11 401 OFFCURVE",
"11 352 CURVE SMOOTH",
"11 307 OFFCURVE",
"49 262 OFFCURVE",
"133 252 CURVE SMOOTH",
"148 250 OFFCURVE",
"163 249 OFFCURVE",
"178 249 CURVE SMOOTH"
);
},
{
closed = 1;
nodes = (
"99 283 OFFCURVE",
"70 320 OFFCURVE",
"70 355 CURVE SMOOTH",
"70 388 OFFCURVE",
"95 419 OFFCURVE",
"145 419 CURVE SMOOTH",
"160 419 OFFCURVE",
"178 416 OFFCURVE",
"198 409 CURVE SMOOTH",
"257 387 OFFCURVE",
"300 363 OFFCURVE",
"347 340 CURVE",
"293 300 OFFCURVE",
"232 276 OFFCURVE",
"158 280 CURVE SMOOTH"
);
},
{
closed = 1;
nodes = (
"677 278 OFFCURVE",
"666 279 OFFCURVE",
"655 280 CURVE SMOOTH",
"552 289 OFFCURVE",
"473 314 OFFCURVE",
"411 340 CURVE",
"425 352 OFFCURVE",
"437 363 OFFCURVE",
"449 377 CURVE SMOOTH",
"583 521 OFFCURVE",
"718 819 OFFCURVE",
"852 1004 CURVE",
"887 996 OFFCURVE",
"919 985 OFFCURVE",
"947 972 CURVE SMOOTH",
"1006 945 OFFCURVE",
"1029 907 OFFCURVE",
"1029 870 CURVE SMOOTH",
"1029 788 OFFCURVE",
"924 703 OFFCURVE",
"839 702 CURVE SMOOTH",
"797 702 OFFCURVE",
"759 708 OFFCURVE",
"732 708 CURVE SMOOTH",
"709 708 OFFCURVE",
"694 703 OFFCURVE",
"694 687 CURVE",
"704 666 OFFCURVE",
"803 653 OFFCURVE",
"880 614 CURVE SMOOTH",
"941 585 OFFCURVE",
"968 540 OFFCURVE",
"968 491 CURVE SMOOTH",
"968 391 OFFCURVE",
"852 278 OFFCURVE",
"688 278 CURVE SMOOTH"
);
}
);
width = 1047;
}
);
note = B;
unicode = 0042;
},
{
glyphname = C;
lastChange = "2021-05-27 10:50:11 +0000";
layers = (
{
anchors = (
{
name = bottom;
position = "{357, 192}";
},
{
name = top;
position = "{588, 1082}";
}
);
layerId = "61E7180A-0B32-4047-B910-001D8BB62225";
paths = (
{
closed = 1;
nodes = (
"473 185 OFFCURVE",
"556 217 OFFCURVE",
"622 263 CURVE SMOOTH",
"708 323 OFFCURVE",
"741 383 OFFCURVE",
"784 472 CURVE SMOOTH",
"787 477 OFFCURVE",
"788 481 OFFCURVE",
"788 484 CURVE SMOOTH",
"788 489 OFFCURVE",
"786 491 OFFCURVE",
"783 491 CURVE SMOOTH",
"780 491 OFFCURVE",
"775 488 OFFCURVE",
"772 481 CURVE SMOOTH",
"730 395 OFFCURVE",
"694 330 OFFCURVE",
"607 279 CURVE SMOOTH",
"542 240 OFFCURVE",
"463 220 OFFCURVE",
"386 220 CURVE SMOOTH",
"346 220 OFFCURVE",
"307 225 OFFCURVE",
"271 236 CURVE SMOOTH",
"160 270 OFFCURVE",
"126 363 OFFCURVE",
"126 462 CURVE SMOOTH",
"126 597 OFFCURVE",
"189 744 OFFCURVE",
"210 771 CURVE",
"263 662 OFFCURVE",
"355 615 OFFCURVE",
"460 600 CURVE SMOOTH",
"484 596 OFFCURVE",
"508 595 OFFCURVE",
"530 595 CURVE SMOOTH",
"733 595 OFFCURVE",
"855 734 OFFCURVE",
"855 861 CURVE SMOOTH",
"855 959 OFFCURVE",
"784 1050 OFFCURVE",
"624 1068 CURVE SMOOTH",
"607 1070 OFFCURVE",
"590 1071 OFFCURVE",
"572 1071 CURVE SMOOTH",
"433 1071 OFFCURVE",
"303 1009 OFFCURVE",
"206 883 CURVE",
"199 920 OFFCURVE",
"193 966 OFFCURVE",
"193 1011 CURVE SMOOTH",
"193 1033 OFFCURVE",
"195 1055 OFFCURVE",
"198 1075 CURVE SMOOTH",
"199 1078 OFFCURVE",
"199 1081 OFFCURVE",
"199 1084 CURVE SMOOTH",
"199 1091 OFFCURVE",
"196 1094 OFFCURVE",
"192 1094 CURVE SMOOTH",
"187 1094 OFFCURVE",
"180 1088 OFFCURVE",
"178 1080 CURVE SMOOTH",
"170 1048 OFFCURVE",
"166 1014 OFFCURVE",
"166 979 CURVE SMOOTH",
"166 932 OFFCURVE",
"173 885 OFFCURVE",
"182 850 CURVE",
"111 760 OFFCURVE",
"60 626 OFFCURVE",
"60 501 CURVE SMOOTH",
"60 381 OFFCURVE",
"108 270 OFFCURVE",
"232 217 CURVE SMOOTH",
"283 195 OFFCURVE",
"335 185 OFFCURVE",
"384 185 CURVE SMOOTH"
);
},
{
closed = 1;
nodes = (
"508 621 OFFCURVE",
"491 622 OFFCURVE",
"474 624 CURVE SMOOTH",
"364 637 OFFCURVE",
"276 687 OFFCURVE",
"230 803 CURVE",
"320 940 OFFCURVE",
"454 1032 OFFCURVE",
"590 1032 CURVE SMOOTH",
"604 1032 OFFCURVE",
"619 1031 OFFCURVE",
"634 1029 CURVE SMOOTH",
"753 1012 OFFCURVE",
"809 935 OFFCURVE",
"809 853 CURVE SMOOTH",
"809 742 OFFCURVE",
"708 621 OFFCURVE",
"524 621 CURVE SMOOTH"
);
}
);
width = 714;
}
);
note = C;
unicode = 0043;
},
{
glyphname = D;
lastChange = "2021-05-27 10:25:14 +0000";
layers = (
{
anchors = (
{
name = bottom;
position = "{519, 268}";
},
{
name = center;
position = "{510, 497}";
},
{
name = top;
position = "{799, 1069}";
}
);
layerId = "61E7180A-0B32-4047-B910-001D8BB62225";
paths = (
{
closed = 1;
nodes = (
"249 249 OFFCURVE",
"316 274 OFFCURVE",
"377 324 CURVE",
"441 296 OFFCURVE",
"519 268 OFFCURVE",
"650 252 CURVE SMOOTH",
"665 250 OFFCURVE",
"681 249 OFFCURVE",
"696 249 CURVE SMOOTH",
"860 249 OFFCURVE",
"1012 356 OFFCURVE",
"1028 528 CURVE SMOOTH",
"1030 546 OFFCURVE",
"1031 563 OFFCURVE",
"1031 581 CURVE SMOOTH",
"1031 746 OFFCURVE",
"946 878 OFFCURVE",
"823 959 CURVE",
"839 984 OFFCURVE",
"855 1008 OFFCURVE",
"870 1028 CURVE SMOOTH",
"872 1032 OFFCURVE",
"886 1047 OFFCURVE",
"899 1056 CURVE SMOOTH",
"910 1063 OFFCURVE",
"915 1069 OFFCURVE",
"915 1073 CURVE SMOOTH",
"915 1075 OFFCURVE",
"913 1076 OFFCURVE",
"909 1076 CURVE SMOOTH",
"904 1076 OFFCURVE",
"898 1075 OFFCURVE",
"888 1071 CURVE SMOOTH",
"871 1064 OFFCURVE",
"821 1029 OFFCURVE",
"804 1014 CURVE",
"779 985 LINE",
"698 1027 OFFCURVE",
"605 1051 OFFCURVE",
"510 1051 CURVE SMOOTH",
"482 1051 OFFCURVE",
"453 1049 OFFCURVE",
"425 1045 CURVE SMOOTH",
"172 1008 OFFCURVE",
"72 886 OFFCURVE",
"72 781 CURVE SMOOTH",
"72 715 OFFCURVE",
"112 656 OFFCURVE",
"181 632 CURVE SMOOTH",
"197 627 OFFCURVE",
"214 624 OFFCURVE",
"231 624 CURVE SMOOTH",
"306 624 OFFCURVE",
"382 676 OFFCURVE",
"393 757 CURVE SMOOTH",
"395 768 OFFCURVE",
"389 773 OFFCURVE",
"382 773 CURVE SMOOTH",
"378 773 OFFCURVE",
"373 770 OFFCURVE",
"373 766 CURVE SMOOTH",
"371 735 OFFCURVE",
"326 649 OFFCURVE",
"239 649 CURVE SMOOTH",
"225 649 OFFCURVE",
"209 652 OFFCURVE",
"192 657 CURVE SMOOTH",
"143 672 OFFCURVE",
"119 709 OFFCURVE",
"119 754 CURVE SMOOTH",
"119 845 OFFCURVE",
"218 970 OFFCURVE",
"405 1010 CURVE SMOOTH",
"439 1017 OFFCURVE",
"473 1021 OFFCURVE",
"507 1021 CURVE SMOOTH",
"595 1021 OFFCURVE",
"680 997 OFFCURVE",
"750 954 CURVE",
"594 779 OFFCURVE",
"517 503 OFFCURVE",
"369 360 CURVE",
"336 377 OFFCURVE",
"255 421 OFFCURVE",
"216 434 CURVE SMOOTH",
"184 445 OFFCURVE",
"155 450 OFFCURVE",
"129 450 CURVE SMOOTH",
"49 450 OFFCURVE",
"4 402 OFFCURVE",
"4 353 CURVE SMOOTH",
"4 308 OFFCURVE",
"42 262 OFFCURVE",
"126 252 CURVE SMOOTH",
"142 250 OFFCURVE",
"158 249 OFFCURVE",
"173 249 CURVE SMOOTH"
);
},
{
closed = 1;
nodes = (
"96 282 OFFCURVE",
"69 318 OFFCURVE",
"69 352 CURVE SMOOTH",
"69 385 OFFCURVE",
"95 418 OFFCURVE",
"144 418 CURVE SMOOTH",
"158 418 OFFCURVE",
"174 415 OFFCURVE",
"192 409 CURVE SMOOTH",
"252 387 OFFCURVE",
"295 363 OFFCURVE",
"343 340 CURVE",
"288 300 OFFCURVE",
"224 276 OFFCURVE",
"151 280 CURVE SMOOTH"
);
},
{
closed = 1;
nodes = (
"669 279 OFFCURVE",
"659 279 OFFCURVE",
"649 280 CURVE SMOOTH",
"541 289 OFFCURVE",
"464 314 OFFCURVE",
"401 342 CURVE",
"414 352 OFFCURVE",
"426 364 OFFCURVE",
"440 378 CURVE SMOOTH",
"549 497 OFFCURVE",
"681 737 OFFCURVE",
"799 922 CURVE",
"900 841 OFFCURVE",
"968 718 OFFCURVE",
"968 573 CURVE SMOOTH",
"968 558 OFFCURVE",
"967 541 OFFCURVE",
"965 525 CURVE SMOOTH",
"951 395 OFFCURVE",
"838 279 OFFCURVE",
"679 279 CURVE SMOOTH"
);
}
);
width = 1020;
}
);
note = D;
unicode = 0044;
},
{
glyphname = E;
lastChange = "2021-05-27 10:25:14 +0000";
layers = (
{
anchors = (
{
name = bottom;
position = "{330, 238}";
},
{
name = ogonek;
position = "{338, 241}";
},
{
name = top;
position = "{665, 1112}";
},
{
name = topleft;
position = "{20, 994}";
}
);
layerId = "61E7180A-0B32-4047-B910-001D8BB62225";
paths = (
{
closed = 1;
nodes = (
"492 232 OFFCURVE",
"662 285 OFFCURVE",
"762 364 CURVE SMOOTH",
"814 404 OFFCURVE",
"842 447 OFFCURVE",
"842 483 CURVE SMOOTH",
"842 508 OFFCURVE",
"828 530 OFFCURVE",
"797 545 CURVE SMOOTH",
"787 550 OFFCURVE",
"778 551 OFFCURVE",
"770 551 CURVE SMOOTH",
"760 551 OFFCURVE",
"754 549 OFFCURVE",
"754 545 CURVE SMOOTH",
"754 541 OFFCURVE",
"760 537 OFFCURVE",
"776 533 CURVE SMOOTH",
"794 529 OFFCURVE",
"803 518 OFFCURVE",
"803 503 CURVE SMOOTH",
"803 474 OFFCURVE",
"770 430 OFFCURVE",
"721 391 CURVE SMOOTH",
"634 324 OFFCURVE",
"485 255 OFFCURVE",
"330 255 CURVE SMOOTH",
"160 255 OFFCURVE",
"93 336 OFFCURVE",
"93 426 CURVE SMOOTH",
"93 519 OFFCURVE",
"166 620 OFFCURVE",
"272 650 CURVE SMOOTH",
"318 663 OFFCURVE",
"364 665 OFFCURVE",
"405 665 CURVE SMOOTH",
"434 665 OFFCURVE",
"461 664 OFFCURVE",
"482 664 CURVE SMOOTH",
"512 664 OFFCURVE",
"532 667 OFFCURVE",
"537 682 CURVE",
"551 749 OFFCURVE",
"324 707 OFFCURVE",
"324 838 CURVE SMOOTH",
"324 968 OFFCURVE",
"520 1071 OFFCURVE",
"680 1071 CURVE SMOOTH",
"692 1071 OFFCURVE",
"703 1070 OFFCURVE",
"714 1069 CURVE SMOOTH",
"787 1062 OFFCURVE",
"814 1030 OFFCURVE",
"814 993 CURVE SMOOTH",
"814 936 OFFCURVE",
"750 867 OFFCURVE",
"694 862 CURVE SMOOTH",
"671 859 OFFCURVE",
"658 851 OFFCURVE",
"658 846 CURVE SMOOTH",
"658 842 OFFCURVE",
"663 840 OFFCURVE",
"673 840 CURVE SMOOTH",
"679 840 OFFCURVE",
"687 841 OFFCURVE",
"698 843 CURVE SMOOTH",
"807 867 OFFCURVE",
"873 931 OFFCURVE",
"873 988 CURVE SMOOTH",
"873 1037 OFFCURVE",
"826 1081 OFFCURVE",
"718 1093 CURVE SMOOTH",
"706 1094 OFFCURVE",
"692 1095 OFFCURVE",
"678 1095 CURVE SMOOTH",
"514 1095 OFFCURVE",
"263 994 OFFCURVE",
"249 835 CURVE SMOOTH",
"244 776 OFFCURVE",
"314 730 OFFCURVE",
"370 710 CURVE",
"338 709 OFFCURVE",
"303 702 OFFCURVE",
"268 693 CURVE SMOOTH",
"108 645 OFFCURVE",
"22 534 OFFCURVE",
"22 434 CURVE SMOOTH",
"22 327 OFFCURVE",
"118 232 OFFCURVE",
"326 232 CURVE SMOOTH"
);
}
);
width = 819;
}
);
note = E;
unicode = 0045;
},
{
glyphname = F;
lastChange = "2021-05-27 10:25:14 +0000";
layers = (
{
layerId = "61E7180A-0B32-4047-B910-001D8BB62225";
paths = (
{
closed = 1;
nodes = (
"706 157 OFFCURVE",
"815 409 OFFCURVE",
"884 598 CURVE",
"904 595 OFFCURVE",
"933 594 OFFCURVE",
"964 594 CURVE SMOOTH",
"1014 594 OFFCURVE",
"1066 597 OFFCURVE",
"1088 602 CURVE SMOOTH",
"1103 606 OFFCURVE",
"1111 611 OFFCURVE",
"1111 615 CURVE SMOOTH",
"1111 619 OFFCURVE",
"1105 622 OFFCURVE",
"1091 622 CURVE SMOOTH",
"1089 622 OFFCURVE",
"1087 622 OFFCURVE",
"1085 622 CURVE SMOOTH",
"1071 621 OFFCURVE",
"1053 621 OFFCURVE",
"1032 621 CURVE SMOOTH",
"989 621 OFFCURVE",
"937 623 OFFCURVE",
"896 628 CURVE",
"925 694 OFFCURVE",
"966 815 OFFCURVE",
"1030 887 CURVE",
"1049 879 OFFCURVE",
"1148 820 OFFCURVE",
"1265 801 CURVE SMOOTH",
"1274 800 OFFCURVE",
"1283 799 OFFCURVE",
"1291 799 CURVE SMOOTH",
"1346 799 OFFCURVE",
"1388 827 OFFCURVE",
"1394 863 CURVE",
"1395 867 OFFCURVE",
"1395 871 OFFCURVE",
"1395 875 CURVE SMOOTH",
"1395 882 OFFCURVE",
"1393 886 OFFCURVE",
"1390 886 CURVE SMOOTH",
"1387 886 OFFCURVE",
"1381 881 OFFCURVE",
"1375 867 CURVE SMOOTH",
"1363 843 OFFCURVE",
"1335 834 OFFCURVE",
"1298 834 CURVE SMOOTH",
"1215 834 OFFCURVE",
"1092 882 OFFCURVE",
"1045 906 CURVE",
"1057 916 OFFCURVE",
"1074 928 OFFCURVE",
"1091 928 CURVE SMOOTH",
"1096 928 OFFCURVE",
"1101 927 OFFCURVE",
"1106 925 CURVE",
"1111 919 OFFCURVE",
"1115 916 OFFCURVE",
"1118 916 CURVE SMOOTH",
"1122 916 OFFCURVE",
"1124 920 OFFCURVE",
"1124 925 CURVE SMOOTH",
"1124 934 OFFCURVE",
"1118 945 OFFCURVE",
"1106 949 CURVE SMOOTH",
"1098 951 OFFCURVE",
"1091 952 OFFCURVE",
"1085 952 CURVE SMOOTH",
"1051 952 OFFCURVE",
"1030 928 OFFCURVE",
"1021 918 CURVE",
"959 957 OFFCURVE",
"863 1004 OFFCURVE",
"752 1034 CURVE SMOOTH",
"711 1045 OFFCURVE",
"673 1051 OFFCURVE",
"638 1051 CURVE SMOOTH",
"460 1051 OFFCURVE",
"350 922 OFFCURVE",
"350 817 CURVE SMOOTH",
"350 771 OFFCURVE",
"371 730 OFFCURVE",
"415 705 CURVE SMOOTH",
"439 691 OFFCURVE",
"467 685 OFFCURVE",
"495 685 CURVE SMOOTH",
"562 685 OFFCURVE",
"631 723 OFFCURVE",
"651 792 CURVE SMOOTH",
"653 798 OFFCURVE",
"654 803 OFFCURVE",
"654 806 CURVE SMOOTH",
"654 811 OFFCURVE",
"652 813 OFFCURVE",
"650 813 CURVE SMOOTH",
"644 813 OFFCURVE",
"635 801 OFFCURVE",
"634 788 CURVE SMOOTH",
"635 767 OFFCURVE",
"572 707 OFFCURVE",
"497 707 CURVE SMOOTH",
"474 707 OFFCURVE",
"449 713 OFFCURVE",
"425 728 CURVE SMOOTH",
"405 740 OFFCURVE",
"395 762 OFFCURVE",
"395 788 CURVE SMOOTH",
"395 872 OFFCURVE",
"498 1000 OFFCURVE",
"675 1000 CURVE SMOOTH",
"694 1000 OFFCURVE",
"714 999 OFFCURVE",
"734 996 CURVE SMOOTH",
"833 982 OFFCURVE",
"923 943 OFFCURVE",
"1008 900 CURVE",
"989 879 OFFCURVE",
"910 753 OFFCURVE",
"863 638 CURVE",
"833 643 OFFCURVE",
"803 647 OFFCURVE",
"774 647 CURVE SMOOTH",
"707 647 OFFCURVE",
"645 627 OFFCURVE",
"614 556 CURVE SMOOTH",
"610 549 OFFCURVE",
"613 540 OFFCURVE",
"619 540 CURVE SMOOTH",
"622 540 OFFCURVE",
"626 542 OFFCURVE",
"630 547 CURVE SMOOTH",
"663 594 OFFCURVE",
"737 601 OFFCURVE",
"792 601 CURVE SMOOTH",
"816 601 OFFCURVE",
"837 600 OFFCURVE",
"848 600 CURVE",
"755 387 OFFCURVE",
"602 204 OFFCURVE",
"387 204 CURVE SMOOTH",
"250 204 OFFCURVE",
"72 294 OFFCURVE",
"72 468 CURVE SMOOTH",
"72 483 OFFCURVE",
"73 499 OFFCURVE",
"76 515 CURVE SMOOTH",
"88 583 OFFCURVE",
"129 614 OFFCURVE",
"154 631 CURVE SMOOTH",
"178 648 OFFCURVE",
"196 661 OFFCURVE",
"187 661 CURVE SMOOTH",
"184 661 OFFCURVE",
"180 660 OFFCURVE",
"173 658 CURVE SMOOTH",
"143 649 OFFCURVE",
"87 610 OFFCURVE",
"68 553 CURVE SMOOTH",
"56 516 OFFCURVE",
"50 480 OFFCURVE",
"50 446 CURVE SMOOTH",
"50 279 OFFCURVE",
"187 157 OFFCURVE",
"382 157 CURVE SMOOTH"
);
}
);
width = 1053;
}
);
note = F;
unicode = 0046;
},
{
glyphname = G;
lastChange = "2021-05-27 10:25:14 +0000";
layers = (
{
anchors = (
{
name = bottom;
position = "{96, -74}";
},
{
name = top;
position = "{545, 1111}";
}
);
layerId = "61E7180A-0B32-4047-B910-001D8BB62225";
paths = (
{
closed = 1;
nodes = (
"213 -88 OFFCURVE",
"429 16 OFFCURVE",
"540 176 CURVE",
"620 176 OFFCURVE",
"720 169 OFFCURVE",
"766 157 CURVE SMOOTH",
"773 155 OFFCURVE",
"779 154 OFFCURVE",
"783 154 CURVE SMOOTH",
"791 154 OFFCURVE",
"795 157 OFFCURVE",
"795 161 CURVE SMOOTH",
"795 166 OFFCURVE",
"788 172 OFFCURVE",
"775 176 CURVE SMOOTH",
"714 190 OFFCURVE",
"643 200 OFFCURVE",
"553 201 CURVE",
"627 322 OFFCURVE",
"677 421 OFFCURVE",
"690 533 CURVE SMOOTH",
"694 558 OFFCURVE",
"679 581 OFFCURVE",
"657 581 CURVE SMOOTH",
"633 581 OFFCURVE",
"601 557 OFFCURVE",
"571 488 CURVE SMOOTH",
"547 431 OFFCURVE",
"413 347 OFFCURVE",
"293 347 CURVE SMOOTH",
"271 347 OFFCURVE",
"249 349 OFFCURVE",
"228 356 CURVE SMOOTH",
"154 380 OFFCURVE",
"111 455 OFFCURVE",
"111 554 CURVE SMOOTH",
"111 613 OFFCURVE",
"126 681 OFFCURVE",
"159 752 CURVE",
"224 709 OFFCURVE",
"326 681 OFFCURVE",
"423 682 CURVE SMOOTH",
"672 686 OFFCURVE",
"799 814 OFFCURVE",
"799 929 CURVE SMOOTH",
"799 1011 OFFCURVE",
"735 1086 OFFCURVE",
"606 1106 CURVE SMOOTH",
"589 1109 OFFCURVE",
"572 1110 OFFCURVE",
"555 1110 CURVE SMOOTH",
"404 1110 OFFCURVE",
"230 1014 OFFCURVE",
"135 859 CURVE SMOOTH",
"127 846 OFFCURVE",
"119 832 OFFCURVE",
"113 819 CURVE",
"80 858 OFFCURVE",
"61 904 OFFCURVE",
"61 951 CURVE SMOOTH",
"61 992 OFFCURVE",
"75 1034 OFFCURVE",
"106 1072 CURVE SMOOTH",
"111 1078 OFFCURVE",
"113 1083 OFFCURVE",
"113 1086 CURVE SMOOTH",
"113 1089 OFFCURVE",
"111 1090 OFFCURVE",
"109 1090 CURVE SMOOTH",
"105 1090 OFFCURVE",
"98 1087 OFFCURVE",
"92 1080 CURVE SMOOTH",
"49 1036 OFFCURVE",
"30 988 OFFCURVE",
"30 940 CURVE SMOOTH",
"30 885 OFFCURVE",
"55 832 OFFCURVE",
"96 789 CURVE",
"60 714 OFFCURVE",
"45 642 OFFCURVE",
"45 579 CURVE SMOOTH",
"45 450 OFFCURVE",
"109 353 OFFCURVE",
"193 324 CURVE SMOOTH",
"220 315 OFFCURVE",
"247 311 OFFCURVE",
"274 311 CURVE SMOOTH",
"417 311 OFFCURVE",
"559 418 OFFCURVE",
"610 465 CURVE",
"606 449 LINE SMOOTH",
"583 355 OFFCURVE",
"553 284 OFFCURVE",
"504 201 CURVE",
"441 200 OFFCURVE",
"343 193 OFFCURVE",
"291 185 CURVE SMOOTH",
"109 160 OFFCURVE",
"-48 67 OFFCURVE",
"-48 -7 CURVE SMOOTH",
"-48 -35 OFFCURVE",
"-26 -60 OFFCURVE",
"25 -79 CURVE SMOOTH",
"41 -85 OFFCURVE",
"61 -88 OFFCURVE",
"83 -88 CURVE SMOOTH"
);
},
{
closed = 1;
nodes = (
"71 -57 OFFCURVE",
"60 -56 OFFCURVE",
"51 -54 CURVE SMOOTH",
"17 -47 OFFCURVE",
"3 -33 OFFCURVE",
"3 -16 CURVE SMOOTH",
"3 41 OFFCURVE",
"166 137 OFFCURVE",
"303 158 CURVE SMOOTH",
"359 168 OFFCURVE",
"425 172 OFFCURVE",
"488 174 CURVE",
"382 22 OFFCURVE",
"186 -57 OFFCURVE",
"82 -57 CURVE SMOOTH"
);
},
{
closed = 1;
nodes = (
"308 712 OFFCURVE",
"226 737 OFFCURVE",
"172 779 CURVE",
"181 796 OFFCURVE",
"192 815 OFFCURVE",
"204 833 CURVE SMOOTH",
"290 976 OFFCURVE",
"446 1078 OFFCURVE",
"577 1078 CURVE SMOOTH",
"589 1078 OFFCURVE",
"600 1078 OFFCURVE",
"611 1076 CURVE SMOOTH",
"708 1061 OFFCURVE",
"755 1007 OFFCURVE",
"755 945 CURVE SMOOTH",
"755 849 OFFCURVE",
"645 735 OFFCURVE",
"440 714 CURVE SMOOTH",
"425 713 OFFCURVE",
"410 712 OFFCURVE",
"396 712 CURVE SMOOTH"
);
}
);
width = 702;
}
);
note = G;
unicode = 0047;
},
{
glyphname = H;
lastChange = "2021-05-27 10:44:42 +0000";
layers = (
{
anchors = (
{
name = bottom;
position = "{915, 182}";
},
{
name = center;
position = "{694, 497}";
},
{
name = top;
position = "{1312, 1084}";
},
{
name = topleft;
position = "{20, 994}";
}
);
layerId = "61E7180A-0B32-4047-B910-001D8BB62225";
paths = (
{
closed = 1;
nodes = (
"352 115 OFFCURVE",
"373 117 OFFCURVE",
"393 119 CURVE SMOOTH",
"653 153 OFFCURVE",
"836 393 OFFCURVE",
"915 626 CURVE",
"1006 622 OFFCURVE",
"1210 614 OFFCURVE",
"1256 614 CURVE",
"1239 565 OFFCURVE",
"1184 432 OFFCURVE",
"1184 341 CURVE SMOOTH",
"1184 301 OFFCURVE",
"1195 269 OFFCURVE",
"1222 255 CURVE SMOOTH",
"1233 249 OFFCURVE",
"1246 246 OFFCURVE",
"1258 246 CURVE SMOOTH",
"1285 246 OFFCURVE",
"1312 259 OFFCURVE",
"1336 281 CURVE SMOOTH",
"1382 326 OFFCURVE",
"1406 360 OFFCURVE",
"1458 470 CURVE SMOOTH",
"1461 476 OFFCURVE",
"1462 481 OFFCURVE",
"1462 484 CURVE SMOOTH",
"1462 489 OFFCURVE",
"1460 491 OFFCURVE",
"1457 491 CURVE SMOOTH",
"1453 491 OFFCURVE",
"1448 487 OFFCURVE",
"1443 477 CURVE SMOOTH",
"1411 413 OFFCURVE",
"1369 334 OFFCURVE",
"1317 296 CURVE SMOOTH",
"1307 288 OFFCURVE",
"1296 284 OFFCURVE",
"1286 284 CURVE SMOOTH",
"1277 284 OFFCURVE",
"1268 288 OFFCURVE",
"1261 296 CURVE SMOOTH",
"1252 306 OFFCURVE",
"1248 324 OFFCURVE",
"1248 346 CURVE SMOOTH",
"1248 426 OFFCURVE",
"1300 566 OFFCURVE",
"1313 614 CURVE",
"1343 615 OFFCURVE",
"1386 622 OFFCURVE",
"1411 641 CURVE SMOOTH",
"1418 646 OFFCURVE",
"1421 650 OFFCURVE",
"1421 652 CURVE SMOOTH",
"1421 654 OFFCURVE",
"1419 655 OFFCURVE",
"1415 655 CURVE SMOOTH",
"1412 655 OFFCURVE",
"1408 655 OFFCURVE",
"1403 653 CURVE SMOOTH",
"1387 646 OFFCURVE",
"1343 646 OFFCURVE",
"1323 646 CURVE",
"1403 879 OFFCURVE",
"1512 1032 OFFCURVE",
"1530 1041 CURVE SMOOTH",
"1540 1046 OFFCURVE",
"1544 1049 OFFCURVE",
"1544 1051 CURVE SMOOTH",
"1544 1052 OFFCURVE",
"1542 1053 OFFCURVE",
"1538 1053 CURVE SMOOTH",
"1527 1053 OFFCURVE",
"1504 1048 OFFCURVE",
"1483 1040 CURVE SMOOTH",
"1404 1013 OFFCURVE",
"1280 686 OFFCURVE",
"1265 645 CURVE",
"1194 645 OFFCURVE",
"1059 662 OFFCURVE",
"923 662 CURVE",
"941 705 OFFCURVE",
"1016 915 OFFCURVE",
"1053 989 CURVE",
"1093 989 OFFCURVE",
"1173 1016 OFFCURVE",
"1173 1064 CURVE SMOOTH",
"1173 1085 OFFCURVE",
"1156 1095 OFFCURVE",
"1136 1095 CURVE SMOOTH",
"1129 1095 OFFCURVE",
"1122 1094 OFFCURVE",
"1115 1092 CURVE SMOOTH",
"1083 1081 OFFCURVE",
"1044 1024 OFFCURVE",
"1037 1012 CURVE",
"842 992 OFFCURVE",
"512 1018 OFFCURVE",
"449 764 CURVE SMOOTH",
"445 748 OFFCURVE",
"443 732 OFFCURVE",
"443 717 CURVE SMOOTH",
"443 626 OFFCURVE",
"512 555 OFFCURVE",
"596 555 CURVE SMOOTH",
"613 555 OFFCURVE",
"632 558 OFFCURVE",
"650 565 CURVE SMOOTH",
"707 586 OFFCURVE",
"761 650 OFFCURVE",
"761 719 CURVE SMOOTH",
"761 736 OFFCURVE",
"758 754 OFFCURVE",
"750 771 CURVE SMOOTH",
"747 777 OFFCURVE",
"743 779 OFFCURVE",
"739 779 CURVE SMOOTH",
"736 779 OFFCURVE",
"733 777 OFFCURVE",
"733 772 CURVE SMOOTH",
"733 770 OFFCURVE",
"734 766 OFFCURVE",
"737 762 CURVE SMOOTH",
"739 759 OFFCURVE",
"740 753 OFFCURVE",
"740 746 CURVE SMOOTH",
"740 705 OFFCURVE",
"711 607 OFFCURVE",
"649 584 CURVE SMOOTH",
"633 578 OFFCURVE",
"618 576 OFFCURVE",
"605 576 CURVE SMOOTH",
"546 576 OFFCURVE",
"507 624 OFFCURVE",
"507 689 CURVE SMOOTH",
"507 708 OFFCURVE",
"510 728 OFFCURVE",
"517 748 CURVE SMOOTH",
"590 980 OFFCURVE",
"827 965 OFFCURVE",
"1024 988 CURVE",
"1002 945 OFFCURVE",
"927 787 OFFCURVE",
"876 662 CURVE",
"867 662 OFFCURVE",
"838 662 OFFCURVE",
"838 662 CURVE",
"811 658 OFFCURVE",
"784 638 OFFCURVE",
"775 623 CURVE SMOOTH",
"772 618 OFFCURVE",
"771 615 OFFCURVE",
"771 612 CURVE SMOOTH",
"771 608 OFFCURVE",
"775 606 OFFCURVE",
"780 606 CURVE SMOOTH",
"787 606 OFFCURVE",
"797 610 OFFCURVE",
"803 612 CURVE SMOOTH",
"821 622 OFFCURVE",
"842 628 OFFCURVE",
"863 628 CURVE",
"796 453 OFFCURVE",
"665 251 OFFCURVE",
"383 188 CURVE SMOOTH",
"358 182 OFFCURVE",
"331 179 OFFCURVE",
"301 179 CURVE SMOOTH",
"174 179 OFFCURVE",
"24 238 OFFCURVE",
"24 393 CURVE SMOOTH",
"24 405 OFFCURVE",
"25 417 OFFCURVE",
"27 429 CURVE SMOOTH",
"38 512 OFFCURVE",
"95 574 OFFCURVE",
"129 587 CURVE SMOOTH",
"134 589 OFFCURVE",
"139 593 OFFCURVE",
"139 597 CURVE SMOOTH",
"139 600 OFFCURVE",
"136 602 OFFCURVE",
"127 602 CURVE SMOOTH",
"95 600 OFFCURVE",
"21 539 OFFCURVE",
"4 473 CURVE SMOOTH",
"-4 443 OFFCURVE",
"-8 414 OFFCURVE",
"-8 387 CURVE SMOOTH",
"-8 212 OFFCURVE",
"152 115 OFFCURVE",
"332 115 CURVE SMOOTH"
);
},
{
closed = 1;
nodes = (
"1085 1032 OFFCURVE",
"1115 1068 OFFCURVE",
"1124 1063 CURVE",
"1129 1063 OFFCURVE",
"1135 1057 OFFCURVE",
"1135 1049 CURVE SMOOTH",
"1135 1038 OFFCURVE",
"1122 1022 OFFCURVE",
"1072 1014 CURVE"
);
}
);
width = 1388;
}
);
note = H;
unicode = 0048;
},
{
glyphname = I;
lastChange = "2021-05-27 10:25:14 +0000";
layers = (
{
anchors = (
{
name = bottom;
position = "{256, 141}";
},
{
name = ogonek;
position = "{290, 140}";
},
{
name = top;
position = "{1163, 1151}";
},
{
name = topleft;
position = "{20, 994}";
}
);
layerId = "61E7180A-0B32-4047-B910-001D8BB62225";
paths = (
{
closed = 1;
nodes = (
"333 131 OFFCURVE",
"371 134 OFFCURVE",
"410 141 CURVE SMOOTH",
"556 165 OFFCURVE",
"697 245 OFFCURVE",
"807 387 CURVE SMOOTH",
"967 592 OFFCURVE",
"959 792 OFFCURVE",
"1083 1017 CURVE",
"1092 1017 OFFCURVE",
"1112 1026 OFFCURVE",
"1124 1026 CURVE",
"1163 1040 OFFCURVE",
"1202 1056 OFFCURVE",
"1202 1095 CURVE SMOOTH",
"1202 1115 OFFCURVE",
"1189 1124 OFFCURVE",
"1170 1124 CURVE SMOOTH",
"1162 1124 OFFCURVE",
"1153 1123 OFFCURVE",
"1144 1120 CURVE SMOOTH",
"1112 1110 OFFCURVE",
"1076 1055 OFFCURVE",
"1068 1039 CURVE",
"878 1006 OFFCURVE",
"547 930 OFFCURVE",
"494 693 CURVE SMOOTH",
"492 681 OFFCURVE",
"490 670 OFFCURVE",
"490 659 CURVE SMOOTH",
"490 581 OFFCURVE",
"549 528 OFFCURVE",
"621 528 CURVE SMOOTH",
"641 528 OFFCURVE",
"661 532 OFFCURVE",
"681 540 CURVE SMOOTH",
"745 564 OFFCURVE",
"797 633 OFFCURVE",
"797 698 CURVE SMOOTH",
"797 715 OFFCURVE",
"793 732 OFFCURVE",
"785 748 CURVE SMOOTH",
"783 753 OFFCURVE",
"780 755 OFFCURVE",
"777 755 CURVE SMOOTH",
"770 755 OFFCURVE",
"763 746 OFFCURVE",
"763 740 CURVE SMOOTH",
"763 739 OFFCURVE",
"764 739 OFFCURVE",
"764 738 CURVE",
"769 734 OFFCURVE",
"773 720 OFFCURVE",
"773 701 CURVE SMOOTH",
"773 659 OFFCURVE",
"753 593 OFFCURVE",
"679 563 CURVE SMOOTH",
"664 557 OFFCURVE",
"649 554 OFFCURVE",
"636 554 CURVE SMOOTH",
"587 554 OFFCURVE",
"556 594 OFFCURVE",
"556 653 CURVE SMOOTH",
"556 665 OFFCURVE",
"558 679 OFFCURVE",
"561 693 CURVE SMOOTH",
"610 910 OFFCURVE",
"871 973 OFFCURVE",
"1052 1012 CURVE",
"1030 976 OFFCURVE",
"959 846 OFFCURVE",
"900 687 CURVE SMOOTH",
"847 541 OFFCURVE",
"683 247 OFFCURVE",
"391 173 CURVE SMOOTH",
"364 166 OFFCURVE",
"334 163 OFFCURVE",
"303 163 CURVE SMOOTH",
"167 163 OFFCURVE",
"14 228 OFFCURVE",
"14 371 CURVE SMOOTH",
"14 388 OFFCURVE",
"16 407 OFFCURVE",
"21 426 CURVE SMOOTH",
"43 509 OFFCURVE",
"107 574 OFFCURVE",
"143 588 CURVE SMOOTH",
"148 592 OFFCURVE",
"154 596 OFFCURVE",
"154 599 CURVE SMOOTH",
"154 601 OFFCURVE",
"152 602 OFFCURVE",
"145 602 CURVE SMOOTH",
"144 602 OFFCURVE",
"143 602 OFFCURVE",
"142 602 CURVE SMOOTH",
"110 600 OFFCURVE",
"29 537 OFFCURVE",
"4 470 CURVE SMOOTH",
"-11 430 OFFCURVE",
"-19 392 OFFCURVE",
"-19 359 CURVE SMOOTH",
"-19 213 OFFCURVE",
"115 131 OFFCURVE",
"297 131 CURVE SMOOTH"
);
},
{
closed = 1;
nodes = (
"1115 1061 OFFCURVE",
"1144 1096 OFFCURVE",
"1154 1092 CURVE",
"1159 1092 OFFCURVE",
"1166 1087 OFFCURVE",
"1166 1079 CURVE SMOOTH",
"1166 1068 OFFCURVE",
"1152 1053 OFFCURVE",
"1100 1043 CURVE"
);
}
);
width = 917;
}
);
note = I;
unicode = 0049;
},
{
glyphname = J;
lastChange = "2021-05-27 10:50:29 +0000";
layers = (
{
anchors = (
{
name = bottom;
position = "{289, -86}";
},
{
name = top;
position = "{1221, 1092}";
}
);
layerId = "61E7180A-0B32-4047-B910-001D8BB62225";
paths = (
{
closed = 1;
nodes = (
"289 -86 OFFCURVE",
"321 -84 OFFCURVE",
"354 -79 CURVE SMOOTH",
"485 -60 OFFCURVE",
"699 44 OFFCURVE",
"817 228 CURVE SMOOTH",
"997 507 OFFCURVE",
"1021 766 OFFCURVE",
"1152 989 CURVE",
"1160 989 OFFCURVE",
"1183 997 OFFCURVE",
"1195 997 CURVE",
"1234 1009 OFFCURVE",
"1276 1024 OFFCURVE",
"1277 1065 CURVE SMOOTH",
"1277 1085 OFFCURVE",
"1262 1095 OFFCURVE",
"1242 1095 CURVE SMOOTH",
"1235 1095 OFFCURVE",
"1228 1094 OFFCURVE",
"1221 1092 CURVE SMOOTH",
"1187 1081 OFFCURVE",
"1148 1026 OFFCURVE",
"1139 1012 CURVE",
"955 988 OFFCURVE",
"618 894 OFFCURVE",
"580 662 CURVE SMOOTH",
"578 651 OFFCURVE",
"577 641 OFFCURVE",
"577 631 CURVE SMOOTH",
"577 550 OFFCURVE",
"633 497 OFFCURVE",
"706 497 CURVE SMOOTH",
"724 497 OFFCURVE",
"743 500 OFFCURVE",
"762 507 CURVE SMOOTH",
"831 531 OFFCURVE",
"885 600 OFFCURVE",
"885 667 CURVE SMOOTH",
"885 683 OFFCURVE",
"882 698 OFFCURVE",
"876 713 CURVE",
"871 719 OFFCURVE",
"865 722 OFFCURVE",
"860 722 CURVE SMOOTH",
"854 722 OFFCURVE",
"849 718 OFFCURVE",
"849 713 CURVE SMOOTH",
"849 710 OFFCURVE",
"851 707 OFFCURVE",
"855 705 CURVE",
"859 701 OFFCURVE",
"863 688 OFFCURVE",
"863 672 CURVE SMOOTH",
"863 629 OFFCURVE",
"841 559 OFFCURVE",
"762 531 CURVE SMOOTH",
"747 526 OFFCURVE",
"734 523 OFFCURVE",
"722 523 CURVE SMOOTH",
"673 523 OFFCURVE",
"645 565 OFFCURVE",
"645 624 CURVE SMOOTH",
"645 634 OFFCURVE",
"645 644 OFFCURVE",
"647 655 CURVE SMOOTH",
"679 851 OFFCURVE",
"959 959 OFFCURVE",
"1122 985 CURVE",
"1100 950 OFFCURVE",
"1032 835 OFFCURVE",
"961 679 CURVE SMOOTH",
"867 470 OFFCURVE",
"694 32 OFFCURVE",
"342 -47 CURVE SMOOTH",
"319 -52 OFFCURVE",
"293 -54 OFFCURVE",
"267 -54 CURVE SMOOTH",
"130 -54 OFFCURVE",
"-32 15 OFFCURVE",
"-32 159 CURVE SMOOTH",
"-32 178 OFFCURVE",
"-29 200 OFFCURVE",
"-23 222 CURVE SMOOTH",
"1 304 OFFCURVE",
"70 366 OFFCURVE",
"105 381 CURVE SMOOTH",
"111 383 OFFCURVE",
"118 388 OFFCURVE",
"118 391 CURVE SMOOTH",
"118 393 OFFCURVE",
"115 394 OFFCURVE",
"109 394 CURVE SMOOTH",
"108 394 OFFCURVE",
"107 394 OFFCURVE",
"106 394 CURVE SMOOTH",
"74 393 OFFCURVE",
"-11 332 OFFCURVE",
"-38 267 CURVE SMOOTH",
"-57 222 OFFCURVE",
"-65 181 OFFCURVE",
"-65 144 CURVE SMOOTH",
"-65 -3 OFFCURVE",
"71 -86 OFFCURVE",
"258 -86 CURVE SMOOTH"
);
},
{
closed = 1;
nodes = (
"1187 1032 OFFCURVE",
"1217 1068 OFFCURVE",
"1229 1063 CURVE",
"1233 1063 OFFCURVE",
"1239 1058 OFFCURVE",
"1239 1051 CURVE SMOOTH",
"1239 1039 OFFCURVE",
"1225 1023 OFFCURVE",
"1170 1014 CURVE"
);
}
);
width = 972;
}
);
note = J;
unicode = 004A;
},
{
glyphname = K;
lastChange = "2021-05-27 10:25:14 +0000";
layers = (
{
anchors = (
{
name = bottom;
position = "{795, 146}";
},
{
name = top;
position = "{1324, 1109}";
}
);
layerId = "61E7180A-0B32-4047-B910-001D8BB62225";
paths = (
{
closed = 1;
nodes = (
"371 116 OFFCURVE",
"395 118 OFFCURVE",
"418 121 CURVE SMOOTH",
"872 189 OFFCURVE",
"902 716 OFFCURVE",
"1053 989 CURVE",
"1140 998 OFFCURVE",
"1173 1034 OFFCURVE",
"1173 1061 CURVE SMOOTH",
"1173 1080 OFFCURVE",
"1158 1095 OFFCURVE",
"1134 1095 CURVE SMOOTH",
"1128 1095 OFFCURVE",
"1122 1094 OFFCURVE",
"1115 1092 CURVE SMOOTH",
"1083 1081 OFFCURVE",
"1044 1024 OFFCURVE",
"1037 1012 CURVE",
"950 1004 OFFCURVE",
"829 1001 OFFCURVE",
"720 977 CURVE SMOOTH",
"523 933 OFFCURVE",
"448 819 OFFCURVE",
"448 722 CURVE SMOOTH",
"448 635 OFFCURVE",
"508 560 OFFCURVE",
"595 560 CURVE SMOOTH",
"614 560 OFFCURVE",
"634 563 OFFCURVE",
"655 571 CURVE SMOOTH",
"712 593 OFFCURVE",
"758 663 OFFCURVE",
"758 727 CURVE SMOOTH",
"758 742 OFFCURVE",
"756 757 OFFCURVE",
"750 771 CURVE SMOOTH",
"746 779 OFFCURVE",
"740 783 OFFCURVE",
"736 783 CURVE SMOOTH",
"734 783 OFFCURVE",
"732 782 OFFCURVE",
"732 779 CURVE SMOOTH",
"732 778 OFFCURVE",
"732 778 OFFCURVE",
"732 777 CURVE SMOOTH",
"734 767 OFFCURVE",
"735 757 OFFCURVE",
"735 746 CURVE SMOOTH",
"735 685 OFFCURVE",
"706 610 OFFCURVE",
"649 590 CURVE SMOOTH",
"632 584 OFFCURVE",
"617 581 OFFCURVE",
"602 581 CURVE SMOOTH",
"543 581 OFFCURVE",
"508 631 OFFCURVE",
"508 696 CURVE SMOOTH",
"508 786 OFFCURVE",
"575 903 OFFCURVE",
"732 947 CURVE SMOOTH",
"825 973 OFFCURVE",
"934 977 OFFCURVE",
"1024 988 CURVE",
"989 919 OFFCURVE",
"890 698 OFFCURVE",
"871 654 CURVE SMOOTH",
"795 482 OFFCURVE",
"666 241 OFFCURVE",
"379 176 CURVE SMOOTH",
"357 171 OFFCURVE",
"333 169 OFFCURVE",
"308 169 CURVE SMOOTH",
"180 169 OFFCURVE",
"24 233 OFFCURVE",
"24 393 CURVE SMOOTH",
"24 404 OFFCURVE",
"25 416 OFFCURVE",
"27 429 CURVE SMOOTH",
"39 519 OFFCURVE",
"109 572 OFFCURVE",
"127 580 CURVE SMOOTH",
"130 582 OFFCURVE",
"132 585 OFFCURVE",
"132 588 CURVE SMOOTH",
"132 591 OFFCURVE",
"129 594 OFFCURVE",
"122 594 CURVE SMOOTH",
"121 594 OFFCURVE",
"120 594 OFFCURVE",
"119 594 CURVE SMOOTH",
"94 591 OFFCURVE",
"23 545 OFFCURVE",
"4 473 CURVE SMOOTH",
"-3 445 OFFCURVE",
"-7 419 OFFCURVE",
"-7 395 CURVE SMOOTH",
"-7 218 OFFCURVE",
"167 116 OFFCURVE",
"348 116 CURVE SMOOTH"
);
},
{
closed = 1;
nodes = (
"1280 103 OFFCURVE",
"1384 170 OFFCURVE",
"1420 244 CURVE SMOOTH",
"1424 251 OFFCURVE",
"1425 256 OFFCURVE",
"1425 260 CURVE SMOOTH",
"1425 264 OFFCURVE",
"1423 266 OFFCURVE",
"1421 266 CURVE SMOOTH",
"1417 266 OFFCURVE",
"1411 261 OFFCURVE",
"1407 252 CURVE",
"1369 180 OFFCURVE",
"1277 146 OFFCURVE",
"1199 146 CURVE SMOOTH",
"1120 146 OFFCURVE",
"1061 205 OFFCURVE",
"1020 303 CURVE SMOOTH",
"978 397 OFFCURVE",
"956 505 OFFCURVE",
"956 538 CURVE SMOOTH",
"956 545 OFFCURVE",
"957 549 OFFCURVE",
"959 548 CURVE",
"1132 592 OFFCURVE",
"1469 840 OFFCURVE",
"1629 1108 CURVE SMOOTH",
"1634 1116 OFFCURVE",
"1636 1122 OFFCURVE",
"1636 1128 CURVE SMOOTH",
"1636 1135 OFFCURVE",
"1633 1139 OFFCURVE",
"1627 1139 CURVE SMOOTH",
"1621 1139 OFFCURVE",
"1613 1134 OFFCURVE",
"1604 1120 CURVE SMOOTH",
"1396 801 OFFCURVE",
"974 563 OFFCURVE",
"900 570 CURVE",
"895 567 OFFCURVE",
"893 554 OFFCURVE",
"893 534 CURVE SMOOTH",
"893 481 OFFCURVE",
"910 380 OFFCURVE",
"950 291 CURVE SMOOTH",
"998 185 OFFCURVE",
"1084 103 OFFCURVE",
"1194 103 CURVE SMOOTH"
);
},
{
closed = 1;
nodes = (
"1081 1026 OFFCURVE",
"1097 1047 OFFCURVE",
"1111 1056 CURVE SMOOTH",
"1120 1063 OFFCURVE",
"1127 1066 OFFCURVE",
"1133 1066 CURVE SMOOTH",
"1139 1066 OFFCURVE",
"1143 1062 OFFCURVE",
"1143 1056 CURVE SMOOTH",
"1143 1048 OFFCURVE",
"1135 1036 OFFCURVE",
"1116 1026 CURVE SMOOTH",
"1106 1021 OFFCURVE",
"1092 1017 OFFCURVE",
"1072 1014 CURVE"
);
}
);
width = 1150;
}
);
note = K;
unicode = 004B;
},
{
glyphname = L;
lastChange = "2021-05-27 10:45:08 +0000";
layers = (
{
anchors = (
{
name = bottom;
position = "{427, 201}";
},
{
name = center;
position = "{578, 497}";
},
{
name = top;
position = "{626, 1098}";
},
{
name = topright;
position = "{1037, 1148}";
}
);
layerId = "61E7180A-0B32-4047-B910-001D8BB62225";
paths = (
{
closed = 1;
nodes = (
"813 -14 OFFCURVE",
"820 -12 OFFCURVE",
"829 -7 CURVE SMOOTH",
"838 -3 OFFCURVE",
"847 7 OFFCURVE",
"855 21 CURVE SMOOTH",
"861 31 OFFCURVE",
"864 47 OFFCURVE",
"864 65 CURVE SMOOTH",
"864 120 OFFCURVE",
"835 200 OFFCURVE",
"762 256 CURVE SMOOTH",
"670 328 OFFCURVE",
"532 382 OFFCURVE",
"433 406 CURVE",
"441 418 OFFCURVE",
"448 429 OFFCURVE",
"454 441 CURVE SMOOTH",
"490 505 OFFCURVE",
"513 553 OFFCURVE",
"543 614 CURVE",
"749 649 OFFCURVE",
"963 854 OFFCURVE",
"963 1052 CURVE SMOOTH",
"963 1059 OFFCURVE",
"963 1067 OFFCURVE",
"962 1075 CURVE SMOOTH",
"959 1113 OFFCURVE",
"922 1150 OFFCURVE",
"870 1150 CURVE SMOOTH",
"797 1150 OFFCURVE",
"692 1080 OFFCURVE",
"600 850 CURVE",
"600 850 OFFCURVE",
"527 662 OFFCURVE",
"515 634 CURVE",
"498 632 OFFCURVE",
"483 631 OFFCURVE",
"468 631 CURVE SMOOTH",
"343 631 OFFCURVE",
"292 700 OFFCURVE",
"292 776 CURVE SMOOTH",
"292 864 OFFCURVE",
"361 961 OFFCURVE",
"466 974 CURVE SMOOTH",
"488 977 OFFCURVE",
"498 983 OFFCURVE",
"498 988 CURVE SMOOTH",
"498 991 OFFCURVE",
"493 994 OFFCURVE",
"483 994 CURVE SMOOTH",
"478 994 OFFCURVE",
"472 994 OFFCURVE",
"465 992 CURVE SMOOTH",
"310 956 OFFCURVE",
"243 873 OFFCURVE",
"243 794 CURVE SMOOTH",
"243 696 OFFCURVE",
"342 605 OFFCURVE",
"501 610 CURVE",
"465 535 OFFCURVE",
"433 474 OFFCURVE",
"395 415 CURVE",
"366 421 OFFCURVE",
"331 423 OFFCURVE",
"296 423 CURVE SMOOTH",
"242 423 OFFCURVE",
"186 417 OFFCURVE",
"143 405 CURVE SMOOTH",
"37 373 OFFCURVE",
"-5 319 OFFCURVE",
"-5 270 CURVE SMOOTH",
"-5 217 OFFCURVE",
"47 171 OFFCURVE",
"122 171 CURVE SMOOTH",
"153 171 OFFCURVE",
"188 179 OFFCURVE",
"225 197 CURVE SMOOTH",
"291 228 OFFCURVE",
"351 288 OFFCURVE",
"403 360 CURVE",
"531 336 OFFCURVE",
"670 307 OFFCURVE",
"766 220 CURVE SMOOTH",
"811 181 OFFCURVE",
"825 124 OFFCURVE",
"825 80 CURVE SMOOTH",
"825 56 OFFCURVE",
"822 36 OFFCURVE",
"816 24 CURVE SMOOTH",
"810 11 OFFCURVE",
"796 -14 OFFCURVE",
"809 -14 CURVE SMOOTH"
);
},
{
closed = 1;
nodes = (
"52 200 OFFCURVE",
"16 227 OFFCURVE",
"16 260 CURVE SMOOTH",
"16 295 OFFCURVE",
"56 337 OFFCURVE",
"155 363 CURVE SMOOTH",
"190 373 OFFCURVE",
"227 377 OFFCURVE",
"265 377 CURVE SMOOTH",
"299 377 OFFCURVE",
"333 374 OFFCURVE",
"364 367 CURVE",
"316 299 OFFCURVE",
"264 252 OFFCURVE",
"209 225 CURVE SMOOTH",
"171 207 OFFCURVE",
"137 200 OFFCURVE",
"108 200 CURVE SMOOTH"
);
},
{
closed = 1;
nodes = (
"598 726 OFFCURVE",
"646 815 OFFCURVE",
"646 815 CURVE",
"751 1022 OFFCURVE",
"840 1089 OFFCURVE",
"886 1089 CURVE SMOOTH",
"908 1089 OFFCURVE",
"921 1073 OFFCURVE",
"921 1050 CURVE SMOOTH",
"921 866 OFFCURVE",
"738 681 OFFCURVE",
"557 641 CURVE"
);
}
);
width = 716;
}
);
note = L;
unicode = 004C;
},
{
glyphname = M;
lastChange = "2021-05-27 10:25:14 +0000";
layers = (
{
layerId = "61E7180A-0B32-4047-B910-001D8BB62225";
paths = (
{
closed = 1;
nodes = (
"1389 170 OFFCURVE",
"1403 178 OFFCURVE",
"1403 183 CURVE SMOOTH",
"1403 186 OFFCURVE",
"1399 189 OFFCURVE",
"1388 189 CURVE SMOOTH",
"1386 189 OFFCURVE",
"1384 189 OFFCURVE",
"1382 189 CURVE SMOOTH",
"1298 186 OFFCURVE",
"1268 237 OFFCURVE",
"1268 311 CURVE SMOOTH",
"1268 446 OFFCURVE",
"1365 656 OFFCURVE",
"1422 768 CURVE SMOOTH",
"1449 823 OFFCURVE",
"1461 868 OFFCURVE",
"1461 902 CURVE SMOOTH",
"1461 944 OFFCURVE",
"1442 968 OFFCURVE",
"1407 968 CURVE SMOOTH",
"1353 968 OFFCURVE",
"1262 910 OFFCURVE",
"1154 775 CURVE SMOOTH",
"1072 671 OFFCURVE",
"996 565 OFFCURVE",
"955 501 CURVE",
"996 626 OFFCURVE",
"1041 748 OFFCURVE",
"1053 876 CURVE SMOOTH",
"1054 884 OFFCURVE",
"1054 891 OFFCURVE",
"1054 898 CURVE SMOOTH",
"1054 968 OFFCURVE",
"1019 995 OFFCURVE",
"975 995 CURVE SMOOTH",
"926 995 OFFCURVE",
"865 961 OFFCURVE",
"827 914 CURVE SMOOTH",
"754 827 OFFCURVE",
"721 776 OFFCURVE",
"662 670 CURVE SMOOTH",
"655 656 OFFCURVE",
"649 649 OFFCURVE",
"646 649 CURVE SMOOTH",
"645 649 OFFCURVE",
"644 651 OFFCURVE",
"644 654 CURVE SMOOTH",
"644 660 OFFCURVE",
"646 669 OFFCURVE",
"650 682 CURVE SMOOTH",
"674 748 OFFCURVE",
"694 819 OFFCURVE",
"702 882 CURVE SMOOTH",
"703 895 OFFCURVE",
"704 906 OFFCURVE",
"704 918 CURVE SMOOTH",
"704 1049 OFFCURVE",
"631 1104 OFFCURVE",
"533 1104 CURVE SMOOTH",
"369 1104 OFFCURVE",
"133 950 OFFCURVE",
"46 745 CURVE SMOOTH",
"26 698 OFFCURVE",
"18 655 OFFCURVE",
"18 616 CURVE SMOOTH",
"18 486 OFFCURVE",
"114 405 OFFCURVE",
"214 405 CURVE SMOOTH",
"237 405 OFFCURVE",
"261 410 OFFCURVE",
"284 419 CURVE SMOOTH",
"405 469 OFFCURVE",
"465 570 OFFCURVE",
"465 645 CURVE SMOOTH",
"465 699 OFFCURVE",
"435 739 OFFCURVE",
"375 739 CURVE SMOOTH",
"338 739 OFFCURVE",
"326 730 OFFCURVE",
"326 725 CURVE SMOOTH",
"326 720 OFFCURVE",
"336 716 OFFCURVE",
"345 716 CURVE SMOOTH",
"346 716 OFFCURVE",
"347 716 OFFCURVE",
"348 716 CURVE SMOOTH",
"355 717 OFFCURVE",
"361 717 OFFCURVE",
"366 717 CURVE SMOOTH",
"413 717 OFFCURVE",
"433 689 OFFCURVE",
"433 650 CURVE SMOOTH",
"433 578 OFFCURVE",
"365 468 OFFCURVE",
"284 438 CURVE SMOOTH",
"263 431 OFFCURVE",
"243 427 OFFCURVE",
"223 427 CURVE SMOOTH",
"142 427 OFFCURVE",
"73 488 OFFCURVE",
"73 601 CURVE SMOOTH",
"73 640 OFFCURVE",
"81 684 OFFCURVE",
"99 734 CURVE SMOOTH",
"161 906 OFFCURVE",
"389 1083 OFFCURVE",
"531 1083 CURVE SMOOTH",
"599 1083 OFFCURVE",
"647 1042 OFFCURVE",
"647 940 CURVE SMOOTH",
"647 923 OFFCURVE",
"646 904 OFFCURVE",
"643 883 CURVE SMOOTH",
"620 720 OFFCURVE",
"484 378 OFFCURVE",
"398 245 CURVE",
"394 230 OFFCURVE",
"408 222 OFFCURVE",
"427 222 CURVE SMOOTH",
"447 222 OFFCURVE",
"473 232 OFFCURVE",
"481 252 CURVE SMOOTH",
"618 557 OFFCURVE",
"669 678 OFFCURVE",
"843 895 CURVE SMOOTH",
"881 943 OFFCURVE",
"921 969 OFFCURVE",
"950 969 CURVE SMOOTH",
"976 969 OFFCURVE",
"994 948 OFFCURVE",
"994 901 CURVE SMOOTH",
"994 892 OFFCURVE",
"993 882 OFFCURVE",
"992 871 CURVE SMOOTH",
"951 540 OFFCURVE",
"808 320 OFFCURVE",
"792 288 CURVE",
"790 285 OFFCURVE",
"789 281 OFFCURVE",
"789 278 CURVE SMOOTH",
"789 265 OFFCURVE",
"803 254 OFFCURVE",
"821 254 CURVE SMOOTH",
"841 254 OFFCURVE",
"866 267 OFFCURVE",
"883 308 CURVE SMOOTH",
"919 395 OFFCURVE",
"1091 659 OFFCURVE",
"1154 738 CURVE SMOOTH",
"1252 859 OFFCURVE",
"1329 918 OFFCURVE",
"1367 918 CURVE SMOOTH",
"1383 918 OFFCURVE",
"1392 907 OFFCURVE",
"1392 885 CURVE SMOOTH",
"1392 863 OFFCURVE",
"1383 831 OFFCURVE",
"1365 789 CURVE SMOOTH",
"1296 630 OFFCURVE",
"1206 461 OFFCURVE",
"1206 337 CURVE SMOOTH",
"1206 192 OFFCURVE",
"1326 177 OFFCURVE",
"1365 173 CURVE SMOOTH"
);
}
);
width = 1336;
}
);
note = M;
unicode = 004D;
},
{
glyphname = N;
lastChange = "2021-05-27 10:25:14 +0000";
layers = (
{
anchors = (
{
name = bottom;
position = "{646, 213}";
},
{
name = top;
position = "{864, 1072}";
}
);
layerId = "61E7180A-0B32-4047-B910-001D8BB62225";
paths = (
{
closed = 1;
nodes = (
"1043 140 OFFCURVE",
"1067 163 OFFCURVE",
"1067 177 CURVE SMOOTH",
"1067 183 OFFCURVE",
"1062 188 OFFCURVE",
"1052 188 CURVE SMOOTH",
"1046 188 OFFCURVE",
"1036 186 OFFCURVE",
"1024 180 CURVE SMOOTH",
"1005 171 OFFCURVE",
"989 167 OFFCURVE",
"975 167 CURVE SMOOTH",
"935 167 OFFCURVE",
"913 200 OFFCURVE",
"913 255 CURVE SMOOTH",
"913 304 OFFCURVE",
"929 371 OFFCURVE",
"965 449 CURVE SMOOTH",
"1064 666 OFFCURVE",
"1193 839 OFFCURVE",
"1194 959 CURVE SMOOTH",
"1196 1027 OFFCURVE",
"1151 1054 OFFCURVE",
"1095 1054 CURVE SMOOTH",
"1061 1054 OFFCURVE",
"1023 1044 OFFCURVE",
"988 1028 CURVE SMOOTH",
"910 992 OFFCURVE",
"824 910 OFFCURVE",
"749 819 CURVE SMOOTH",
"698 758 OFFCURVE",
"653 694 OFFCURVE",
"616 638 CURVE SMOOTH",
"605 619 OFFCURVE",
"585 583 OFFCURVE",
"585 588 CURVE SMOOTH",
"585 590 OFFCURVE",
"592 607 OFFCURVE",
"611 649 CURVE SMOOTH",
"646 724 OFFCURVE",
"686 805 OFFCURVE",
"694 883 CURVE SMOOTH",
"696 897 OFFCURVE",
"697 910 OFFCURVE",
"697 923 CURVE SMOOTH",
"697 1041 OFFCURVE",
"618 1085 OFFCURVE",
"522 1085 CURVE SMOOTH",
"451 1085 OFFCURVE",
"370 1061 OFFCURVE",
"303 1024 CURVE SMOOTH",
"188 961 OFFCURVE",
"75 859 OFFCURVE",
"27 744 CURVE SMOOTH",
"6 694 OFFCURVE",
"-3 648 OFFCURVE",
"-3 607 CURVE SMOOTH",
"-3 483 OFFCURVE",
"83 410 OFFCURVE",
"180 410 CURVE SMOOTH",
"348 410 OFFCURVE",
"463 563 OFFCURVE",
"463 660 CURVE SMOOTH",
"463 705 OFFCURVE",
"438 738 OFFCURVE",
"383 738 CURVE SMOOTH",
"369 738 OFFCURVE",
"355 736 OFFCURVE",
"338 732 CURVE SMOOTH",
"333 731 OFFCURVE",
"328 726 OFFCURVE",
"328 721 CURVE SMOOTH",
"328 718 OFFCURVE",
"330 716 OFFCURVE",
"337 716 CURVE SMOOTH",
"338 716 OFFCURVE",
"339 716 OFFCURVE",
"340 716 CURVE SMOOTH",
"346 717 OFFCURVE",
"352 717 OFFCURVE",
"357 717 CURVE SMOOTH",
"405 717 OFFCURVE",
"425 690 OFFCURVE",
"425 651 CURVE SMOOTH",
"425 566 OFFCURVE",
"323 429 OFFCURVE",
"182 429 CURVE SMOOTH",
"99 429 OFFCURVE",
"57 493 OFFCURVE",
"57 580 CURVE SMOOTH",
"57 703 OFFCURVE",
"141 874 OFFCURVE",
"314 981 CURVE SMOOTH",
"386 1026 OFFCURVE",
"463 1055 OFFCURVE",
"524 1055 CURVE SMOOTH",
"592 1055 OFFCURVE",
"640 1019 OFFCURVE",
"640 926 CURVE SMOOTH",
"640 902 OFFCURVE",
"637 875 OFFCURVE",
"630 844 CURVE SMOOTH",
"582 631 OFFCURVE",
"425 318 OFFCURVE",
"375 245 CURVE",
"371 230 OFFCURVE",
"385 223 OFFCURVE",
"403 223 CURVE SMOOTH",
"423 223 OFFCURVE",
"449 233 OFFCURVE",
"458 252 CURVE SMOOTH",
"524 389 OFFCURVE",
"627 630 OFFCURVE",
"769 803 CURVE SMOOTH",
"840 887 OFFCURVE",
"918 950 OFFCURVE",
"992 985 CURVE SMOOTH",
"1021 999 OFFCURVE",
"1048 1007 OFFCURVE",
"1070 1007 CURVE SMOOTH",
"1097 1007 OFFCURVE",
"1116 994 OFFCURVE",
"1116 963 CURVE SMOOTH",
"1116 958 OFFCURVE",
"1116 953 OFFCURVE",
"1115 947 CURVE SMOOTH",
"1099 844 OFFCURVE",
"914 505 OFFCURVE",
"879 401 CURVE SMOOTH",
"863 354 OFFCURVE",
"855 313 OFFCURVE",
"855 279 CURVE SMOOTH",
"855 193 OFFCURVE",
"904 145 OFFCURVE",
"1001 141 CURVE SMOOTH"
);
}
);
width = 1044;
}
);
note = N;
unicode = 004E;
},
{
glyphname = O;
lastChange = "2021-05-27 10:25:14 +0000";
layers = (
{
anchors = (
{
name = bottom;
position = "{232, 240}";
},
{
name = center;
position = "{365, 497}";
},
{
name = ogonek;
position = "{232, 240}";
},
{
name = top;
position = "{532, 1057}";
},
{
name = topleft;
position = "{20, 994}";
},
{
name = topright;
position = "{678, 933}";
}
);
layerId = "61E7180A-0B32-4047-B910-001D8BB62225";
paths = (
{
closed = 1;
nodes = (
"502 227 OFFCURVE",
"682 414 OFFCURVE",
"736 579 CURVE SMOOTH",
"748 618 OFFCURVE",
"756 653 OFFCURVE",
"758 686 CURVE",
"823 726 OFFCURVE",
"871 779 OFFCURVE",
"909 838 CURVE SMOOTH",
"912 844 OFFCURVE",
"913 848 OFFCURVE",
"913 851 CURVE SMOOTH",
"913 856 OFFCURVE",
"911 858 OFFCURVE",
"907 858 CURVE SMOOTH",
"902 858 OFFCURVE",
"897 854 OFFCURVE",
"894 848 CURVE SMOOTH",
"868 799 OFFCURVE",
"817 758 OFFCURVE",
"762 722 CURVE",
"772 961 OFFCURVE",
"598 1065 OFFCURVE",
"419 1065 CURVE SMOOTH",
"237 1065 OFFCURVE",
"50 957 OFFCURVE",
"50 774 CURVE SMOOTH",
"50 765 OFFCURVE",
"50 756 OFFCURVE",
"51 746 CURVE SMOOTH",
"56 691 OFFCURVE",
"86 650 OFFCURVE",
"129 620 CURVE",
"109 568 OFFCURVE",
"99 517 OFFCURVE",
"99 469 CURVE SMOOTH",
"99 357 OFFCURVE",
"152 265 OFFCURVE",
"232 240 CURVE SMOOTH",
"260 231 OFFCURVE",
"288 227 OFFCURVE",
"316 227 CURVE SMOOTH"
);
},
{
closed = 1;
nodes = (
"294 251 OFFCURVE",
"265 258 OFFCURVE",
"236 272 CURVE SMOOTH",
"178 301 OFFCURVE",
"153 364 OFFCURVE",
"153 437 CURVE SMOOTH",
"153 487 OFFCURVE",
"164 541 OFFCURVE",
"184 592 CURVE",
"230 574 OFFCURVE",
"286 565 OFFCURVE",
"346 565 CURVE SMOOTH",
"458 565 OFFCURVE",
"587 596 OFFCURVE",
"695 654 CURVE",
"693 631 OFFCURVE",
"686 606 OFFCURVE",
"678 583 CURVE SMOOTH",
"620 418 OFFCURVE",
"472 251 OFFCURVE",
"324 251 CURVE SMOOTH"
);
},
{
closed = 1;
nodes = (
"291 598 OFFCURVE",
"238 608 OFFCURVE",
"198 627 CURVE",
"237 715 OFFCURVE",
"375 919 OFFCURVE",
"495 919 CURVE SMOOTH",
"505 919 OFFCURVE",
"514 918 OFFCURVE",
"524 915 CURVE SMOOTH",
"532 912 OFFCURVE",
"540 916 OFFCURVE",
"540 920 CURVE SMOOTH",
"540 923 OFFCURVE",
"537 926 OFFCURVE",
"532 929 CURVE SMOOTH",
"510 942 OFFCURVE",
"487 947 OFFCURVE",
"464 947 CURVE SMOOTH",
"331 947 OFFCURVE",
"194 762 OFFCURVE",
"147 662 CURVE",
"125 681 OFFCURVE",
"111 706 OFFCURVE",
"107 738 CURVE SMOOTH",
"105 751 OFFCURVE",
"104 764 OFFCURVE",
"104 777 CURVE SMOOTH",
"104 942 OFFCURVE",
"267 1048 OFFCURVE",
"423 1048 CURVE SMOOTH",
"566 1048 OFFCURVE",
"704 958 OFFCURVE",
"704 740 CURVE SMOOTH",
"704 724 OFFCURVE",
"704 707 OFFCURVE",
"702 690 CURVE",
"593 632 OFFCURVE",
"461 598 OFFCURVE",
"349 598 CURVE SMOOTH"
);
}
);
width = 730;
}
);
note = O;
unicode = 004F;
},
{
glyphname = P;
lastChange = "2021-05-27 10:25:14 +0000";
layers = (
{
layerId = "61E7180A-0B32-4047-B910-001D8BB62225";
paths = (
{
closed = 1;
nodes = (
"231 249 OFFCURVE",
"318 286 OFFCURVE",
"393 355 CURVE SMOOTH",
"449 410 OFFCURVE",
"498 473 OFFCURVE",
"543 537 CURVE",
"552 536 OFFCURVE",
"562 536 OFFCURVE",
"572 536 CURVE SMOOTH",
"626 536 OFFCURVE",
"700 544 OFFCURVE",
"768 561 CURVE SMOOTH",
"908 595 OFFCURVE",
"1075 722 OFFCURVE",
"1075 846 CURVE SMOOTH",
"1075 899 OFFCURVE",
"1045 951 OFFCURVE",
"969 996 CURVE SMOOTH",
"934 1017 OFFCURVE",
"895 1033 OFFCURVE",
"852 1044 CURVE",
"870 1061 OFFCURVE",
"887 1075 OFFCURVE",
"898 1081 CURVE SMOOTH",
"909 1088 OFFCURVE",
"914 1094 OFFCURVE",
"914 1098 CURVE SMOOTH",
"914 1101 OFFCURVE",
"912 1102 OFFCURVE",
"908 1102 CURVE SMOOTH",
"903 1102 OFFCURVE",
"896 1100 OFFCURVE",
"887 1096 CURVE SMOOTH",
"858 1085 OFFCURVE",
"835 1072 OFFCURVE",
"812 1055 CURVE",
"757 1066 OFFCURVE",
"699 1071 OFFCURVE",
"642 1071 CURVE SMOOTH",
"575 1071 OFFCURVE",
"510 1065 OFFCURVE",
"450 1056 CURVE SMOOTH",
"304 1034 OFFCURVE",
"43 956 OFFCURVE",
"43 770 CURVE SMOOTH",
"43 673 OFFCURVE",
"117 624 OFFCURVE",
"196 624 CURVE SMOOTH",
"272 624 OFFCURVE",
"356 676 OFFCURVE",
"358 765 CURVE SMOOTH",
"358 772 OFFCURVE",
"355 776 OFFCURVE",
"352 776 CURVE SMOOTH",
"349 776 OFFCURVE",
"345 773 OFFCURVE",
"344 766 CURVE",
"321 700 OFFCURVE",
"259 645 OFFCURVE",
"198 645 CURVE SMOOTH",
"142 645 OFFCURVE",
"93 689 OFFCURVE",
"93 751 CURVE SMOOTH",
"93 758 OFFCURVE",
"94 765 OFFCURVE",
"95 772 CURVE SMOOTH",
"119 922 OFFCURVE",
"328 1000 OFFCURVE",
"454 1022 CURVE SMOOTH",
"505 1032 OFFCURVE",
"573 1039 OFFCURVE",
"644 1039 CURVE SMOOTH",
"691 1039 OFFCURVE",
"739 1036 OFFCURVE",
"785 1029 CURVE",
"766 1012 OFFCURVE",
"750 993 OFFCURVE",
"732 973 CURVE SMOOTH",
"561 781 OFFCURVE",
"485 513 OFFCURVE",
"352 385 CURVE SMOOTH",
"288 322 OFFCURVE",
"218 280 OFFCURVE",
"134 280 CURVE SMOOTH",
"67 280 OFFCURVE",
"38 316 OFFCURVE",
"38 354 CURVE SMOOTH",
"38 393 OFFCURVE",
"69 432 OFFCURVE",
"126 432 CURVE SMOOTH",
"143 432 OFFCURVE",
"162 429 OFFCURVE",
"184 421 CURVE SMOOTH",
"188 419 OFFCURVE",
"191 419 OFFCURVE",
"194 419 CURVE SMOOTH",
"198 419 OFFCURVE",
"200 421 OFFCURVE",
"200 423 CURVE SMOOTH",
"200 426 OFFCURVE",
"197 431 OFFCURVE",
"188 434 CURVE SMOOTH",
"156 445 OFFCURVE",
"127 449 OFFCURVE",
"102 449 CURVE SMOOTH",
"20 449 OFFCURVE",
"-26 401 OFFCURVE",
"-26 352 CURVE SMOOTH",
"-26 307 OFFCURVE",
"12 262 OFFCURVE",
"96 252 CURVE SMOOTH",
"110 250 OFFCURVE",
"125 249 OFFCURVE",
"139 249 CURVE SMOOTH"
);
},
{
closed = 1;
nodes = (
"654 709 OFFCURVE",
"730 876 OFFCURVE",
"833 1020 CURVE",
"876 1010 OFFCURVE",
"915 996 OFFCURVE",
"946 976 CURVE SMOOTH",
"992 945 OFFCURVE",
"1012 905 OFFCURVE",
"1012 863 CURVE SMOOTH",
"1012 757 OFFCURVE",
"891 634 OFFCURVE",
"736 586 CURVE SMOOTH",
"673 567 OFFCURVE",
"608 557 OFFCURVE",
"557 559 CURVE"
);
}
);
width = 895;
}
);
note = P;
unicode = 0050;
},
{
glyphname = Q;
lastChange = "2021-05-27 10:25:14 +0000";
layers = (
{
layerId = "61E7180A-0B32-4047-B910-001D8BB62225";
paths = (
{
closed = 1;
nodes = (
"381 225 OFFCURVE",
"450 248 OFFCURVE",
"508 285 CURVE SMOOTH",
"676 397 OFFCURVE",
"774 591 OFFCURVE",
"774 759 CURVE SMOOTH",
"774 933 OFFCURVE",
"670 1079 OFFCURVE",
"432 1079 CURVE SMOOTH",
"396 1079 OFFCURVE",
"356 1075 OFFCURVE",
"314 1068 CURVE SMOOTH",
"182 1046 OFFCURVE",
"84 947 OFFCURVE",
"84 832 CURVE SMOOTH",
"84 801 OFFCURVE",
"91 769 OFFCURVE",
"107 737 CURVE SMOOTH",
"113 726 OFFCURVE",
"119 721 OFFCURVE",
"124 721 CURVE SMOOTH",
"129 721 OFFCURVE",
"132 726 OFFCURVE",
"132 733 CURVE SMOOTH",
"132 736 OFFCURVE",
"132 739 OFFCURVE",
"131 742 CURVE SMOOTH",
"124 770 OFFCURVE",
"121 798 OFFCURVE",
"121 823 CURVE SMOOTH",
"121 941 OFFCURVE",
"189 1028 OFFCURVE",
"318 1045 CURVE SMOOTH",
"342 1048 OFFCURVE",
"365 1050 OFFCURVE",
"386 1050 CURVE SMOOTH",
"603 1050 OFFCURVE",
"720 897 OFFCURVE",
"720 720 CURVE SMOOTH",
"720 582 OFFCURVE",
"651 430 OFFCURVE",
"505 320 CURVE SMOOTH",
"443 273 OFFCURVE",
"374 245 OFFCURVE",
"314 245 CURVE SMOOTH",
"245 245 OFFCURVE",
"187 281 OFFCURVE",
"162 369 CURVE SMOOTH",
"156 392 OFFCURVE",
"153 417 OFFCURVE",
"153 442 CURVE SMOOTH",
"153 651 OFFCURVE",
"352 919 OFFCURVE",
"494 919 CURVE SMOOTH",
"505 919 OFFCURVE",
"515 918 OFFCURVE",
"524 915 CURVE SMOOTH",
"532 912 OFFCURVE",
"540 916 OFFCURVE",
"540 920 CURVE SMOOTH",
"540 923 OFFCURVE",
"537 926 OFFCURVE",
"532 929 CURVE SMOOTH",
"509 942 OFFCURVE",
"485 948 OFFCURVE",
"459 948 CURVE SMOOTH",
"295 948 OFFCURVE",
"96 703 OFFCURVE",
"96 479 CURVE SMOOTH",
"96 437 OFFCURVE",
"103 395 OFFCURVE",
"119 356 CURVE SMOOTH",
"156 262 OFFCURVE",
"233 225 OFFCURVE",
"316 225 CURVE SMOOTH"
);
},
{
closed = 1;
nodes = (
"789 -83 OFFCURVE",
"843 -34 OFFCURVE",
"843 22 CURVE SMOOTH",
"843 86 OFFCURVE",
"772 160 OFFCURVE",
"647 180 CURVE SMOOTH",
"638 181 OFFCURVE",
"634 177 OFFCURVE",
"634 173 CURVE SMOOTH",
"634 168 OFFCURVE",
"639 161 OFFCURVE",
"650 159 CURVE SMOOTH",
"754 143 OFFCURVE",
"815 71 OFFCURVE",
"815 14 CURVE SMOOTH",
"815 -26 OFFCURVE",
"785 -59 OFFCURVE",
"718 -59 CURVE SMOOTH",
"704 -59 OFFCURVE",
"687 -57 OFFCURVE",
"669 -54 CURVE SMOOTH",
"367 5 OFFCURVE",
"291 226 OFFCURVE",
"111 226 CURVE SMOOTH",
"65 226 OFFCURVE",
"29 179 OFFCURVE",
"29 152 CURVE SMOOTH",
"29 143 OFFCURVE",
"33 137 OFFCURVE",
"38 137 CURVE SMOOTH",
"41 137 OFFCURVE",
"45 140 OFFCURVE",
"46 149 CURVE SMOOTH",
"48 178 OFFCURVE",
"87 196 OFFCURVE",
"111 196 CURVE SMOOTH",
"268 196 OFFCURVE",
"315 -83 OFFCURVE",
"669 -83 CURVE SMOOTH"
);
}
);
width = 756;
}
);
note = Q;
unicode = 0051;
},
{
glyphname = R;
lastChange = "2021-05-27 10:25:14 +0000";
layers = (
{
anchors = (
{
name = bottom;
position = "{545, 247}";
},
{
name = top;
position = "{876, 1076}";
}
);
layerId = "61E7180A-0B32-4047-B910-001D8BB62225";
paths = (
{
closed = 1;
nodes = (
"932 246 OFFCURVE",
"969 263 OFFCURVE",
"1000 296 CURVE SMOOTH",
"1043 344 OFFCURVE",
"1088 446 OFFCURVE",
"1101 476 CURVE SMOOTH",
"1103 481 OFFCURVE",
"1104 484 OFFCURVE",
"1104 486 CURVE SMOOTH",
"1104 489 OFFCURVE",
"1103 490 OFFCURVE",
"1101 490 CURVE SMOOTH",
"1096 490 OFFCURVE",
"1089 485 OFFCURVE",
"1084 476 CURVE SMOOTH",
"1073 453 OFFCURVE",
"1036 374 OFFCURVE",
"988 326 CURVE SMOOTH",
"961 299 OFFCURVE",
"936 288 OFFCURVE",
"914 288 CURVE SMOOTH",
"878 288 OFFCURVE",
"847 320 OFFCURVE",
"815 367 CURVE SMOOTH",
"740 481 OFFCURVE",
"709 638 OFFCURVE",
"704 666 CURVE",
"726 667 OFFCURVE",
"757 670 OFFCURVE",
"796 675 CURVE SMOOTH",
"994 708 OFFCURVE",
"1117 804 OFFCURVE",
"1117 892 CURVE SMOOTH",
"1117 946 OFFCURVE",
"1070 996 OFFCURVE",
"966 1026 CURVE SMOOTH",
"935 1034 OFFCURVE",
"903 1040 OFFCURVE",
"867 1045 CURVE",
"869 1053 OFFCURVE",
"871 1061 OFFCURVE",
"871 1067 CURVE SMOOTH",
"871 1074 OFFCURVE",
"869 1078 OFFCURVE",
"864 1078 CURVE SMOOTH",
"858 1078 OFFCURVE",
"847 1070 OFFCURVE",
"829 1051 CURVE",
"777 1058 OFFCURVE",
"724 1062 OFFCURVE",
"668 1062 CURVE SMOOTH",
"598 1062 OFFCURVE",
"524 1056 OFFCURVE",
"446 1045 CURVE SMOOTH",
"211 1011 OFFCURVE",
"94 877 OFFCURVE",
"94 765 CURVE SMOOTH",
"94 669 OFFCURVE",
"166 618 OFFCURVE",
"244 618 CURVE SMOOTH",
"291 618 OFFCURVE",
"340 637 OFFCURVE",
"377 675 CURVE SMOOTH",
"397 697 OFFCURVE",
"410 725 OFFCURVE",
"415 757 CURVE SMOOTH",
"416 764 OFFCURVE",
"412 772 OFFCURVE",
"408 772 CURVE SMOOTH",
"406 772 OFFCURVE",
"403 768 OFFCURVE",
"402 758 CURVE SMOOTH",
"401 746 OFFCURVE",
"389 721 OFFCURVE",
"364 694 CURVE SMOOTH",
"333 661 OFFCURVE",
"293 646 OFFCURVE",
"256 646 CURVE SMOOTH",
"197 646 OFFCURVE",
"144 685 OFFCURVE",
"144 753 CURVE SMOOTH",
"144 763 OFFCURVE",
"145 773 OFFCURVE",
"147 784 CURVE SMOOTH",
"165 871 OFFCURVE",
"263 967 OFFCURVE",
"433 1004 CURVE SMOOTH",
"526 1023 OFFCURVE",
"613 1031 OFFCURVE",
"695 1031 CURVE SMOOTH",
"733 1031 OFFCURVE",
"771 1030 OFFCURVE",
"807 1026 CURVE",
"725 935 OFFCURVE",
"650 787 OFFCURVE",
"570 643 CURVE SMOOTH",
"464 458 OFFCURVE",
"355 280 OFFCURVE",
"185 280 CURVE SMOOTH",
"118 280 OFFCURVE",
"87 318 OFFCURVE",
"87 356 CURVE SMOOTH",
"87 395 OFFCURVE",
"117 434 OFFCURVE",
"173 434 CURVE SMOOTH",
"191 434 OFFCURVE",
"210 430 OFFCURVE",
"232 422 CURVE SMOOTH",
"235 421 OFFCURVE",
"238 421 OFFCURVE",
"240 421 CURVE SMOOTH",
"245 421 OFFCURVE",
"248 422 OFFCURVE",
"248 425 CURVE SMOOTH",
"248 428 OFFCURVE",
"245 431 OFFCURVE",
"237 434 CURVE SMOOTH",
"203 446 OFFCURVE",
"173 451 OFFCURVE",
"146 451 CURVE SMOOTH",
"65 451 OFFCURVE",
"19 403 OFFCURVE",
"19 354 CURVE SMOOTH",
"19 308 OFFCURVE",
"59 262 OFFCURVE",
"147 252 CURVE SMOOTH",
"163 250 OFFCURVE",
"178 249 OFFCURVE",
"194 249 CURVE SMOOTH",
"293 249 OFFCURVE",
"387 293 OFFCURVE",
"464 377 CURVE SMOOTH",
"545 466 OFFCURVE",
"592 559 OFFCURVE",
"641 654 CURVE",
"651 590 OFFCURVE",
"694 393 OFFCURVE",
"787 297 CURVE SMOOTH",
"819 263 OFFCURVE",
"857 246 OFFCURVE",
"894 246 CURVE SMOOTH"
);
},
{
closed = 1;
nodes = (
"720 809 OFFCURVE",
"791 910 OFFCURVE",
"855 1020 CURVE",
"891 1014 OFFCURVE",
"923 1009 OFFCURVE",
"953 1001 CURVE SMOOTH",
"1017 982 OFFCURVE",
"1044 947 OFFCURVE",
"1044 907 CURVE SMOOTH",
"1044 825 OFFCURVE",
"928 724 OFFCURVE",
"788 706 CURVE SMOOTH",
"740 699 OFFCURVE",
"701 699 OFFCURVE",
"662 693 CURVE"
);
}
);
width = 1029;
}
);
note = R;
unicode = 0052;
},
{
glyphname = S;
lastChange = "2021-05-27 10:25:14 +0000";
layers = (
{
anchors = (
{
name = bottom;
position = "{348, 205}";
},
{
name = top;
position = "{714, 1108}";
}
);
layerId = "61E7180A-0B32-4047-B910-001D8BB62225";
paths = (
{
closed = 1;
nodes = (
"472 196 OFFCURVE",
"585 224 OFFCURVE",
"670 275 CURVE SMOOTH",
"779 340 OFFCURVE",
"874 441 OFFCURVE",
"874 538 CURVE SMOOTH",
"874 593 OFFCURVE",
"844 646 OFFCURVE",
"771 691 CURVE SMOOTH",
"695 738 OFFCURVE",
"594 773 OFFCURVE",
"533 811 CURVE SMOOTH",
"481 843 OFFCURVE",
"459 879 OFFCURVE",
"459 914 CURVE SMOOTH",
"459 970 OFFCURVE",
"514 1023 OFFCURVE",
"587 1049 CURVE SMOOTH",
"647 1070 OFFCURVE",
"698 1079 OFFCURVE",
"741 1079 CURVE SMOOTH",
"853 1079 OFFCURVE",
"904 1018 OFFCURVE",
"904 967 CURVE SMOOTH",
"904 933 OFFCURVE",
"883 905 OFFCURVE",
"843 900 CURVE SMOOTH",
"825 898 OFFCURVE",
"817 891 OFFCURVE",
"817 886 CURVE SMOOTH",
"817 882 OFFCURVE",
"822 879 OFFCURVE",
"829 879 CURVE SMOOTH",
"832 879 OFFCURVE",
"835 879 OFFCURVE",
"838 880 CURVE SMOOTH",
"867 888 OFFCURVE",
"888 899 OFFCURVE",
"905 913 CURVE SMOOTH",
"929 933 OFFCURVE",
"941 958 OFFCURVE",
"941 983 CURVE SMOOTH",
"941 1022 OFFCURVE",
"915 1060 OFFCURVE",
"871 1081 CURVE SMOOTH",
"838 1098 OFFCURVE",
"788 1106 OFFCURVE",
"734 1106 CURVE SMOOTH",
"671 1106 OFFCURVE",
"603 1095 OFFCURVE",
"549 1076 CURVE SMOOTH",
"455 1043 OFFCURVE",
"384 970 OFFCURVE",
"384 896 CURVE SMOOTH",
"384 854 OFFCURVE",
"407 812 OFFCURVE",
"461 776 CURVE SMOOTH",
"536 726 OFFCURVE",
"670 690 OFFCURVE",
"733 639 CURVE SMOOTH",
"775 605 OFFCURVE",
"794 563 OFFCURVE",
"794 518 CURVE SMOOTH",
"794 432 OFFCURVE",
"725 338 OFFCURVE",
"614 280 CURVE SMOOTH",
"542 243 OFFCURVE",
"451 222 OFFCURVE",
"362 222 CURVE SMOOTH",
"203 222 OFFCURVE",
"55 289 OFFCURVE",
"55 447 CURVE SMOOTH",
"55 513 OFFCURVE",
"74 581 OFFCURVE",
"111 638 CURVE SMOOTH",
"129 667 OFFCURVE",
"153 693 OFFCURVE",
"180 714 CURVE SMOOTH",
"191 722 OFFCURVE",
"195 727 OFFCURVE",
"195 730 CURVE SMOOTH",
"195 732 OFFCURVE",
"193 733 OFFCURVE",
"189 733 CURVE SMOOTH",
"183 733 OFFCURVE",
"176 731 OFFCURVE",
"170 729 CURVE SMOOTH",
"71 682 OFFCURVE",
"-7 545 OFFCURVE",
"-3 450 CURVE SMOOTH",
"8 274 OFFCURVE",
"180 196 OFFCURVE",
"363 196 CURVE SMOOTH"
);
}
);
width = 906;
}
);
note = S;
unicode = 0053;
},
{
glyphname = T;
lastChange = "2021-05-27 10:25:14 +0000";
layers = (
{
anchors = (
{
name = bottom;
position = "{376, 201}";
},
{
name = center;
position = "{462, 497}";
},
{
name = top;
position = "{1132, 1013}";
}
);
layerId = "61E7180A-0B32-4047-B910-001D8BB62225";
paths = (
{
closed = 1;
nodes = (
"543 194 OFFCURVE",
"684 241 OFFCURVE",
"764 332 CURVE SMOOTH",
"911 501 OFFCURVE",
"919 721 OFFCURVE",
"1040 913 CURVE",
"1061 903 OFFCURVE",
"1144 867 OFFCURVE",
"1293 848 CURVE SMOOTH",
"1302 847 OFFCURVE",
"1310 846 OFFCURVE",
"1318 846 CURVE SMOOTH",
"1369 846 OFFCURVE",
"1407 868 OFFCURVE",
"1407 900 CURVE SMOOTH",
"1407 906 OFFCURVE",
"1404 922 OFFCURVE",
"1398 922 CURVE SMOOTH",
"1388 922 OFFCURVE",
"1386 915 OFFCURVE",
"1386 907 CURVE SMOOTH",
"1386 885 OFFCURVE",
"1362 877 OFFCURVE",
"1325 877 CURVE SMOOTH",
"1247 877 OFFCURVE",
"1115 915 OFFCURVE",
"1056 934 CURVE",
"1068 947 OFFCURVE",
"1099 981 OFFCURVE",
"1108 974 CURVE",
"1111 973 OFFCURVE",
"1114 972 OFFCURVE",
"1116 972 CURVE SMOOTH",
"1124 972 OFFCURVE",
"1128 978 OFFCURVE",
"1128 985 CURVE SMOOTH",
"1128 994 OFFCURVE",
"1121 1005 OFFCURVE",
"1108 1005 CURVE SMOOTH",
"1105 1005 OFFCURVE",
"1103 1005 OFFCURVE",
"1100 1004 CURVE",
"1101 1004 LINE SMOOTH",
"1122 1004 OFFCURVE",
"1036 953 OFFCURVE",
"1028 942 CURVE",
"963 959 OFFCURVE",
"820 1020 OFFCURVE",
"699 1029 CURVE SMOOTH",
"682 1031 OFFCURVE",
"666 1031 OFFCURVE",
"651 1031 CURVE SMOOTH",
"443 1031 OFFCURVE",
"341 899 OFFCURVE",
"341 783 CURVE SMOOTH",
"341 713 OFFCURVE",
"378 648 OFFCURVE",
"452 622 CURVE SMOOTH",
"469 616 OFFCURVE",
"488 613 OFFCURVE",
"506 613 CURVE SMOOTH",
"585 613 OFFCURVE",
"663 667 OFFCURVE",
"674 754 CURVE",
"674 763 OFFCURVE",
"670 768 OFFCURVE",
"664 768 CURVE SMOOTH",
"661 768 OFFCURVE",
"657 766 OFFCURVE",
"654 762 CURVE",
"654 761 LINE SMOOTH",
"654 737 OFFCURVE",
"603 640 OFFCURVE",
"508 640 CURVE SMOOTH",
"493 640 OFFCURVE",
"478 642 OFFCURVE",
"461 647 CURVE SMOOTH",
"413 663 OFFCURVE",
"390 701 OFFCURVE",
"390 746 CURVE SMOOTH",
"390 849 OFFCURVE",
"507 988 OFFCURVE",
"706 978 CURVE SMOOTH",
"815 973 OFFCURVE",
"906 955 OFFCURVE",
"1012 923 CURVE",
"969 867 OFFCURVE",
"838 512 OFFCURVE",
"716 381 CURVE SMOOTH",
"639 296 OFFCURVE",
"532 233 OFFCURVE",
"374 229 CURVE SMOOTH",
"233 226 OFFCURVE",
"65 318 OFFCURVE",
"65 492 CURVE SMOOTH",
"65 508 OFFCURVE",
"67 525 OFFCURVE",
"70 543 CURVE SMOOTH",
"86 638 OFFCURVE",
"157 662 OFFCURVE",
"173 682 CURVE",
"175 693 OFFCURVE",
"169 698 OFFCURVE",
"159 698 CURVE SMOOTH",
"132 698 OFFCURVE",
"71 658 OFFCURVE",
"50 590 CURVE SMOOTH",
"37 549 OFFCURVE",
"31 511 OFFCURVE",
"31 477 CURVE SMOOTH",
"31 286 OFFCURVE",
"215 194 OFFCURVE",
"406 194 CURVE SMOOTH"
);
}
);
width = 923;
}
);
note = T;
rightKerningGroup = T;
unicode = 0054;
},
{
glyphname = U;
lastChange = "2021-05-27 10:25:14 +0000";
layers = (
{
anchors = (
{
name = bottom;
position = "{567, 250}";
},
{
name = ogonek;
position = "{879, 229}";
},
{
name = top;
position = "{894, 958}";
},
{
name = topright;
position = "{957, 758}";
}
);
layerId = "61E7180A-0B32-4047-B910-001D8BB62225";
paths = (
{
closed = 1;
nodes = (
"920 206 OFFCURVE",
"936 216 OFFCURVE",
"936 224 CURVE SMOOTH",
"936 228 OFFCURVE",
"931 232 OFFCURVE",
"917 232 CURVE SMOOTH",
"913 232 OFFCURVE",
"911 232 OFFCURVE",
"906 232 CURVE SMOOTH",
"880 232 OFFCURVE",
"870 262 OFFCURVE",
"870 306 CURVE SMOOTH",
"870 350 OFFCURVE",
"881 407 OFFCURVE",
"895 461 CURVE SMOOTH",
"914 532 OFFCURVE",
"942 595 OFFCURVE",
"955 623 CURVE SMOOTH",
"975 668 OFFCURVE",
"1010 717 OFFCURVE",
"1010 749 CURVE SMOOTH",
"1010 762 OFFCURVE",
"1005 772 OFFCURVE",
"992 779 CURVE",
"980 779 OFFCURVE",
"957 765 OFFCURVE",
"935 726 CURVE SMOOTH",
"894 651 OFFCURVE",
"833 509 OFFCURVE",
"766 413 CURVE SMOOTH",
"701 319 OFFCURVE",
"639 275 OFFCURVE",
"596 275 CURVE SMOOTH",
"562 275 OFFCURVE",
"540 304 OFFCURVE",
"540 359 CURVE SMOOTH",
"540 505 OFFCURVE",
"687 723 OFFCURVE",
"721 875 CURVE SMOOTH",
"728 906 OFFCURVE",
"732 937 OFFCURVE",
"732 965 CURVE SMOOTH",
"732 1038 OFFCURVE",
"706 1099 OFFCURVE",
"635 1128 CURVE SMOOTH",
"604 1142 OFFCURVE",
"568 1149 OFFCURVE",
"530 1149 CURVE SMOOTH",
"460 1149 OFFCURVE",
"382 1126 OFFCURVE",
"308 1084 CURVE SMOOTH",
"83 962 OFFCURVE",
"-4 791 OFFCURVE",
"-4 655 CURVE SMOOTH",
"-4 528 OFFCURVE",
"72 431 OFFCURVE",
"185 431 CURVE SMOOTH",
"215 431 OFFCURVE",
"247 438 OFFCURVE",
"280 452 CURVE SMOOTH",
"402 503 OFFCURVE",
"466 624 OFFCURVE",
"466 710 CURVE SMOOTH",
"466 763 OFFCURVE",
"442 802 OFFCURVE",
"390 802 CURVE SMOOTH",
"372 802 OFFCURVE",
"352 798 OFFCURVE",
"328 788 CURVE SMOOTH",
"323 786 OFFCURVE",
"306 775 OFFCURVE",
"306 770 CURVE SMOOTH",
"306 768 OFFCURVE",
"307 767 OFFCURVE",
"311 767 CURVE SMOOTH",
"315 767 OFFCURVE",
"322 769 OFFCURVE",
"332 771 CURVE SMOOTH",
"345 774 OFFCURVE",
"357 775 OFFCURVE",
"368 775 CURVE SMOOTH",
"417 775 OFFCURVE",
"437 745 OFFCURVE",
"437 704 CURVE SMOOTH",
"437 625 OFFCURVE",
"365 505 OFFCURVE",
"281 474 CURVE SMOOTH",
"253 463 OFFCURVE",
"226 458 OFFCURVE",
"202 458 CURVE SMOOTH",
"101 458 OFFCURVE",
"38 544 OFFCURVE",
"38 656 CURVE SMOOTH",
"38 782 OFFCURVE",
"116 940 OFFCURVE",
"306 1052 CURVE SMOOTH",
"381 1095 OFFCURVE",
"464 1122 OFFCURVE",
"536 1122 CURVE SMOOTH",
"575 1122 OFFCURVE",
"611 1114 OFFCURVE",
"641 1096 CURVE SMOOTH",
"668 1080 OFFCURVE",
"679 1044 OFFCURVE",
"679 998 CURVE SMOOTH",
"679 963 OFFCURVE",
"672 921 OFFCURVE",
"662 879 CURVE SMOOTH",
"626 743 OFFCURVE",
"483 509 OFFCURVE",
"483 368 CURVE SMOOTH",
"483 291 OFFCURVE",
"523 249 OFFCURVE",
"578 249 CURVE SMOOTH",
"635 249 OFFCURVE",
"709 292 OFFCURVE",
"781 385 CURVE SMOOTH",
"807 417 OFFCURVE",
"827 449 OFFCURVE",
"843 474 CURVE",
"836 440 OFFCURVE",
"829 394 OFFCURVE",
"829 349 CURVE SMOOTH",
"829 282 OFFCURVE",
"845 219 OFFCURVE",
"902 209 CURVE SMOOTH"
);
}
);
width = 947;
}
);
leftKerningGroup = U;
note = U;
unicode = 0055;
},
{
glyphname = V;
lastChange = "2021-05-27 10:25:14 +0000";
layers = (
{
layerId = "61E7180A-0B32-4047-B910-001D8BB62225";
paths = (
{
closed = 1;
nodes = (
"685 192 OFFCURVE",
"945 436 OFFCURVE",
"1037 678 CURVE SMOOTH",
"1050 712 OFFCURVE",
"1056 743 OFFCURVE",
"1056 769 CURVE SMOOTH",
"1056 856 OFFCURVE",
"995 899 OFFCURVE",
"957 910 CURVE SMOOTH",
"952 911 OFFCURVE",
"947 912 OFFCURVE",
"944 912 CURVE SMOOTH",
"933 912 OFFCURVE",
"927 907 OFFCURVE",
"927 902 CURVE SMOOTH",
"927 895 OFFCURVE",
"936 886 OFFCURVE",
"953 883 CURVE SMOOTH",
"976 879 OFFCURVE",
"992 883 OFFCURVE",
"1001 831 CURVE SMOOTH",
"1003 819 OFFCURVE",
"1004 808 OFFCURVE",
"1004 795 CURVE SMOOTH",
"1004 678 OFFCURVE",
"921 533 OFFCURVE",
"824 421 CURVE SMOOTH",
"800 392 OFFCURVE",
"642 223 OFFCURVE",
"574 223 CURVE SMOOTH",
"555 223 OFFCURVE",
"543 237 OFFCURVE",
"543 270 CURVE SMOOTH",
"543 281 OFFCURVE",
"544 293 OFFCURVE",
"547 308 CURVE SMOOTH",
"563 399 OFFCURVE",
"611 557 OFFCURVE",
"675 687 CURVE SMOOTH",
"716 770 OFFCURVE",
"747 866 OFFCURVE",
"747 947 CURVE SMOOTH",
"747 1022 OFFCURVE",
"720 1085 OFFCURVE",
"650 1116 CURVE SMOOTH",
"618 1130 OFFCURVE",
"581 1137 OFFCURVE",
"541 1137 CURVE SMOOTH",
"358 1137 OFFCURVE",
"112 998 OFFCURVE",
"23 795 CURVE SMOOTH",
"1 745 OFFCURVE",
"-8 698 OFFCURVE",
"-8 656 CURVE SMOOTH",
"-8 515 OFFCURVE",
"95 423 OFFCURVE",
"201 423 CURVE SMOOTH",
"327 423 OFFCURVE",
"493 556 OFFCURVE",
"493 683 CURVE SMOOTH",
"493 742 OFFCURVE",
"460 789 OFFCURVE",
"406 789 CURVE SMOOTH",
"390 789 OFFCURVE",
"372 785 OFFCURVE",
"352 776 CURVE SMOOTH",
"343 771 OFFCURVE",
"337 765 OFFCURVE",
"337 762 CURVE SMOOTH",
"337 760 OFFCURVE",
"339 759 OFFCURVE",
"342 759 CURVE SMOOTH",
"346 759 OFFCURVE",
"351 760 OFFCURVE",
"358 762 CURVE SMOOTH",
"369 766 OFFCURVE",
"379 767 OFFCURVE",
"388 767 CURVE SMOOTH",
"432 767 OFFCURVE",
"449 727 OFFCURVE",
"449 682 CURVE SMOOTH",
"449 571 OFFCURVE",
"330 449 OFFCURVE",
"217 449 CURVE SMOOTH",
"130 449 OFFCURVE",
"49 509 OFFCURVE",
"49 630 CURVE SMOOTH",
"49 668 OFFCURVE",
"57 712 OFFCURVE",
"75 762 CURVE SMOOTH",
"143 945 OFFCURVE",
"378 1111 OFFCURVE",
"550 1111 CURVE SMOOTH",
"589 1111 OFFCURVE",
"624 1103 OFFCURVE",
"654 1084 CURVE SMOOTH",
"679 1069 OFFCURVE",
"689 1036 OFFCURVE",
"689 995 CURVE SMOOTH",
"689 908 OFFCURVE",
"645 783 OFFCURVE",
"610 699 CURVE SMOOTH",
"526 501 OFFCURVE",
"485 361 OFFCURVE",
"485 279 CURVE SMOOTH",
"485 227 OFFCURVE",
"501 199 OFFCURVE",
"533 193 CURVE SMOOTH",
"538 192 OFFCURVE",
"544 192 OFFCURVE",
"550 192 CURVE SMOOTH"
);
}
);
width = 980;
}
);
note = V;
unicode = 0056;
},
{
glyphname = W;
lastChange = "2021-05-27 10:25:14 +0000";
layers = (
{
anchors = (
{
name = bottom;
position = "{676, 0}";
},
{
name = top;
position = "{1005, 994}";
}
);
layerId = "61E7180A-0B32-4047-B910-001D8BB62225";
paths = (
{
closed = 1;
nodes = (
"630 163 OFFCURVE",
"791 398 OFFCURVE",
"848 492 CURVE",
"837 457 OFFCURVE",
"828 409 OFFCURVE",
"828 365 CURVE SMOOTH",
"828 259 OFFCURVE",
"886 215 OFFCURVE",
"962 215 CURVE SMOOTH",
"1095 215 OFFCURVE",
"1287 345 OFFCURVE",
"1353 513 CURVE SMOOTH",
"1378 576 OFFCURVE",
"1388 633 OFFCURVE",
"1388 683 CURVE SMOOTH",
"1388 827 OFFCURVE",
"1299 911 OFFCURVE",
"1203 903 CURVE",
"1174 908 OFFCURVE",
"1141 889 OFFCURVE",
"1141 879 CURVE SMOOTH",
"1141 875 OFFCURVE",
"1145 873 OFFCURVE",
"1154 873 CURVE SMOOTH",
"1162 873 OFFCURVE",
"1173 875 OFFCURVE",
"1189 879 CURVE",
"1198 880 OFFCURVE",
"1206 881 OFFCURVE",
"1213 881 CURVE SMOOTH",
"1298 881 OFFCURVE",
"1337 817 OFFCURVE",
"1337 725 CURVE SMOOTH",
"1337 667 OFFCURVE",
"1321 596 OFFCURVE",
"1290 523 CURVE SMOOTH",
"1234 389 OFFCURVE",
"1054 240 OFFCURVE",
"950 240 CURVE SMOOTH",
"905 240 OFFCURVE",
"874 268 OFFCURVE",
"874 337 CURVE SMOOTH",
"874 348 OFFCURVE",
"874 361 OFFCURVE",
"876 374 CURVE SMOOTH",
"887 458 OFFCURVE",
"951 576 OFFCURVE",
"977 651 CURVE SMOOTH",
"983 669 OFFCURVE",
"986 685 OFFCURVE",
"986 697 CURVE SMOOTH",
"986 718 OFFCURVE",
"978 729 OFFCURVE",
"965 729 CURVE SMOOTH",
"952 729 OFFCURVE",
"932 715 OFFCURVE",
"911 686 CURVE SMOOTH",
"823 564 OFFCURVE",
"686 273 OFFCURVE",
"563 201 CURVE SMOOTH",
"550 193 OFFCURVE",
"539 189 OFFCURVE",
"530 189 CURVE SMOOTH",
"516 189 OFFCURVE",
"507 200 OFFCURVE",
"507 224 CURVE SMOOTH",
"507 233 OFFCURVE",
"508 244 OFFCURVE",
"511 257 CURVE SMOOTH",
"529 352 OFFCURVE",
"596 535 OFFCURVE",
"655 667 CURVE SMOOTH",
"692 751 OFFCURVE",
"722 841 OFFCURVE",
"722 919 CURVE SMOOTH",
"722 990 OFFCURVE",
"696 1049 OFFCURVE",
"626 1080 CURVE SMOOTH",
"594 1094 OFFCURVE",
"558 1101 OFFCURVE",
"519 1101 CURVE SMOOTH",
"340 1101 OFFCURVE",
"104 959 OFFCURVE",
"16 754 CURVE SMOOTH",
"-7 701 OFFCURVE",
"-17 653 OFFCURVE",
"-17 609 CURVE SMOOTH",
"-17 473 OFFCURVE",
"81 387 OFFCURVE",
"185 387 CURVE SMOOTH",
"210 387 OFFCURVE",
"235 392 OFFCURVE",
"259 402 CURVE SMOOTH",
"392 458 OFFCURVE",
"461 573 OFFCURVE",
"461 657 CURVE SMOOTH",
"461 713 OFFCURVE",
"431 754 OFFCURVE",
"368 754 CURVE SMOOTH",
"351 754 OFFCURVE",
"332 751 OFFCURVE",
"310 744 CURVE SMOOTH",
"299 740 OFFCURVE",
"291 734 OFFCURVE",
"291 731 CURVE SMOOTH",
"291 729 OFFCURVE",
"294 727 OFFCURVE",
"300 727 CURVE SMOOTH",
"303 727 OFFCURVE",
"307 727 OFFCURVE",
"312 728 CURVE SMOOTH",
"321 730 OFFCURVE",
"329 730 OFFCURVE",
"336 730 CURVE SMOOTH",
"389 730 OFFCURVE",
"411 695 OFFCURVE",
"411 650 CURVE SMOOTH",
"411 571 OFFCURVE",
"345 457 OFFCURVE",
"260 426 CURVE SMOOTH",
"237 417 OFFCURVE",
"213 413 OFFCURVE",
"190 413 CURVE SMOOTH",
"111 413 OFFCURVE",
"43 465 OFFCURVE",
"43 576 CURVE SMOOTH",
"43 615 OFFCURVE",
"52 663 OFFCURVE",
"72 718 CURVE SMOOTH",
"140 903 OFFCURVE",
"362 1074 OFFCURVE",
"530 1074 CURVE SMOOTH",
"567 1074 OFFCURVE",
"601 1066 OFFCURVE",
"630 1048 CURVE SMOOTH",
"655 1033 OFFCURVE",
"664 1002 OFFCURVE",
"664 962 CURVE SMOOTH",
"664 875 OFFCURVE",
"618 748 OFFCURVE",
"583 663 CURVE SMOOTH",
"508 484 OFFCURVE",
"458 352 OFFCURVE",
"453 268 CURVE SMOOTH",
"446 188 OFFCURVE",
"479 163 OFFCURVE",
"518 163 CURVE SMOOTH"
);
}
);
width = 1351;
}
);
note = W;
unicode = 0057;
},
{
glyphname = X;
lastChange = "2021-05-27 10:25:14 +0000";
layers = (
{
layerId = "61E7180A-0B32-4047-B910-001D8BB62225";
paths = (
{
closed = 1;
nodes = (
"-96 62 OFFCURVE",
"-72 78 OFFCURVE",
"-47 118 CURVE SMOOTH",
"83 320 OFFCURVE",
"289 493 OFFCURVE",
"501 646 CURVE",
"499 570 OFFCURVE",
"497 497 OFFCURVE",
"497 436 CURVE SMOOTH",
"497 376 OFFCURVE",
"499 328 OFFCURVE",
"505 304 CURVE SMOOTH",
"520 235 OFFCURVE",
"558 198 OFFCURVE",
"608 198 CURVE SMOOTH",
"686 198 OFFCURVE",
"792 286 OFFCURVE",
"882 473 CURVE SMOOTH",
"884 478 OFFCURVE",
"885 481 OFFCURVE",
"885 484 CURVE SMOOTH",
"885 488 OFFCURVE",
"883 490 OFFCURVE",
"880 490 CURVE SMOOTH",
"875 490 OFFCURVE",
"868 485 OFFCURVE",
"864 477 CURVE SMOOTH",
"809 351 OFFCURVE",
"728 262 OFFCURVE",
"665 262 CURVE SMOOTH",
"631 262 OFFCURVE",
"602 288 OFFCURVE",
"586 348 CURVE SMOOTH",
"575 389 OFFCURVE",
"572 469 OFFCURVE",
"572 559 CURVE SMOOTH",
"572 604 OFFCURVE",
"573 652 OFFCURVE",
"574 698 CURVE",
"809 867 OFFCURVE",
"1009 986 OFFCURVE",
"1084 1060 CURVE SMOOTH",
"1112 1088 OFFCURVE",
"1124 1106 OFFCURVE",
"1124 1114 CURVE SMOOTH",
"1124 1119 OFFCURVE",
"1121 1121 OFFCURVE",
"1116 1121 CURVE SMOOTH",
"1102 1121 OFFCURVE",
"1067 1102 OFFCURVE",
"1029 1065 CURVE SMOOTH",
"934 972 OFFCURVE",
"772 878 OFFCURVE",
"572 737 CURVE",
"574 876 OFFCURVE",
"561 1005 OFFCURVE",
"528 1036 CURVE SMOOTH",
"502 1060 OFFCURVE",
"470 1070 OFFCURVE",
"436 1070 CURVE SMOOTH",
"299 1070 OFFCURVE",
"120 914 OFFCURVE",
"109 896 CURVE SMOOTH",
"104 889 OFFCURVE",
"101 883 OFFCURVE",
"101 878 CURVE SMOOTH",
"101 867 OFFCURVE",
"113 863 OFFCURVE",
"120 863 CURVE SMOOTH",
"122 863 OFFCURVE",
"124 863 OFFCURVE",
"125 864 CURVE",
"172 911 OFFCURVE",
"224 970 OFFCURVE",
"280 996 CURVE SMOOTH",
"314 1012 OFFCURVE",
"350 1022 OFFCURVE",
"382 1022 CURVE SMOOTH",
"431 1022 OFFCURVE",
"471 999 OFFCURVE",
"485 937 CURVE SMOOTH",
"497 885 OFFCURVE",
"500 811 OFFCURVE",
"500 733 CURVE SMOOTH",
"500 717 OFFCURVE",
"500 701 OFFCURVE",
"500 685 CURVE",
"280 528 OFFCURVE",
"55 338 OFFCURVE",
"-103 118 CURVE SMOOTH",
"-116 100 OFFCURVE",
"-122 85 OFFCURVE",
"-122 75 CURVE SMOOTH",
"-122 67 OFFCURVE",
"-118 62 OFFCURVE",
"-110 62 CURVE SMOOTH"
);
}
);
width = 811;
}
);
note = X;
unicode = 0058;
},
{
glyphname = Y;
lastChange = "2021-05-27 10:25:14 +0000";
layers = (
{
anchors = (
{
name = bottom;
position = "{841, 75}";
},
{
name = top;
position = "{967, 944}";
},
{
name = topleft;
position = "{20, 994}";
}
);
layerId = "61E7180A-0B32-4047-B910-001D8BB62225";
paths = (
{
closed = 1;
nodes = (
"417 -112 OFFCURVE",
"469 -103 OFFCURVE",
"525 -82 CURVE SMOOTH",
"627 -43 OFFCURVE",
"736 31 OFFCURVE",
"803 133 CURVE",
"905 134 OFFCURVE",
"1001 135 OFFCURVE",
"1053 155 CURVE SMOOTH",
"1106 178 OFFCURVE",
"1128 218 OFFCURVE",
"1128 246 CURVE SMOOTH",
"1128 251 OFFCURVE",
"1127 255 OFFCURVE",
"1126 259 CURVE SMOOTH",
"1122 271 OFFCURVE",
"1119 275 OFFCURVE",
"1117 275 CURVE SMOOTH",
"1115 275 OFFCURVE",
"1114 271 OFFCURVE",
"1114 266 CURVE SMOOTH",
"1114 264 OFFCURVE",
"1114 262 OFFCURVE",
"1114 260 CURVE",
"1114 221 OFFCURVE",
"1092 210 OFFCURVE",
"1048 185 CURVE SMOOTH",
"1010 163 OFFCURVE",
"918 159 OFFCURVE",
"819 159 CURVE",
"892 291 OFFCURVE",
"962 520 OFFCURVE",
"997 674 CURVE SMOOTH",
"1003 701 OFFCURVE",
"1006 721 OFFCURVE",
"1006 735 CURVE SMOOTH",
"1006 762 OFFCURVE",
"997 771 OFFCURVE",
"987 771 CURVE SMOOTH",
"971 771 OFFCURVE",
"950 750 OFFCURVE",
"947 738 CURVE",
"917 634 OFFCURVE",
"815 383 OFFCURVE",
"690 295 CURVE SMOOTH",
"660 274 OFFCURVE",
"627 262 OFFCURVE",
"601 262 CURVE SMOOTH",
"566 262 OFFCURVE",
"541 282 OFFCURVE",
"541 329 CURVE SMOOTH",
"541 340 OFFCURVE",
"542 353 OFFCURVE",
"545 367 CURVE SMOOTH",
"565 458 OFFCURVE",
"634 596 OFFCURVE",
"702 710 CURVE SMOOTH",
"750 791 OFFCURVE",
"784 881 OFFCURVE",
"784 957 CURVE SMOOTH",
"784 1025 OFFCURVE",
"757 1083 OFFCURVE",
"687 1114 CURVE SMOOTH",
"657 1128 OFFCURVE",
"622 1134 OFFCURVE",
"584 1134 CURVE SMOOTH",
"403 1134 OFFCURVE",
"157 987 OFFCURVE",
"59 785 CURVE SMOOTH",
"31 729 OFFCURVE",
"20 677 OFFCURVE",
"20 631 CURVE SMOOTH",
"20 503 OFFCURVE",
"111 422 OFFCURVE",
"211 422 CURVE SMOOTH",
"236 422 OFFCURVE",
"261 427 OFFCURVE",
"285 437 CURVE SMOOTH",
"417 491 OFFCURVE",
"496 618 OFFCURVE",
"496 702 CURVE SMOOTH",
"496 750 OFFCURVE",
"471 784 OFFCURVE",
"417 784 CURVE SMOOTH",
"403 784 OFFCURVE",
"387 782 OFFCURVE",
"369 777 CURVE SMOOTH",
"358 775 OFFCURVE",
"349 769 OFFCURVE",
"349 765 CURVE SMOOTH",
"349 763 OFFCURVE",
"352 761 OFFCURVE",
"358 761 CURVE SMOOTH",
"361 761 OFFCURVE",
"365 761 OFFCURVE",
"370 762 CURVE SMOOTH",
"379 764 OFFCURVE",
"388 765 OFFCURVE",
"396 765 CURVE SMOOTH",
"440 765 OFFCURVE",
"458 737 OFFCURVE",
"458 699 CURVE SMOOTH",
"458 620 OFFCURVE",
"379 491 OFFCURVE",
"289 460 CURVE SMOOTH",
"268 452 OFFCURVE",
"246 449 OFFCURVE",
"225 449 CURVE SMOOTH",
"146 449 OFFCURVE",
"76 502 OFFCURVE",
"76 610 CURVE SMOOTH",
"76 651 OFFCURVE",
"87 701 OFFCURVE",
"111 758 CURVE SMOOTH",
"187 940 OFFCURVE",
"417 1109 OFFCURVE",
"587 1109 CURVE SMOOTH",
"626 1109 OFFCURVE",
"661 1100 OFFCURVE",
"691 1081 CURVE SMOOTH",
"716 1065 OFFCURVE",
"727 1034 OFFCURVE",
"727 995 CURVE SMOOTH",
"727 913 OFFCURVE",
"681 796 OFFCURVE",
"622 698 CURVE SMOOTH",
"565 607 OFFCURVE",
"489 473 OFFCURVE",
"474 373 CURVE SMOOTH",
"473 363 OFFCURVE",
"472 354 OFFCURVE",
"472 346 CURVE SMOOTH",
"472 268 OFFCURVE",
"523 234 OFFCURVE",
"584 234 CURVE SMOOTH",
"623 234 OFFCURVE",
"667 248 OFFCURVE",
"704 273 CURVE SMOOTH",
"797 336 OFFCURVE",
"870 465 OFFCURVE",
"907 547 CURVE",
"871 413 OFFCURVE",
"823 287 OFFCURVE",
"771 158 CURVE",
"624 158 OFFCURVE",
"473 150 OFFCURVE",
"336 94 CURVE SMOOTH",
"251 58 OFFCURVE",
"215 15 OFFCURVE",
"215 -23 CURVE SMOOTH",
"215 -72 OFFCURVE",
"278 -112 OFFCURVE",
"372 -112 CURVE SMOOTH"
);
},
{
closed = 1;
nodes = (
"318 -84 OFFCURVE",
"272 -66 OFFCURVE",
"272 -36 CURVE SMOOTH",
"272 -14 OFFCURVE",
"296 16 OFFCURVE",
"356 50 CURVE SMOOTH",
"476 119 OFFCURVE",
"620 133 OFFCURVE",
"756 133 CURVE",
"695 36 OFFCURVE",
"599 -27 OFFCURVE",
"509 -60 CURVE SMOOTH",
"465 -76 OFFCURVE",
"418 -84 OFFCURVE",
"379 -84 CURVE SMOOTH"
);
}
);
width = 963;
}
);
note = Y;
unicode = 0059;
},
{
glyphname = Z;
lastChange = "2021-05-27 10:25:14 +0000";
layers = (
{
anchors = (
{
name = bottom;
position = "{410, 221}";
},
{
name = center;
position = "{341, 497}";
},
{
name = top;
position = "{758, 1048}";
}
);
layerId = "61E7180A-0B32-4047-B910-001D8BB62225";
paths = (
{
closed = 1;
nodes = (
"963 133 OFFCURVE",
"1000 236 OFFCURVE",
"1004 275 CURVE SMOOTH",
"1007 304 OFFCURVE",
"1002 316 OFFCURVE",
"995 316 CURVE SMOOTH",
"989 316 OFFCURVE",
"982 305 OFFCURVE",
"980 289 CURVE SMOOTH",
"968 207 OFFCURVE",
"868 186 OFFCURVE",
"785 186 CURVE SMOOTH",
"753 186 OFFCURVE",
"723 189 OFFCURVE",
"702 193 CURVE SMOOTH",
"594 214 OFFCURVE",
"319 334 OFFCURVE",
"319 334 CURVE",
"393 394 OFFCURVE",
"519 493 OFFCURVE",
"634 635 CURVE SMOOTH",
"709 729 OFFCURVE",
"816 886 OFFCURVE",
"888 951 CURVE",
"928 942 OFFCURVE",
"964 935 OFFCURVE",
"993 935 CURVE SMOOTH",
"1017 935 OFFCURVE",
"1037 940 OFFCURVE",
"1052 951 CURVE SMOOTH",
"1073 969 OFFCURVE",
"1082 988 OFFCURVE",
"1082 1004 CURVE SMOOTH",
"1082 1031 OFFCURVE",
"1059 1051 OFFCURVE",
"1023 1051 CURVE SMOOTH",
"1011 1051 OFFCURVE",
"998 1049 OFFCURVE",
"984 1044 CURVE SMOOTH",
"951 1032 OFFCURVE",
"913 1008 OFFCURVE",
"871 976 CURVE",
"770 1007 OFFCURVE",
"640 1057 OFFCURVE",
"525 1057 CURVE SMOOTH",
"514 1057 OFFCURVE",
"504 1057 OFFCURVE",
"493 1056 CURVE SMOOTH",
"329 1044 OFFCURVE",
"273 964 OFFCURVE",
"273 897 CURVE SMOOTH",
"273 868 OFFCURVE",
"283 841 OFFCURVE",
"300 823 CURVE SMOOTH",
"315 805 OFFCURVE",
"332 795 OFFCURVE",
"340 792 CURVE SMOOTH",
"343 791 OFFCURVE",
"349 790 OFFCURVE",
"355 790 CURVE SMOOTH",
"361 790 OFFCURVE",
"367 791 OFFCURVE",
"367 795 CURVE SMOOTH",
"367 799 OFFCURVE",
"363 804 OFFCURVE",
"352 811 CURVE SMOOTH",
"320 832 OFFCURVE",
"307 855 OFFCURVE",
"307 877 CURVE SMOOTH",
"307 927 OFFCURVE",
"373 974 OFFCURVE",
"433 989 CURVE SMOOTH",
"471 999 OFFCURVE",
"514 1003 OFFCURVE",
"561 1003 CURVE SMOOTH",
"661 1003 OFFCURVE",
"771 984 OFFCURVE",
"852 961 CURVE",
"777 899 OFFCURVE",
"694 816 OFFCURVE",
"638 750 CURVE SMOOTH",
"560 654 OFFCURVE",
"299 348 OFFCURVE",
"299 348 CURVE",
"229 393 OFFCURVE",
"185 413 OFFCURVE",
"155 421 CURVE SMOOTH",
"137 426 OFFCURVE",
"122 428 OFFCURVE",
"107 428 CURVE SMOOTH",
"43 428 OFFCURVE",
"11 386 OFFCURVE",
"11 343 CURVE SMOOTH",
"11 304 OFFCURVE",
"38 263 OFFCURVE",
"92 251 CURVE SMOOTH",
"101 249 OFFCURVE",
"110 248 OFFCURVE",
"120 248 CURVE SMOOTH",
"165 248 OFFCURVE",
"222 269 OFFCURVE",
"293 320 CURVE",
"293 320 OFFCURVE",
"619 126 OFFCURVE",
"766 129 CURVE SMOOTH"
);
},
{
closed = 1;
nodes = (
"86 280 OFFCURVE",
"57 310 OFFCURVE",
"57 340 CURVE SMOOTH",
"57 367 OFFCURVE",
"82 394 OFFCURVE",
"132 394 CURVE SMOOTH",
"158 394 OFFCURVE",
"199 382 OFFCURVE",
"249 352 CURVE",
"260 346 OFFCURVE",
"280 330 OFFCURVE",
"280 330 CURVE",
"251 305 OFFCURVE",
"192 280 OFFCURVE",
"145 280 CURVE SMOOTH"
);
},
{
closed = 1;
nodes = (
"970 950 OFFCURVE",
"939 957 OFFCURVE",
"903 967 CURVE",
"950 1006 OFFCURVE",
"992 1032 OFFCURVE",
"1022 1032 CURVE SMOOTH",
"1043 1032 OFFCURVE",
"1053 1015 OFFCURVE",
"1053 997 CURVE SMOOTH",
"1053 983 OFFCURVE",
"1046 967 OFFCURVE",
"1033 959 CURVE SMOOTH",
"1023 953 OFFCURVE",
"1011 950 OFFCURVE",
"995 950 CURVE SMOOTH"
);
}
);
width = 681;
}
);
note = Z;
unicode = 005A;
},
{
glyphname = bracketleft;
lastChange = "2021-05-27 10:25:14 +0000";
layers = (
{
layerId = "61E7180A-0B32-4047-B910-001D8BB62225";
paths = (
{
closed = 1;
nodes = (
"178 271 OFFCURVE",
"280 268 OFFCURVE",
"280 293 CURVE SMOOTH",
"280 312 OFFCURVE",
"251 316 OFFCURVE",
"237 316 CURVE SMOOTH",
"213 316 OFFCURVE",
"189 312 OFFCURVE",
"165 312 CURVE SMOOTH",
"135 312 OFFCURVE",
"98 316 OFFCURVE",
"98 356 CURVE SMOOTH",
"98 472 OFFCURVE",
"338 903 OFFCURVE",
"440 954 CURVE SMOOTH",
"450 959 OFFCURVE",
"474 959 OFFCURVE",
"486 959 CURVE SMOOTH",
"513 959 OFFCURVE",
"539 955 OFFCURVE",
"565 955 CURVE SMOOTH",
"578 955 OFFCURVE",
"586 956 OFFCURVE",
"586 973 CURVE SMOOTH",
"586 1009 OFFCURVE",
"519 1009 OFFCURVE",
"494 1009 CURVE SMOOTH",
"474 1009 LINE SMOOTH",
"409 1009 OFFCURVE",
"381 980 OFFCURVE",
"340 933 CURVE SMOOTH",
"230 804 OFFCURVE",
"39 485 OFFCURVE",
"39 316 CURVE SMOOTH",
"39 271 OFFCURVE",
"125 271 OFFCURVE",
"155 271 CURVE SMOOTH"
);
}
);
width = 588;
}
);
note = bracketleft;
unicode = 005B;
},
{
glyphname = backslash;
lastChange = "2021-05-27 10:25:14 +0000";
layers = (
{
layerId = "61E7180A-0B32-4047-B910-001D8BB62225";
paths = (
{
closed = 1;
nodes = (
"863 253 LINE",
"863 260 OFFCURVE",
"859 264 OFFCURVE",
"855 268 CURVE SMOOTH",
"690 438 OFFCURVE",
"574 616 OFFCURVE",
"436 803 CURVE SMOOTH",
"331 943 OFFCURVE",
"204 1081 OFFCURVE",
"92 1081 CURVE SMOOTH",
"64 1081 OFFCURVE",
"31 1075 OFFCURVE",
"20 1045 CURVE",
"27 1039 LINE",
"42 1043 OFFCURVE",
"55 1052 OFFCURVE",
"70 1052 CURVE SMOOTH",
"251 1052 OFFCURVE",
"673 302 OFFCURVE",
"856 248 CURVE"
);
}
);
width = 871;
}
);
note = backslash;
unicode = 005C;
},
{
glyphname = bracketright;
lastChange = "2021-05-27 10:25:14 +0000";
layers = (
{
layerId = "61E7180A-0B32-4047-B910-001D8BB62225";
paths = (
{
closed = 1;
nodes = (
"153 271 OFFCURVE",
"232 272 OFFCURVE",
"276 316 CURVE SMOOTH",
"413 454 OFFCURVE",
"551 766 OFFCURVE",
"551 961 CURVE SMOOTH",
"551 1004 OFFCURVE",
"523 1008 OFFCURVE",
"488 1008 CURVE SMOOTH",
"448 1008 OFFCURVE",
"354 1008 OFFCURVE",
"340 958 CURVE",
"344 955 LINE",
"381 955 OFFCURVE",
"418 959 OFFCURVE",
"456 959 CURVE SMOOTH",
"466 959 OFFCURVE",
"477 959 OFFCURVE",
"489 955 CURVE",
"490 946 OFFCURVE",
"492 935 OFFCURVE",
"492 926 CURVE SMOOTH",
"492 779 OFFCURVE",
"350 474 OFFCURVE",
"252 364 CURVE SMOOTH",
"173 276 OFFCURVE",
"31 348 OFFCURVE",
"17 276 CURVE",
"26 271 OFFCURVE",
"42 270 OFFCURVE",
"59 270 CURVE SMOOTH",
"71 270 OFFCURVE",
"83 271 OFFCURVE",
"92 271 CURVE SMOOTH"
);
}
);
width = 559;
}
);
note = bracketright;
unicode = 005D;
},
{
glyphname = asciicircum;
lastChange = "2021-05-27 10:25:14 +0000";
layers = (
{
layerId = "61E7180A-0B32-4047-B910-001D8BB62225";
paths = (
{
closed = 1;
nodes = (
"398 671 OFFCURVE",
"405 674 OFFCURVE",
"405 681 CURVE",
"401 689 LINE",
"359 722 OFFCURVE",
"320 760 OFFCURVE",
"289 803 CURVE",
"284 807 LINE",
"261 803 OFFCURVE",
"122 701 OFFCURVE",
"119 682 CURVE",
"125 675 LINE",
"143 678 OFFCURVE",
"240 749 OFFCURVE",
"261 764 CURVE",
"280 738 OFFCURVE",
"360 671 OFFCURVE",
"393 671 CURVE SMOOTH"
);
}
);
width = 373;
}
);
note = asciicircum;
unicode = 005E;
},
{
glyphname = underscore;
lastChange = "2021-05-27 10:25:14 +0000";
layers = (
{
layerId = "61E7180A-0B32-4047-B910-001D8BB62225";
paths = (
{
closed = 1;
nodes = (
"91 214 OFFCURVE",
"155 220 OFFCURVE",
"220 220 CURVE SMOOTH",
"410 224 OFFCURVE",
"600 228 OFFCURVE",
"791 228 CURVE",
"797 235 LINE",
"796 248 OFFCURVE",
"784 263 OFFCURVE",
"769 263 CURVE SMOOTH",
"25 263 LINE SMOOTH",
"15 263 OFFCURVE",
"8 253 OFFCURVE",
"8 244 CURVE SMOOTH",
"8 235 OFFCURVE",
"13 214 OFFCURVE",
"25 214 CURVE SMOOTH"
);
}
);
width = 811;
}
);
note = underscore;
unicode = 005F;
},
{
glyphname = grave;
lastChange = "2021-05-27 10:25:14 +0000";
layers = (
{
layerId = "61E7180A-0B32-4047-B910-001D8BB62225";
paths = (
{
closed = 1;
nodes = (
"189 689 OFFCURVE",
"194 691 OFFCURVE",
"194 698 CURVE SMOOTH",
"194 705 OFFCURVE",
"47 824 OFFCURVE",
"28 824 CURVE SMOOTH",
"17 824 OFFCURVE",
"9 815 OFFCURVE",
"9 803 CURVE SMOOTH",
"9 781 OFFCURVE",
"28 766 OFFCURVE",
"47 758 CURVE SMOOTH",
"66 749 OFFCURVE",
"176 689 OFFCURVE",
"184 689 CURVE SMOOTH"
);
}
);
width = 212;
}
);
note = grave;
unicode = 0060;
},
{
glyphname = a;
lastChange = "2021-05-27 10:25:14 +0000";
layers = (
{
anchors = (
{
name = bottom;
position = "{117, 272}";
},
{
name = ogonek;
position = "{277, 299}";
},
{
name = top;
position = "{261, 646}";
}
);
layerId = "61E7180A-0B32-4047-B910-001D8BB62225";
paths = (
{
closed = 1;
nodes = (
"332 291 OFFCURVE",
"393 411 OFFCURVE",
"423 473 CURVE SMOOTH",
"425 478 OFFCURVE",
"426 482 OFFCURVE",
"426 484 CURVE SMOOTH",
"426 489 OFFCURVE",
"424 491 OFFCURVE",
"421 491 CURVE SMOOTH",
"417 491 OFFCURVE",
"413 488 OFFCURVE",
"409 481 CURVE SMOOTH",
"389 437 OFFCURVE",
"323 312 OFFCURVE",
"281 312 CURVE SMOOTH",
"271 312 OFFCURVE",
"265 320 OFFCURVE",
"265 340 CURVE SMOOTH",
"265 349 OFFCURVE",
"267 360 OFFCURVE",
"269 373 CURVE SMOOTH",
"283 433 OFFCURVE",
"342 539 OFFCURVE",
"363 560 CURVE",
"347 557 OFFCURVE",
"333 564 OFFCURVE",
"318 564 CURVE SMOOTH",
"287 564 OFFCURVE",
"275 540 OFFCURVE",
"252 500 CURVE SMOOTH",
"226 450 OFFCURVE",
"198 401 OFFCURVE",
"163 359 CURVE SMOOTH",
"139 331 OFFCURVE",
"113 315 OFFCURVE",
"95 315 CURVE SMOOTH",
"80 315 OFFCURVE",
"70 325 OFFCURVE",
"70 348 CURVE SMOOTH",
"70 353 OFFCURVE",
"70 358 OFFCURVE",
"71 364 CURVE SMOOTH",
"76 403 OFFCURVE",
"103 453 OFFCURVE",
"111 466 CURVE SMOOTH",
"147 525 OFFCURVE",
"200 586 OFFCURVE",
"245 610 CURVE SMOOTH",
"259 617 OFFCURVE",
"272 621 OFFCURVE",
"284 621 CURVE SMOOTH",
"306 621 OFFCURVE",
"324 609 OFFCURVE",
"331 586 CURVE",
"342 583 OFFCURVE",
"349 590 OFFCURVE",
"349 598 CURVE SMOOTH",
"349 603 OFFCURVE",
"347 609 OFFCURVE",
"342 614 CURVE SMOOTH",
"320 637 OFFCURVE",
"292 646 OFFCURVE",
"261 646 CURVE SMOOTH",
"208 645 OFFCURVE",
"147 614 OFFCURVE",
"109 568 CURVE SMOOTH",
"49 495 OFFCURVE",
"24 424 OFFCURVE",
"24 371 CURVE SMOOTH",
"24 320 OFFCURVE",
"47 286 OFFCURVE",
"82 286 CURVE SMOOTH",
"101 286 OFFCURVE",
"124 296 OFFCURVE",
"149 320 CURVE SMOOTH",
"178 348 OFFCURVE",
"205 389 OFFCURVE",
"221 415 CURVE",
"215 392 OFFCURVE",
"212 373 OFFCURVE",
"212 357 CURVE SMOOTH",
"212 300 OFFCURVE",
"246 284 OFFCURVE",
"272 285 CURVE SMOOTH"
);
}
);
width = 352;
}
);
note = a;
unicode = 0061;
},
{
glyphname = b;
lastChange = "2021-05-27 10:25:14 +0000";
layers = (
{
layerId = "61E7180A-0B32-4047-B910-001D8BB62225";
paths = (
{
closed = 1;
nodes = (
"145 287 OFFCURVE",
"164 289 OFFCURVE",
"185 295 CURVE SMOOTH",
"269 316 OFFCURVE",
"331 413 OFFCURVE",
"348 497 CURVE SMOOTH",
"351 509 OFFCURVE",
"352 522 OFFCURVE",
"352 534 CURVE SMOOTH",
"352 585 OFFCURVE",
"328 629 OFFCURVE",
"268 638 CURVE SMOOTH",
"263 639 OFFCURVE",
"258 640 OFFCURVE",
"254 640 CURVE SMOOTH",
"240 640 OFFCURVE",
"233 633 OFFCURVE",
"233 628 CURVE SMOOTH",
"233 623 OFFCURVE",
"239 618 OFFCURVE",
"251 618 CURVE SMOOTH",
"252 618 OFFCURVE",
"254 618 OFFCURVE",
"255 618 CURVE SMOOTH",
"293 622 OFFCURVE",
"309 599 OFFCURVE",
"309 566 CURVE SMOOTH",
"309 545 OFFCURVE",
"303 519 OFFCURVE",
"292 493 CURVE SMOOTH",
"276 453 OFFCURVE",
"245 402 OFFCURVE",
"217 369 CURVE SMOOTH",
"182 327 OFFCURVE",
"154 307 OFFCURVE",
"131 312 CURVE SMOOTH",
"106 317 OFFCURVE",
"96 340 OFFCURVE",
"96 372 CURVE SMOOTH",
"96 426 OFFCURVE",
"125 506 OFFCURVE",
"157 570 CURVE SMOOTH",
"224 702 OFFCURVE",
"342 867 OFFCURVE",
"378 905 CURVE",
"364 902 OFFCURVE",
"348 907 OFFCURVE",
"336 909 CURVE SMOOTH",
"331 909 LINE SMOOTH",
"308 910 OFFCURVE",
"288 895 OFFCURVE",
"264 859 CURVE SMOOTH",
"177 730 OFFCURVE",
"44 430 OFFCURVE",
"-24 340 CURVE SMOOTH",
"-26 337 OFFCURVE",
"-27 335 OFFCURVE",
"-27 332 CURVE SMOOTH",
"-27 329 OFFCURVE",
"-25 327 OFFCURVE",
"-22 327 CURVE SMOOTH",
"-20 327 OFFCURVE",
"-18 328 OFFCURVE",
"-16 330 CURVE SMOOTH",
"4 348 OFFCURVE",
"44 414 OFFCURVE",
"91 505 CURVE",
"71 465 OFFCURVE",
"55 426 OFFCURVE",
"47 395 CURVE SMOOTH",
"44 384 OFFCURVE",
"43 374 OFFCURVE",
"43 364 CURVE SMOOTH",
"43 320 OFFCURVE",
"70 287 OFFCURVE",
"128 287 CURVE SMOOTH"
);
}
);
width = 347;
}
);
note = b;
unicode = 0062;
},
{
glyphname = c;
lastChange = "2021-05-27 10:25:14 +0000";
layers = (
{
anchors = (
{
name = bottom;
position = "{139, 291}";
},
{
name = top;
position = "{240, 642}";
}
);
layerId = "61E7180A-0B32-4047-B910-001D8BB62225";
paths = (
{
closed = 1;
nodes = (
"251 284 OFFCURVE",
"291 367 OFFCURVE",
"340 472 CURVE SMOOTH",
"342 476 OFFCURVE",
"343 480 OFFCURVE",
"343 482 CURVE SMOOTH",
"343 487 OFFCURVE",
"341 490 OFFCURVE",
"338 490 CURVE SMOOTH",
"334 490 OFFCURVE",
"330 486 OFFCURVE",
"326 478 CURVE SMOOTH",
"285 399 OFFCURVE",
"237 302 OFFCURVE",
"150 302 CURVE SMOOTH",
"107 302 OFFCURVE",
"91 339 OFFCURVE",
"91 379 CURVE SMOOTH",
"91 437 OFFCURVE",
"127 507 OFFCURVE",
"146 533 CURVE SMOOTH",
"174 574 OFFCURVE",
"217 619 OFFCURVE",
"253 619 CURVE SMOOTH",
"267 619 OFFCURVE",
"277 612 OFFCURVE",
"277 594 CURVE SMOOTH",
"277 587 OFFCURVE",
"276 579 OFFCURVE",
"273 570 CURVE SMOOTH",
"268 552 OFFCURVE",
"253 532 OFFCURVE",
"243 519 CURVE",
"247 515 OFFCURVE",
"252 513 OFFCURVE",
"257 513 CURVE SMOOTH",
"279 513 OFFCURVE",
"307 545 OFFCURVE",
"310 572 CURVE SMOOTH",
"315 614 OFFCURVE",
"291 642 OFFCURVE",
"240 642 CURVE SMOOTH",
"192 642 OFFCURVE",
"143 612 OFFCURVE",
"106 561 CURVE SMOOTH",
"68 511 OFFCURVE",
"36 438 OFFCURVE",
"36 379 CURVE SMOOTH",
"36 325 OFFCURVE",
"63 284 OFFCURVE",
"139 284 CURVE SMOOTH"
);
}
);
width = 261;
}
);
note = c;
unicode = 0063;
},
{
glyphname = d;
lastChange = "2021-05-27 10:25:14 +0000";
layers = (
{
anchors = (
{
name = bottom;
position = "{146, 273}";
},
{
name = center;
position = "{185, 313}";
},
{
name = top;
position = "{185, 1298}";
},
{
name = topright;
position = "{582, 912}";
}
);
layerId = "61E7180A-0B32-4047-B910-001D8BB62225";
paths = (
{
closed = 1;
nodes = (
"358 288 OFFCURVE",
"417 418 OFFCURVE",
"441 474 CURVE SMOOTH",
"443 478 OFFCURVE",
"443 481 OFFCURVE",
"443 483 CURVE SMOOTH",
"443 489 OFFCURVE",
"440 492 OFFCURVE",
"437 492 CURVE SMOOTH",
"433 492 OFFCURVE",
"428 488 OFFCURVE",
"425 481 CURVE SMOOTH",
"405 438 OFFCURVE",
"346 314 OFFCURVE",
"296 314 CURVE SMOOTH",
"277 314 OFFCURVE",
"270 328 OFFCURVE",
"270 346 CURVE SMOOTH",
"270 372 OFFCURVE",
"284 407 OFFCURVE",
"289 421 CURVE SMOOTH",
"348 560 OFFCURVE",
"525 884 OFFCURVE",
"555 913 CURVE",
"537 911 OFFCURVE",
"519 917 OFFCURVE",
"504 917 CURVE SMOOTH",
"477 917 OFFCURVE",
"461 906 OFFCURVE",
"444 864 CURVE SMOOTH",
"419 811 OFFCURVE",
"375 718 OFFCURVE",
"327 626 CURVE",
"305 639 OFFCURVE",
"282 645 OFFCURVE",
"259 645 CURVE SMOOTH",
"205 645 OFFCURVE",
"151 614 OFFCURVE",
"111 568 CURVE SMOOTH",
"65 513 OFFCURVE",
"26 429 OFFCURVE",
"26 368 CURVE SMOOTH",
"26 331 OFFCURVE",
"40 302 OFFCURVE",
"76 292 CURVE SMOOTH",
"83 290 OFFCURVE",
"90 289 OFFCURVE",
"97 289 CURVE SMOOTH",
"155 289 OFFCURVE",
"196 359 OFFCURVE",
"224 403 CURVE",
"220 389 OFFCURVE",
"219 377 OFFCURVE",
"219 365 CURVE SMOOTH",
"219 343 OFFCURVE",
"225 326 OFFCURVE",
"232 315 CURVE SMOOTH",
"245 296 OFFCURVE",
"261 288 OFFCURVE",
"277 288 CURVE SMOOTH"
);
},
{
closed = 1;
nodes = (
"87 318 OFFCURVE",
"77 333 OFFCURVE",
"77 358 CURVE SMOOTH",
"77 380 OFFCURVE",
"85 412 OFFCURVE",
"105 449 CURVE SMOOTH",
"149 531 OFFCURVE",
"233 622 OFFCURVE",
"289 622 CURVE SMOOTH",
"300 622 OFFCURVE",
"310 618 OFFCURVE",
"319 610 CURVE",
"272 521 OFFCURVE",
"221 436 OFFCURVE",
"184 383 CURVE SMOOTH",
"152 338 OFFCURVE",
"123 318 OFFCURVE",
"104 318 CURVE SMOOTH"
);
}
);
width = 369;
}
);
note = d;
unicode = 0064;
},
{
glyphname = e;
lastChange = "2021-05-27 10:25:14 +0000";
layers = (
{
anchors = (
{
name = bottom;
position = "{135, 291}";
},
{
name = ogonek;
position = "{134, 294}";
},
{
name = top;
position = "{235, 642}";
}
);
layerId = "61E7180A-0B32-4047-B910-001D8BB62225";
paths = (
{
closed = 1;
nodes = (
"240 284 OFFCURVE",
"283 395 OFFCURVE",
"320 476 CURVE SMOOTH",
"322 480 OFFCURVE",
"323 483 OFFCURVE",
"323 486 CURVE SMOOTH",
"323 489 OFFCURVE",
"321 491 OFFCURVE",
"318 491 CURVE SMOOTH",
"313 491 OFFCURVE",
"306 486 OFFCURVE",
"302 477 CURVE SMOOTH",
"279 423 OFFCURVE",
"224 304 OFFCURVE",
"135 304 CURVE SMOOTH",
"99 304 OFFCURVE",
"88 335 OFFCURVE",
"88 369 CURVE SMOOTH",
"88 397 OFFCURVE",
"95 426 OFFCURVE",
"102 442 CURVE",
"129 442 OFFCURVE",
"194 464 OFFCURVE",
"225 486 CURVE SMOOTH",
"269 521 OFFCURVE",
"297 564 OFFCURVE",
"297 597 CURVE SMOOTH",
"297 612 OFFCURVE",
"292 625 OFFCURVE",
"280 634 CURVE SMOOTH",
"269 642 OFFCURVE",
"256 646 OFFCURVE",
"242 646 CURVE SMOOTH",
"199 646 OFFCURVE",
"147 613 OFFCURVE",
"109 568 CURVE SMOOTH",
"64 516 OFFCURVE",
"31 441 OFFCURVE",
"31 381 CURVE SMOOTH",
"32 316 OFFCURVE",
"78 284 OFFCURVE",
"127 284 CURVE SMOOTH"
);
},
{
closed = 1;
nodes = (
"118 477 OFFCURVE",
"143 521 OFFCURVE",
"169 553 CURVE SMOOTH",
"210 604 OFFCURVE",
"238 623 OFFCURVE",
"254 623 CURVE SMOOTH",
"265 623 OFFCURVE",
"270 614 OFFCURVE",
"270 601 CURVE SMOOTH",
"270 576 OFFCURVE",
"251 534 OFFCURVE",
"216 504 CURVE SMOOTH",
"180 473 OFFCURVE",
"127 460 OFFCURVE",
"109 460 CURVE"
);
}
);
width = 248;
}
);
note = e;
unicode = 0065;
},
{
glyphname = f;
lastChange = "2021-05-27 10:25:14 +0000";
layers = (
{
layerId = "61E7180A-0B32-4047-B910-001D8BB62225";
paths = (
{
closed = 1;
nodes = (
"37 -63 OFFCURVE",
"108 118 OFFCURVE",
"108 257 CURVE SMOOTH",
"108 267 OFFCURVE",
"108 277 OFFCURVE",
"107 287 CURVE",
"180 287 OFFCURVE",
"235 393 OFFCURVE",
"272 477 CURVE SMOOTH",
"276 486 OFFCURVE",
"272 491 OFFCURVE",
"267 491 CURVE SMOOTH",
"263 491 OFFCURVE",
"259 489 OFFCURVE",
"256 484 CURVE SMOOTH",
"224 413 OFFCURVE",
"166 302 OFFCURVE",
"106 306 CURVE",
"105 310 OFFCURVE",
"103 315 OFFCURVE",
"103 319 CURVE SMOOTH",
"95 354 OFFCURVE",
"83 378 OFFCURVE",
"71 394 CURVE",
"172 620 OFFCURVE",
"302 852 OFFCURVE",
"364 911 CURVE",
"350 910 OFFCURVE",
"332 917 OFFCURVE",
"320 917 CURVE SMOOTH",
"279 917 OFFCURVE",
"257 890 OFFCURVE",
"236 847 CURVE SMOOTH",
"180 742 OFFCURVE",
"102 580 OFFCURVE",
"29 417 CURVE",
"16 419 OFFCURVE",
"3 414 OFFCURVE",
"-7 406 CURVE SMOOTH",
"-19 398 OFFCURVE",
"-27 379 OFFCURVE",
"-27 358 CURVE SMOOTH",
"-27 344 OFFCURVE",
"-23 329 OFFCURVE",
"-15 316 CURVE",
"-73 179 OFFCURVE",
"-118 58 OFFCURVE",
"-118 -9 CURVE SMOOTH",
"-118 -52 OFFCURVE",
"-93 -63 OFFCURVE",
"-63 -63 CURVE SMOOTH"
);
},
{
closed = 1;
nodes = (
"-57 -36 OFFCURVE",
"-63 -27 OFFCURVE",
"-63 -6 CURVE SMOOTH",
"-63 7 OFFCURVE",
"-61 26 OFFCURVE",
"-55 51 CURVE SMOOTH",
"-39 117 OFFCURVE",
"-7 210 OFFCURVE",
"28 299 CURVE",
"40 290 OFFCURVE",
"60 282 OFFCURVE",
"78 282 CURVE SMOOTH",
"81 282 OFFCURVE",
"84 283 OFFCURVE",
"87 283 CURVE",
"88 193 OFFCURVE",
"52 70 OFFCURVE",
"3 5 CURVE SMOOTH",
"-15 -19 OFFCURVE",
"-35 -36 OFFCURVE",
"-48 -36 CURVE SMOOTH"
);
},
{
closed = 1;
nodes = (
"60 302 OFFCURVE",
"44 310 OFFCURVE",
"39 320 CURVE",
"47 339 OFFCURVE",
"52 352 OFFCURVE",
"60 371 CURVE",
"66 364 OFFCURVE",
"71 356 OFFCURVE",
"75 347 CURVE SMOOTH",
"80 334 OFFCURVE",
"83 319 OFFCURVE",
"84 302 CURVE",
"83 302 OFFCURVE",
"80 302 OFFCURVE",
"79 302 CURVE SMOOTH"
);
}
);
width = 200;
}
);
note = f;
unicode = 0066;
},
{
glyphname = g;
lastChange = "2021-05-27 10:25:14 +0000";
layers = (
{
anchors = (
{
name = bottom;
position = "{-12, -25}";
},
{
name = top;
position = "{268, 639}";
}
);
layerId = "61E7180A-0B32-4047-B910-001D8BB62225";
paths = (
{
closed = 1;
nodes = (
"134 -31 OFFCURVE",
"267 149 OFFCURVE",
"311 276 CURVE",
"385 311 OFFCURVE",
"414 367 OFFCURVE",
"465 473 CURVE SMOOTH",
"468 478 OFFCURVE",
"469 482 OFFCURVE",
"469 485 CURVE SMOOTH",
"469 489 OFFCURVE",
"466 491 OFFCURVE",
"463 491 CURVE SMOOTH",
"459 491 OFFCURVE",
"454 488 OFFCURVE",
"450 481 CURVE SMOOTH",
"441 461 OFFCURVE",
"425 418 OFFCURVE",
"393 374 CURVE SMOOTH",
"373 347 OFFCURVE",
"346 326 OFFCURVE",
"322 308 CURVE",
"335 359 OFFCURVE",
"342 411 OFFCURVE",
"342 463 CURVE SMOOTH",
"342 493 OFFCURVE",
"340 524 OFFCURVE",
"335 553 CURVE",
"319 541 OFFCURVE",
"287 559 OFFCURVE",
"272 513 CURVE SMOOTH",
"254 454 OFFCURVE",
"169 317 OFFCURVE",
"109 317 CURVE SMOOTH",
"86 317 OFFCURVE",
"76 335 OFFCURVE",
"76 358 CURVE SMOOTH",
"76 406 OFFCURVE",
"121 487 OFFCURVE",
"174 548 CURVE SMOOTH",
"213 591 OFFCURVE",
"257 623 OFFCURVE",
"291 623 CURVE SMOOTH",
"310 623 OFFCURVE",
"326 612 OFFCURVE",
"336 586 CURVE SMOOTH",
"339 577 OFFCURVE",
"345 573 OFFCURVE",
"350 573 CURVE SMOOTH",
"356 573 OFFCURVE",
"362 579 OFFCURVE",
"362 588 CURVE SMOOTH",
"362 596 OFFCURVE",
"358 605 OFFCURVE",
"347 614 CURVE SMOOTH",
"320 635 OFFCURVE",
"291 645 OFFCURVE",
"261 645 CURVE SMOOTH",
"207 645 OFFCURVE",
"152 614 OFFCURVE",
"114 568 CURVE SMOOTH",
"67 513 OFFCURVE",
"26 436 OFFCURVE",
"26 376 CURVE SMOOTH",
"26 339 OFFCURVE",
"41 308 OFFCURVE",
"79 292 CURVE",
"85 290 OFFCURVE",
"92 289 OFFCURVE",
"98 289 CURVE SMOOTH",
"172 289 OFFCURVE",
"243 408 OFFCURVE",
"272 465 CURVE",
"274 460 OFFCURVE",
"275 449 OFFCURVE",
"275 435 CURVE SMOOTH",
"275 420 OFFCURVE",
"274 403 OFFCURVE",
"272 383 CURVE SMOOTH",
"268 343 OFFCURVE",
"260 307 OFFCURVE",
"248 272 CURVE",
"172 240 OFFCURVE",
"79 221 OFFCURVE",
"-19 163 CURVE SMOOTH",
"-67 135 OFFCURVE",
"-107 96 OFFCURVE",
"-107 47 CURVE SMOOTH",
"-107 -5 OFFCURVE",
"-75 -31 OFFCURVE",
"-12 -31 CURVE SMOOTH"
);
},
{
closed = 1;
nodes = (
"-70 -11 OFFCURVE",
"-84 7 OFFCURVE",
"-84 30 CURVE SMOOTH",
"-84 63 OFFCURVE",
"-56 109 OFFCURVE",
"-19 134 CURVE SMOOTH",
"46 176 OFFCURVE",
"130 205 OFFCURVE",
"204 230 CURVE SMOOTH",
"216 235 OFFCURVE",
"228 239 OFFCURVE",
"239 243 CURVE",
"224 208 OFFCURVE",
"205 176 OFFCURVE",
"181 141 CURVE SMOOTH",
"153 103 OFFCURVE",
"122 67 OFFCURVE",
"91 43 CURVE SMOOTH",
"67 24 OFFCURVE",
"7 -11 OFFCURVE",
"-36 -11 CURVE SMOOTH"
);
}
);
width = 394;
}
);
note = g;
unicode = 0067;
},
{
glyphname = h;
lastChange = "2021-05-27 10:25:14 +0000";
layers = (
{
anchors = (
{
name = bottom;
position = "{104, 272}";
},
{
name = center;
position = "{167, 649}";
},
{
name = top;
position = "{334, 899}";
}
);
layerId = "61E7180A-0B32-4047-B910-001D8BB62225";
paths = (
{
closed = 1;
nodes = (
"-31 287 OFFCURVE",
"-21 285 OFFCURVE",
"-7 287 CURVE SMOOTH",
"15 287 OFFCURVE",
"24 288 OFFCURVE",
"31 302 CURVE SMOOTH",
"88 413 OFFCURVE",
"138 469 OFFCURVE",
"172 501 CURVE SMOOTH",
"206 534 OFFCURVE",
"229 546 OFFCURVE",
"242 546 CURVE SMOOTH",
"250 546 OFFCURVE",
"254 541 OFFCURVE",
"254 534 CURVE SMOOTH",
"254 527 OFFCURVE",
"250 517 OFFCURVE",
"244 507 CURVE SMOOTH",
"216 461 OFFCURVE",
"196 427 OFFCURVE",
"188 401 CURVE SMOOTH",
"181 380 OFFCURVE",
"179 363 OFFCURVE",
"179 349 CURVE SMOOTH",
"179 299 OFFCURVE",
"214 284 OFFCURVE",
"241 284 CURVE SMOOTH",
"316 284 OFFCURVE",
"371 402 OFFCURVE",
"405 472 CURVE SMOOTH",
"407 477 OFFCURVE",
"408 481 OFFCURVE",
"408 484 CURVE SMOOTH",
"408 489 OFFCURVE",
"405 492 OFFCURVE",
"402 492 CURVE SMOOTH",
"398 492 OFFCURVE",
"394 489 OFFCURVE",
"390 481 CURVE SMOOTH",
"369 438 OFFCURVE",
"301 304 OFFCURVE",
"256 304 CURVE SMOOTH",
"246 304 OFFCURVE",
"237 310 OFFCURVE",
"237 331 CURVE SMOOTH",
"237 338 OFFCURVE",
"238 347 OFFCURVE",
"240 358 CURVE SMOOTH",
"252 429 OFFCURVE",
"360 618 OFFCURVE",
"360 618 CURVE",
"357 619 OFFCURVE",
"354 619 OFFCURVE",
"350 619 CURVE SMOOTH",
"309 619 OFFCURVE",
"218 562 OFFCURVE",
"174 523 CURVE SMOOTH",
"147 500 OFFCURVE",
"119 469 OFFCURVE",
"92 434 CURVE",
"176 602 OFFCURVE",
"306 848 OFFCURVE",
"350 894 CURVE",
"335 891 OFFCURVE",
"318 898 OFFCURVE",
"306 898 CURVE SMOOTH",
"275 898 OFFCURVE",
"259 875 OFFCURVE",
"236 835 CURVE SMOOTH",
"139 654 OFFCURVE",
"42 449 OFFCURVE",
"-40 280 CURVE"
);
}
);
width = 334;
}
);
note = h;
unicode = 0068;
},
{
glyphname = i;
lastChange = "2021-05-27 10:25:14 +0000";
layers = (
{
layerId = "61E7180A-0B32-4047-B910-001D8BB62225";
paths = (
{
closed = 1;
nodes = (
"161 288 OFFCURVE",
"218 415 OFFCURVE",
"244 472 CURVE SMOOTH",
"246 477 OFFCURVE",
"247 481 OFFCURVE",
"247 484 CURVE SMOOTH",
"247 489 OFFCURVE",
"245 491 OFFCURVE",
"242 491 CURVE SMOOTH",
"239 491 OFFCURVE",
"235 488 OFFCURVE",
"232 481 CURVE SMOOTH",
"204 425 OFFCURVE",
"170 362 OFFCURVE",
"137 328 CURVE SMOOTH",
"127 320 OFFCURVE",
"110 310 OFFCURVE",
"95 310 CURVE SMOOTH",
"74 310 OFFCURVE",
"66 323 OFFCURVE",
"66 341 CURVE SMOOTH",
"66 351 OFFCURVE",
"68 362 OFFCURVE",
"71 373 CURVE SMOOTH",
"72 381 OFFCURVE",
"83 402 OFFCURVE",
"83 402 CURVE",
"163 590 LINE SMOOTH",
"167 599 OFFCURVE",
"170 606 OFFCURVE",
"170 612 CURVE SMOOTH",
"170 621 OFFCURVE",
"162 626 OFFCURVE",
"142 626 CURVE SMOOTH",
"87 624 LINE",
"90 620 OFFCURVE",
"99 609 OFFCURVE",
"99 596 CURVE SMOOTH",
"99 591 OFFCURVE",
"98 587 OFFCURVE",
"96 582 CURVE SMOOTH",
"32 418 LINE SMOOTH",
"25 400 OFFCURVE",
"20 379 OFFCURVE",
"20 359 CURVE SMOOTH",
"20 322 OFFCURVE",
"37 288 OFFCURVE",
"87 288 CURVE SMOOTH"
);
},
{
closed = 1;
nodes = (
"190 666 OFFCURVE",
"213 689 OFFCURVE",
"213 715 CURVE SMOOTH",
"213 734 OFFCURVE",
"198 749 OFFCURVE",
"177 749 CURVE SMOOTH",
"153 749 OFFCURVE",
"129 727 OFFCURVE",
"129 702 CURVE SMOOTH",
"129 682 OFFCURVE",
"143 666 OFFCURVE",
"163 666 CURVE SMOOTH"
);
}
);
width = 176;
}
);
leftKerningGroup = i;
note = i;
unicode = 0069;
},
{
glyphname = j;
lastChange = "2021-05-27 10:25:14 +0000";
layers = (
{
layerId = "61E7180A-0B32-4047-B910-001D8BB62225";
paths = (
{
closed = 1;
nodes = (
"-153 -31 OFFCURVE",
"-54 123 OFFCURVE",
"11 237 CURVE",
"155 289 OFFCURVE",
"181 332 OFFCURVE",
"249 473 CURVE SMOOTH",
"252 478 OFFCURVE",
"253 482 OFFCURVE",
"253 485 CURVE SMOOTH",
"253 490 OFFCURVE",
"251 492 OFFCURVE",
"247 492 CURVE SMOOTH",
"244 492 OFFCURVE",
"239 489 OFFCURVE",
"236 481 CURVE SMOOTH",
"225 462 OFFCURVE",
"208 421 OFFCURVE",
"176 374 CURVE SMOOTH",
"130 308 OFFCURVE",
"87 292 OFFCURVE",
"27 269 CURVE",
"50 314 OFFCURVE",
"71 358 OFFCURVE",
"90 402 CURVE SMOOTH",
"170 590 LINE SMOOTH",
"174 599 OFFCURVE",
"177 606 OFFCURVE",
"177 612 CURVE SMOOTH",
"177 621 OFFCURVE",
"169 626 OFFCURVE",
"149 626 CURVE SMOOTH",
"94 624 LINE",
"97 620 OFFCURVE",
"106 608 OFFCURVE",
"106 595 CURVE SMOOTH",
"106 591 OFFCURVE",
"105 586 OFFCURVE",
"103 582 CURVE SMOOTH",
"51 466 LINE SMOOTH",
"49 463 OFFCURVE",
"49 460 OFFCURVE",
"49 458 CURVE SMOOTH",
"49 452 OFFCURVE",
"55 450 OFFCURVE",
"59 450 CURVE",
"43 415 OFFCURVE",
"13 354 OFFCURVE",
"-11 306 CURVE SMOOTH",
"-20 287 OFFCURVE",
"-32 267 OFFCURVE",
"-43 248 CURVE",
"-125 224 OFFCURVE",
"-220 208 OFFCURVE",
"-288 176 CURVE SMOOTH",
"-327 157 OFFCURVE",
"-363 130 OFFCURVE",
"-382 92 CURVE SMOOTH",
"-392 74 OFFCURVE",
"-397 56 OFFCURVE",
"-397 38 CURVE SMOOTH",
"-397 1 OFFCURVE",
"-371 -31 OFFCURVE",
"-302 -31 CURVE SMOOTH"
);
},
{
closed = 1;
nodes = (
"-358 -11 OFFCURVE",
"-373 6 OFFCURVE",
"-373 31 CURVE SMOOTH",
"-373 70 OFFCURVE",
"-335 126 OFFCURVE",
"-271 153 CURVE SMOOTH",
"-213 178 OFFCURVE",
"-127 198 OFFCURVE",
"-63 216 CURVE",
"-70 202 OFFCURVE",
"-76 189 OFFCURVE",
"-84 178 CURVE SMOOTH",
"-130 115 OFFCURVE",
"-237 -11 OFFCURVE",
"-326 -11 CURVE SMOOTH"
);
},
{
closed = 1;
nodes = (
"190 666 OFFCURVE",
"213 689 OFFCURVE",
"213 715 CURVE SMOOTH",
"213 734 OFFCURVE",
"198 749 OFFCURVE",
"177 749 CURVE SMOOTH",
"153 749 OFFCURVE",
"129 727 OFFCURVE",
"129 702 CURVE SMOOTH",
"129 682 OFFCURVE",
"143 666 OFFCURVE",
"163 666 CURVE SMOOTH"
);
}
);
width = 178;
}
);
note = j;
unicode = 006A;
},
{
glyphname = k;
lastChange = "2021-05-27 10:25:14 +0000";
layers = (
{
anchors = (
{
name = bottom;
position = "{120, 302}";
},
{
name = top;
position = "{348, 909}";
}
);
layerId = "61E7180A-0B32-4047-B910-001D8BB62225";
paths = (
{
closed = 1;
nodes = (
"296 276 OFFCURVE",
"358 292 OFFCURVE",
"437 474 CURVE SMOOTH",
"439 478 OFFCURVE",
"440 481 OFFCURVE",
"440 484 CURVE SMOOTH",
"440 489 OFFCURVE",
"437 492 OFFCURVE",
"434 492 CURVE SMOOTH",
"431 492 OFFCURVE",
"428 490 OFFCURVE",
"425 484 CURVE SMOOTH",
"397 425 OFFCURVE",
"369 373 OFFCURVE",
"343 346 CURVE SMOOTH",
"319 321 OFFCURVE",
"297 311 OFFCURVE",
"278 311 CURVE SMOOTH",
"239 311 OFFCURVE",
"213 357 OFFCURVE",
"213 409 CURVE SMOOTH",
"213 428 OFFCURVE",
"216 447 OFFCURVE",
"224 466 CURVE",
"268 470 OFFCURVE",
"296 485 OFFCURVE",
"326 505 CURVE SMOOTH",
"361 531 OFFCURVE",
"383 569 OFFCURVE",
"383 597 CURVE SMOOTH",
"383 620 OFFCURVE",
"369 636 OFFCURVE",
"339 636 CURVE SMOOTH",
"324 636 OFFCURVE",
"306 632 OFFCURVE",
"284 624 CURVE SMOOTH",
"226 602 OFFCURVE",
"163 536 OFFCURVE",
"121 484 CURVE",
"131 513 OFFCURVE",
"143 543 OFFCURVE",
"157 570 CURVE SMOOTH",
"224 702 OFFCURVE",
"327 866 OFFCURVE",
"378 905 CURVE",
"364 902 OFFCURVE",
"348 909 OFFCURVE",
"336 909 CURVE SMOOTH",
"331 909 LINE SMOOTH",
"308 909 OFFCURVE",
"288 895 OFFCURVE",
"264 859 CURVE SMOOTH",
"177 730 OFFCURVE",
"44 430 OFFCURVE",
"-24 340 CURVE SMOOTH",
"-29 333 OFFCURVE",
"-26 325 OFFCURVE",
"-21 325 CURVE SMOOTH",
"-19 325 OFFCURVE",
"-18 325 OFFCURVE",
"-16 327 CURVE SMOOTH",
"4 346 OFFCURVE",
"44 418 OFFCURVE",
"91 505 CURVE",
"60 437 OFFCURVE",
"27 379 OFFCURVE",
"8 310 CURVE SMOOTH",
"6 305 OFFCURVE",
"5 300 OFFCURVE",
"5 297 CURVE SMOOTH",
"5 291 OFFCURVE",
"8 288 OFFCURVE",
"16 288 CURVE SMOOTH",
"34 288 OFFCURVE",
"60 288 OFFCURVE",
"79 288 CURVE",
"76 291 OFFCURVE",
"74 298 OFFCURVE",
"74 308 CURVE SMOOTH",
"74 345 OFFCURVE",
"94 418 OFFCURVE",
"107 445 CURVE",
"135 482 OFFCURVE",
"163 513 OFFCURVE",
"190 536 CURVE SMOOTH",
"232 572 OFFCURVE",
"265 585 OFFCURVE",
"287 585 CURVE SMOOTH",
"306 585 OFFCURVE",
"316 575 OFFCURVE",
"316 560 CURVE SMOOTH",
"316 546 OFFCURVE",
"307 529 OFFCURVE",
"287 513 CURVE SMOOTH",
"264 493 OFFCURVE",
"229 481 OFFCURVE",
"208 482 CURVE",
"188 481 OFFCURVE",
"157 445 OFFCURVE",
"157 392 CURVE SMOOTH",
"157 384 OFFCURVE",
"157 376 OFFCURVE",
"159 367 CURVE SMOOTH",
"170 315 OFFCURVE",
"201 285 OFFCURVE",
"237 281 CURVE SMOOTH"
);
}
);
width = 364;
}
);
note = k;
unicode = 006B;
},
{
glyphname = l;
lastChange = "2021-05-27 10:25:14 +0000";
layers = (
{
anchors = (
{
name = bottom;
position = "{91, 293}";
},
{
name = center;
position = "{107, 649}";
},
{
name = top;
position = "{304, 917}";
},
{
name = topright;
position = "{383, 905}";
}
);
layerId = "61E7180A-0B32-4047-B910-001D8BB62225";
paths = (
{
closed = 1;
nodes = (
"208 285 OFFCURVE",
"260 421 OFFCURVE",
"284 474 CURVE SMOOTH",
"286 478 OFFCURVE",
"287 482 OFFCURVE",
"287 485 CURVE SMOOTH",
"287 489 OFFCURVE",
"285 491 OFFCURVE",
"282 491 CURVE SMOOTH",
"279 491 OFFCURVE",
"273 487 OFFCURVE",
"269 480 CURVE SMOOTH",
"256 453 OFFCURVE",
"228 399 OFFCURVE",
"196 352 CURVE SMOOTH",
"175 322 OFFCURVE",
"149 307 OFFCURVE",
"128 307 CURVE SMOOTH",
"104 307 OFFCURVE",
"85 328 OFFCURVE",
"85 369 CURVE SMOOTH",
"85 382 OFFCURVE",
"87 397 OFFCURVE",
"91 415 CURVE SMOOTH",
"98 441 OFFCURVE",
"107 465 OFFCURVE",
"113 481 CURVE",
"212 571 OFFCURVE",
"272 679 OFFCURVE",
"319 783 CURVE SMOOTH",
"336 820 OFFCURVE",
"343 849 OFFCURVE",
"343 871 CURVE SMOOTH",
"343 902 OFFCURVE",
"329 917 OFFCURVE",
"308 917 CURVE SMOOTH",
"281 917 OFFCURVE",
"243 891 OFFCURVE",
"212 839 CURVE SMOOTH",
"153 741 OFFCURVE",
"90 596 OFFCURVE",
"59 484 CURVE SMOOTH",
"50 453 OFFCURVE",
"34 403 OFFCURVE",
"34 361 CURVE SMOOTH",
"34 319 OFFCURVE",
"50 285 OFFCURVE",
"106 285 CURVE SMOOTH"
);
},
{
closed = 1;
nodes = (
"151 594 OFFCURVE",
"230 775 OFFCURVE",
"280 843 CURVE SMOOTH",
"297 867 OFFCURVE",
"307 876 OFFCURVE",
"313 876 CURVE SMOOTH",
"318 876 OFFCURVE",
"320 871 OFFCURVE",
"320 862 CURVE SMOOTH",
"320 846 OFFCURVE",
"313 819 OFFCURVE",
"304 799 CURVE SMOOTH",
"264 705 OFFCURVE",
"192 586 OFFCURVE",
"121 513 CURVE"
);
}
);
width = 213;
}
);
note = l;
unicode = 006C;
},
{
glyphname = m;
lastChange = "2021-05-27 10:25:14 +0000";
layers = (
{
layerId = "61E7180A-0B32-4047-B910-001D8BB62225";
paths = (
{
closed = 1;
nodes = (
"-27 288 OFFCURVE",
"-19 288 OFFCURVE",
"-4 288 CURVE SMOOTH",
"19 288 OFFCURVE",
"27 289 OFFCURVE",
"35 304 CURVE SMOOTH",
"91 415 OFFCURVE",
"139 469 OFFCURVE",
"173 501 CURVE SMOOTH",
"210 535 OFFCURVE",
"231 548 OFFCURVE",
"240 548 CURVE SMOOTH",
"244 548 OFFCURVE",
"246 545 OFFCURVE",
"246 540 CURVE SMOOTH",
"246 524 OFFCURVE",
"230 490 OFFCURVE",
"213 457 CURVE SMOOTH",
"196 421 OFFCURVE",
"178 387 OFFCURVE",
"172 343 CURVE SMOOTH",
"171 338 OFFCURVE",
"171 334 OFFCURVE",
"171 330 CURVE SMOOTH",
"171 307 OFFCURVE",
"184 288 OFFCURVE",
"204 288 CURVE",
"216 348 OFFCURVE",
"302 461 OFFCURVE",
"344 501 CURVE SMOOTH",
"379 534 OFFCURVE",
"402 546 OFFCURVE",
"415 546 CURVE SMOOTH",
"423 546 OFFCURVE",
"427 541 OFFCURVE",
"427 534 CURVE SMOOTH",
"427 527 OFFCURVE",
"423 517 OFFCURVE",
"417 507 CURVE SMOOTH",
"389 461 OFFCURVE",
"369 427 OFFCURVE",
"360 401 CURVE SMOOTH",
"354 381 OFFCURVE",
"351 364 OFFCURVE",
"351 350 CURVE SMOOTH",
"351 299 OFFCURVE",
"387 284 OFFCURVE",
"415 284 CURVE SMOOTH",
"492 284 OFFCURVE",
"551 411 OFFCURVE",
"582 473 CURVE SMOOTH",
"584 477 OFFCURVE",
"585 481 OFFCURVE",
"585 484 CURVE SMOOTH",
"585 489 OFFCURVE",
"582 492 OFFCURVE",
"579 492 CURVE SMOOTH",
"575 492 OFFCURVE",
"570 489 OFFCURVE",
"567 481 CURVE SMOOTH",
"545 436 OFFCURVE",
"481 308 OFFCURVE",
"429 308 CURVE SMOOTH",
"420 308 OFFCURVE",
"410 313 OFFCURVE",
"410 334 CURVE SMOOTH",
"410 341 OFFCURVE",
"411 349 OFFCURVE",
"413 358 CURVE SMOOTH",
"426 429 OFFCURVE",
"533 618 OFFCURVE",
"533 618 CURVE",
"530 619 OFFCURVE",
"527 619 OFFCURVE",
"523 619 CURVE SMOOTH",
"483 619 OFFCURVE",
"391 562 OFFCURVE",
"347 523 CURVE SMOOTH",
"316 496 OFFCURVE",
"284 457 OFFCURVE",
"264 433 CURVE",
"288 481 OFFCURVE",
"319 531 OFFCURVE",
"336 574 CURVE SMOOTH",
"339 581 OFFCURVE",
"341 587 OFFCURVE",
"341 592 CURVE SMOOTH",
"341 604 OFFCURVE",
"334 613 OFFCURVE",
"322 618 CURVE SMOOTH",
"319 619 OFFCURVE",
"316 619 OFFCURVE",
"313 619 CURVE SMOOTH",
"278 619 OFFCURVE",
"220 562 OFFCURVE",
"176 523 CURVE SMOOTH",
"143 496 OFFCURVE",
"111 457 OFFCURVE",
"91 433 CURVE",
"127 505 OFFCURVE",
"184 606 OFFCURVE",
"213 622 CURVE",
"210 621 OFFCURVE",
"207 621 OFFCURVE",
"204 621 CURVE SMOOTH",
"192 621 OFFCURVE",
"179 626 OFFCURVE",
"169 626 CURVE SMOOTH",
"138 626 OFFCURVE",
"125 609 OFFCURVE",
"99 561 CURVE SMOOTH",
"51 472 OFFCURVE",
"11 378 OFFCURVE",
"-38 283 CURVE"
);
}
);
width = 509;
}
);
note = m;
unicode = 006D;
},
{
glyphname = n;
lastChange = "2021-05-27 10:25:14 +0000";
layers = (
{
anchors = (
{
name = bottom;
position = "{102, 275}";
},
{
name = top;
position = "{273, 626}";
}
);
layerId = "61E7180A-0B32-4047-B910-001D8BB62225";
paths = (
{
closed = 1;
nodes = (
"-29 287 OFFCURVE",
"-20 285 OFFCURVE",
"-5 287 CURVE SMOOTH",
"16 287 OFFCURVE",
"25 288 OFFCURVE",
"34 302 CURVE SMOOTH",
"90 413 OFFCURVE",
"139 469 OFFCURVE",
"173 501 CURVE SMOOTH",
"208 534 OFFCURVE",
"231 546 OFFCURVE",
"243 546 CURVE SMOOTH",
"250 546 OFFCURVE",
"254 541 OFFCURVE",
"254 534 CURVE SMOOTH",
"254 527 OFFCURVE",
"251 517 OFFCURVE",
"244 507 CURVE SMOOTH",
"216 461 OFFCURVE",
"197 427 OFFCURVE",
"189 401 CURVE SMOOTH",
"182 381 OFFCURVE",
"180 364 OFFCURVE",
"180 350 CURVE SMOOTH",
"180 299 OFFCURVE",
"216 284 OFFCURVE",
"243 284 CURVE SMOOTH",
"320 284 OFFCURVE",
"378 411 OFFCURVE",
"409 473 CURVE SMOOTH",
"411 477 OFFCURVE",
"412 481 OFFCURVE",
"412 484 CURVE SMOOTH",
"412 489 OFFCURVE",
"409 492 OFFCURVE",
"406 492 CURVE SMOOTH",
"402 492 OFFCURVE",
"397 489 OFFCURVE",
"394 481 CURVE SMOOTH",
"373 440 OFFCURVE",
"308 308 OFFCURVE",
"256 308 CURVE SMOOTH",
"247 308 OFFCURVE",
"237 313 OFFCURVE",
"237 334 CURVE SMOOTH",
"237 341 OFFCURVE",
"238 349 OFFCURVE",
"240 358 CURVE SMOOTH",
"253 429 OFFCURVE",
"360 618 OFFCURVE",
"360 618 CURVE",
"357 619 OFFCURVE",
"354 619 OFFCURVE",
"350 619 CURVE SMOOTH",
"310 619 OFFCURVE",
"220 562 OFFCURVE",
"176 523 CURVE SMOOTH",
"143 496 OFFCURVE",
"111 457 OFFCURVE",
"91 433 CURVE",
"127 505 OFFCURVE",
"184 606 OFFCURVE",
"213 622 CURVE",
"210 621 OFFCURVE",
"207 621 OFFCURVE",
"204 621 CURVE SMOOTH",
"192 621 OFFCURVE",
"179 626 OFFCURVE",
"169 626 CURVE SMOOTH",
"138 626 OFFCURVE",
"125 609 OFFCURVE",
"99 561 CURVE SMOOTH",
"51 472 OFFCURVE",
"9 377 OFFCURVE",
"-39 280 CURVE"
);
}
);
width = 336;
}
);
note = n;
unicode = 006E;
},
{
glyphname = o;
lastChange = "2021-05-27 10:25:14 +0000";
layers = (
{
anchors = (
{
name = bottom;
position = "{59, 297}";
},
{
name = center;
position = "{168, 313}";
},
{
name = ogonek;
position = "{86, 299}";
},
{
name = top;
position = "{243, 639}";
},
{
name = topright;
position = "{265, 595}";
}
);
layerId = "61E7180A-0B32-4047-B910-001D8BB62225";
paths = (
{
closed = 1;
nodes = (
"132 288 OFFCURVE",
"160 301 OFFCURVE",
"188 322 CURVE",
"201 307 OFFCURVE",
"222 296 OFFCURVE",
"252 296 CURVE SMOOTH",
"336 296 OFFCURVE",
"393 438 OFFCURVE",
"410 477 CURVE SMOOTH",
"414 486 OFFCURVE",
"410 491 OFFCURVE",
"405 491 CURVE SMOOTH",
"401 491 OFFCURVE",
"397 489 OFFCURVE",
"395 485 CURVE SMOOTH",
"371 437 OFFCURVE",
"319 312 OFFCURVE",
"255 312 CURVE SMOOTH",
"230 312 OFFCURVE",
"216 323 OFFCURVE",
"208 338 CURVE",
"245 374 OFFCURVE",
"276 421 OFFCURVE",
"292 457 CURVE SMOOTH",
"306 489 OFFCURVE",
"313 522 OFFCURVE",
"313 551 CURVE SMOOTH",
"313 602 OFFCURVE",
"290 639 OFFCURVE",
"239 639 CURVE SMOOTH",
"171 639 OFFCURVE",
"90 561 OFFCURVE",
"51 470 CURVE SMOOTH",
"37 437 OFFCURVE",
"30 405 OFFCURVE",
"30 376 CURVE SMOOTH",
"30 326 OFFCURVE",
"53 288 OFFCURVE",
"104 288 CURVE SMOOTH"
);
},
{
closed = 1;
nodes = (
"96 310 OFFCURVE",
"86 327 OFFCURVE",
"86 354 CURVE SMOOTH",
"86 385 OFFCURVE",
"99 428 OFFCURVE",
"121 474 CURVE SMOOTH",
"155 547 OFFCURVE",
"210 607 OFFCURVE",
"253 607 CURVE SMOOTH",
"277 607 OFFCURVE",
"289 588 OFFCURVE",
"289 558 CURVE SMOOTH",
"289 528 OFFCURVE",
"277 486 OFFCURVE",
"256 441 CURVE SMOOTH",
"247 422 OFFCURVE",
"236 403 OFFCURVE",
"224 387 CURVE",
"225 391 OFFCURVE",
"226 394 OFFCURVE",
"226 398 CURVE SMOOTH",
"226 414 OFFCURVE",
"213 429 OFFCURVE",
"196 429 CURVE SMOOTH",
"172 429 OFFCURVE",
"162 409 OFFCURVE",
"161 385 CURVE SMOOTH",
"161 370 OFFCURVE",
"166 352 OFFCURVE",
"177 336 CURVE",
"157 319 OFFCURVE",
"136 310 OFFCURVE",
"119 310 CURVE SMOOTH"
);
}
);
width = 336;
}
);
note = o;
unicode = 006F;
},
{
glyphname = p;
lastChange = "2021-05-27 10:25:14 +0000";
layers = (
{
layerId = "61E7180A-0B32-4047-B910-001D8BB62225";
paths = (
{
closed = 1;
nodes = (
"-69 15 OFFCURVE",
"-55 27 OFFCURVE",
"-36 67 CURVE",
"59 306 LINE",
"81 293 OFFCURVE",
"105 287 OFFCURVE",
"128 287 CURVE SMOOTH",
"182 287 OFFCURVE",
"237 317 OFFCURVE",
"275 364 CURVE SMOOTH",
"320 419 OFFCURVE",
"359 502 OFFCURVE",
"359 563 CURVE SMOOTH",
"359 600 OFFCURVE",
"345 630 OFFCURVE",
"308 639 CURVE SMOOTH",
"304 640 OFFCURVE",
"299 641 OFFCURVE",
"295 641 CURVE SMOOTH",
"230 641 OFFCURVE",
"157 517 OFFCURVE",
"129 470 CURVE",
"143 508 OFFCURVE",
"157 567 OFFCURVE",
"157 601 CURVE SMOOTH",
"157 628 OFFCURVE",
"153 634 OFFCURVE",
"141 634 CURVE SMOOTH",
"136 634 OFFCURVE",
"129 633 OFFCURVE",
"121 632 CURVE SMOOTH",
"113 631 OFFCURVE",
"71 624 OFFCURVE",
"71 624 CURVE",
"81 622 OFFCURVE",
"85 608 OFFCURVE",
"85 589 CURVE SMOOTH",
"85 562 OFFCURVE",
"77 525 OFFCURVE",
"66 498 CURVE SMOOTH",
"60 486 OFFCURVE",
"51 464 OFFCURVE",
"46 453 CURVE SMOOTH",
"39 440 OFFCURVE",
"58 445 OFFCURVE",
"68 462 CURVE",
"51 371 OFFCURVE",
"-121 44 OFFCURVE",
"-146 20 CURVE",
"-129 23 OFFCURVE",
"-112 15 OFFCURVE",
"-96 15 CURVE SMOOTH"
);
},
{
closed = 1;
nodes = (
"85 308 OFFCURVE",
"75 312 OFFCURVE",
"67 320 CURVE",
"115 409 OFFCURVE",
"163 497 OFFCURVE",
"202 549 CURVE SMOOTH",
"234 594 OFFCURVE",
"263 613 OFFCURVE",
"282 613 CURVE SMOOTH",
"300 613 OFFCURVE",
"310 599 OFFCURVE",
"310 574 CURVE SMOOTH",
"310 551 OFFCURVE",
"301 519 OFFCURVE",
"281 482 CURVE SMOOTH",
"237 399 OFFCURVE",
"152 308 OFFCURVE",
"96 308 CURVE SMOOTH"
);
}
);
width = 338;
}
);
note = p;
unicode = 0070;
},
{
glyphname = q;
lastChange = "2021-05-27 10:25:14 +0000";
layers = (
{
layerId = "61E7180A-0B32-4047-B910-001D8BB62225";
paths = (
{
closed = 1;
nodes = (
"141 62 OFFCURVE",
"291 423 OFFCURVE",
"369 541 CURVE",
"354 540 OFFCURVE",
"338 545 OFFCURVE",
"326 545 CURVE SMOOTH",
"300 548 OFFCURVE",
"291 540 OFFCURVE",
"264 496 CURVE SMOOTH",
"241 456 OFFCURVE",
"162 318 OFFCURVE",
"107 318 CURVE SMOOTH",
"104 318 OFFCURVE",
"100 318 OFFCURVE",
"96 320 CURVE SMOOTH",
"82 326 OFFCURVE",
"76 339 OFFCURVE",
"76 357 CURVE SMOOTH",
"76 440 OFFCURVE",
"212 623 OFFCURVE",
"291 623 CURVE SMOOTH",
"311 623 OFFCURVE",
"326 612 OFFCURVE",
"336 586 CURVE SMOOTH",
"339 577 OFFCURVE",
"345 573 OFFCURVE",
"350 573 CURVE SMOOTH",
"356 573 OFFCURVE",
"362 579 OFFCURVE",
"362 588 CURVE SMOOTH",
"362 596 OFFCURVE",
"358 605 OFFCURVE",
"346 614 CURVE SMOOTH",
"320 635 OFFCURVE",
"290 645 OFFCURVE",
"261 645 CURVE SMOOTH",
"207 645 OFFCURVE",
"152 614 OFFCURVE",
"114 568 CURVE SMOOTH",
"67 513 OFFCURVE",
"26 436 OFFCURVE",
"26 376 CURVE SMOOTH",
"26 339 OFFCURVE",
"41 308 OFFCURVE",
"79 292 CURVE",
"86 290 OFFCURVE",
"92 289 OFFCURVE",
"99 289 CURVE SMOOTH",
"134 289 OFFCURVE",
"166 316 OFFCURVE",
"190 344 CURVE SMOOTH",
"200 356 OFFCURVE",
"255 436 OFFCURVE",
"260 446 CURVE",
"218 352 OFFCURVE",
"190 312 OFFCURVE",
"109 125 CURVE SMOOTH",
"97 99 OFFCURVE",
"89 79 OFFCURVE",
"89 63 CURVE SMOOTH",
"89 50 OFFCURVE",
"93 40 OFFCURVE",
"103 29 CURVE SMOOTH",
"111 20 OFFCURVE",
"125 11 OFFCURVE",
"131 -1 CURVE"
);
}
);
width = 344;
}
);
note = q;
unicode = 0071;
},
{
glyphname = r;
lastChange = "2021-05-27 10:25:14 +0000";
layers = (
{
anchors = (
{
name = bottom;
position = "{60, 311}";
},
{
name = top;
position = "{236, 707}";
}
);
layerId = "61E7180A-0B32-4047-B910-001D8BB62225";
paths = (
{
closed = 1;
nodes = (
"179 287 OFFCURVE",
"183 287 OFFCURVE",
"186 288 CURVE SMOOTH",
"252 304 OFFCURVE",
"303 411 OFFCURVE",
"332 472 CURVE SMOOTH",
"334 477 OFFCURVE",
"335 481 OFFCURVE",
"335 484 CURVE SMOOTH",
"335 489 OFFCURVE",
"333 491 OFFCURVE",
"331 491 CURVE SMOOTH",
"327 491 OFFCURVE",
"323 488 OFFCURVE",
"320 481 CURVE SMOOTH",
"299 438 OFFCURVE",
"237 314 OFFCURVE",
"197 314 CURVE SMOOTH",
"182 314 OFFCURVE",
"177 324 OFFCURVE",
"177 340 CURVE SMOOTH",
"177 392 OFFCURVE",
"240 508 OFFCURVE",
"252 532 CURVE SMOOTH",
"262 553 OFFCURVE",
"275 583 OFFCURVE",
"275 601 CURVE SMOOTH",
"275 604 OFFCURVE",
"274 607 OFFCURVE",
"273 610 CURVE",
"242 606 OFFCURVE",
"209 604 OFFCURVE",
"180 604 CURVE SMOOTH",
"163 604 OFFCURVE",
"148 605 OFFCURVE",
"135 606 CURVE",
"151 618 OFFCURVE",
"184 645 OFFCURVE",
"190 673 CURVE SMOOTH",
"191 680 OFFCURVE",
"192 686 OFFCURVE",
"192 692 CURVE SMOOTH",
"192 722 OFFCURVE",
"174 740 OFFCURVE",
"157 740 CURVE SMOOTH",
"145 740 OFFCURVE",
"133 730 OFFCURVE",
"129 709 CURVE SMOOTH",
"109 596 OFFCURVE",
"54 445 OFFCURVE",
"-27 340 CURVE SMOOTH",
"-31 333 OFFCURVE",
"-29 325 OFFCURVE",
"-24 325 CURVE SMOOTH",
"-22 325 OFFCURVE",
"-21 325 OFFCURVE",
"-19 327 CURVE SMOOTH",
"31 374 OFFCURVE",
"80 485 OFFCURVE",
"103 549 CURVE SMOOTH",
"115 582 LINE",
"163 580 OFFCURVE",
"196 571 OFFCURVE",
"196 547 CURVE SMOOTH",
"196 543 OFFCURVE",
"195 538 OFFCURVE",
"193 533 CURVE SMOOTH",
"182 509 OFFCURVE",
"146 457 OFFCURVE",
"131 415 CURVE SMOOTH",
"122 391 OFFCURVE",
"118 370 OFFCURVE",
"118 353 CURVE SMOOTH",
"118 306 OFFCURVE",
"149 287 OFFCURVE",
"175 287 CURVE SMOOTH"
);
}
);
width = 261;
}
);
note = r;
unicode = 0072;
},
{
glyphname = s;
lastChange = "2021-05-27 10:25:14 +0000";
layers = (
{
anchors = (
{
name = bottom;
position = "{90, 294}";
},
{
name = top;
position = "{198, 686}";
}
);
layerId = "61E7180A-0B32-4047-B910-001D8BB62225";
paths = (
{
closed = 1;
nodes = (
"91 284 OFFCURVE",
"106 288 OFFCURVE",
"119 293 CURVE",
"131 289 OFFCURVE",
"143 288 OFFCURVE",
"154 288 CURVE SMOOTH",
"245 288 OFFCURVE",
"297 403 OFFCURVE",
"331 477 CURVE SMOOTH",
"334 484 OFFCURVE",
"329 489 OFFCURVE",
"323 489 CURVE SMOOTH",
"320 489 OFFCURVE",
"317 487 OFFCURVE",
"316 484 CURVE SMOOTH",
"295 442 OFFCURVE",
"264 381 OFFCURVE",
"240 352 CURVE SMOOTH",
"218 325 OFFCURVE",
"190 305 OFFCURVE",
"160 305 CURVE SMOOTH",
"157 305 OFFCURVE",
"153 306 OFFCURVE",
"150 306 CURVE SMOOTH",
"143 307 LINE",
"184 333 OFFCURVE",
"214 384 OFFCURVE",
"214 424 CURVE SMOOTH",
"214 465 OFFCURVE",
"193 500 OFFCURVE",
"178 537 CURVE SMOOTH",
"171 554 OFFCURVE",
"166 577 OFFCURVE",
"166 599 CURVE SMOOTH",
"166 626 OFFCURVE",
"174 652 OFFCURVE",
"200 665 CURVE SMOOTH",
"203 667 OFFCURVE",
"207 668 OFFCURVE",
"211 668 CURVE SMOOTH",
"218 668 OFFCURVE",
"225 666 OFFCURVE",
"232 663 CURVE SMOOTH",
"235 661 OFFCURVE",
"238 660 OFFCURVE",
"240 660 CURVE SMOOTH",
"245 660 OFFCURVE",
"247 663 OFFCURVE",
"247 666 CURVE SMOOTH",
"247 671 OFFCURVE",
"244 677 OFFCURVE",
"236 681 CURVE SMOOTH",
"227 685 OFFCURVE",
"218 686 OFFCURVE",
"208 686 CURVE SMOOTH",
"205 686 OFFCURVE",
"201 686 OFFCURVE",
"198 686 CURVE SMOOTH",
"163 681 OFFCURVE",
"133 638 OFFCURVE",
"115 599 CURVE SMOOTH",
"88 541 OFFCURVE",
"55 477 OFFCURVE",
"28 425 CURVE",
"6 424 OFFCURVE",
"-11 394 OFFCURVE",
"-11 363 CURVE SMOOTH",
"-11 325 OFFCURVE",
"13 284 OFFCURVE",
"79 284 CURVE SMOOTH"
);
},
{
closed = 1;
nodes = (
"47 300 OFFCURVE",
"33 318 OFFCURVE",
"33 340 CURVE SMOOTH",
"33 353 OFFCURVE",
"39 368 OFFCURVE",
"51 381 CURVE",
"54 342 OFFCURVE",
"71 318 OFFCURVE",
"91 304 CURVE",
"86 302 OFFCURVE",
"79 300 OFFCURVE",
"71 300 CURVE SMOOTH"
);
},
{
closed = 1;
nodes = (
"86 324 OFFCURVE",
"64 352 OFFCURVE",
"67 391 CURVE SMOOTH",
"67 425 OFFCURVE",
"46 423 OFFCURVE",
"46 423 CURVE",
"70 468 OFFCURVE",
"113 555 OFFCURVE",
"139 610 CURVE",
"138 603 OFFCURVE",
"137 596 OFFCURVE",
"137 587 CURVE SMOOTH",
"137 542 OFFCURVE",
"153 478 OFFCURVE",
"153 426 CURVE SMOOTH",
"153 367 OFFCURVE",
"132 332 OFFCURVE",
"109 314 CURVE"
);
}
);
width = 257;
}
);
leftKerningGroup = s;
note = s;
unicode = 0073;
},
{
glyphname = t;
lastChange = "2021-05-27 10:25:14 +0000";
layers = (
{
anchors = (
{
name = bottom;
position = "{97, 296}";
},
{
name = center;
position = "{101, 313}";
},
{
name = top;
position = "{288, 890}";
},
{
name = topright;
position = "{357, 888}";
}
);
layerId = "61E7180A-0B32-4047-B910-001D8BB62225";
paths = (
{
closed = 1;
nodes = (
"129 288 OFFCURVE",
"154 297 OFFCURVE",
"173 316 CURVE SMOOTH",
"210 352 OFFCURVE",
"228 381 OFFCURVE",
"272 473 CURVE SMOOTH",
"274 478 OFFCURVE",
"275 481 OFFCURVE",
"275 484 CURVE SMOOTH",
"275 488 OFFCURVE",
"273 490 OFFCURVE",
"271 490 CURVE SMOOTH",
"267 490 OFFCURVE",
"263 486 OFFCURVE",
"259 478 CURVE SMOOTH",
"232 425 OFFCURVE",
"198 360 OFFCURVE",
"151 327 CURVE SMOOTH",
"141 319 OFFCURVE",
"128 315 OFFCURVE",
"117 315 CURVE SMOOTH",
"99 315 OFFCURVE",
"84 327 OFFCURVE",
"84 355 CURVE SMOOTH",
"84 362 OFFCURVE",
"85 370 OFFCURVE",
"87 379 CURVE",
"87 379 OFFCURVE",
"102 456 OFFCURVE",
"111 481 CURVE",
"170 536 OFFCURVE",
"210 590 OFFCURVE",
"244 647 CURVE",
"303 647 LINE SMOOTH",
"308 647 OFFCURVE",
"311 654 OFFCURVE",
"311 660 CURVE SMOOTH",
"311 665 OFFCURVE",
"309 670 OFFCURVE",
"304 670 CURVE SMOOTH",
"256 670 LINE",
"272 698 OFFCURVE",
"285 726 OFFCURVE",
"300 756 CURVE SMOOTH",
"317 794 OFFCURVE",
"325 824 OFFCURVE",
"325 846 CURVE SMOOTH",
"325 877 OFFCURVE",
"310 892 OFFCURVE",
"290 892 CURVE SMOOTH",
"264 892 OFFCURVE",
"226 865 OFFCURVE",
"196 812 CURVE SMOOTH",
"172 769 OFFCURVE",
"146 720 OFFCURVE",
"123 670 CURVE",
"63 670 LINE SMOOTH",
"56 670 OFFCURVE",
"53 663 OFFCURVE",
"53 657 CURVE SMOOTH",
"53 652 OFFCURVE",
"55 647 OFFCURVE",
"60 647 CURVE SMOOTH",
"113 647 LINE",
"76 561 OFFCURVE",
"33 434 OFFCURVE",
"33 369 CURVE SMOOTH",
"33 313 OFFCURVE",
"67 288 OFFCURVE",
"105 288 CURVE SMOOTH"
);
},
{
closed = 1;
nodes = (
"134 549 OFFCURVE",
"153 598 OFFCURVE",
"174 647 CURVE",
"221 647 LINE",
"192 599 OFFCURVE",
"158 553 OFFCURVE",
"119 513 CURVE"
);
},
{
closed = 1;
nodes = (
"209 726 OFFCURVE",
"232 783 OFFCURVE",
"256 816 CURVE SMOOTH",
"275 843 OFFCURVE",
"287 853 OFFCURVE",
"294 853 CURVE SMOOTH",
"299 853 OFFCURVE",
"301 847 OFFCURVE",
"301 838 CURVE SMOOTH",
"301 821 OFFCURVE",
"293 792 OFFCURVE",
"284 772 CURVE SMOOTH",
"271 738 OFFCURVE",
"253 704 OFFCURVE",
"235 670 CURVE",
"184 670 LINE"
);
}
);
width = 201;
}
);
note = t;
unicode = 0074;
},
{
glyphname = u;
lastChange = "2021-05-27 10:25:14 +0000";
layers = (
{
anchors = (
{
name = bottom;
position = "{102, 288}";
},
{
name = ogonek;
position = "{271, 304}";
},
{
name = top;
position = "{265, 626}";
},
{
name = topright;
position = "{312, 613}";
}
);
layerId = "61E7180A-0B32-4047-B910-001D8BB62225";
paths = (
{
closed = 1;
nodes = (
"138 288 OFFCURVE",
"190 356 OFFCURVE",
"224 417 CURVE",
"217 395 OFFCURVE",
"214 376 OFFCURVE",
"214 359 CURVE SMOOTH",
"214 314 OFFCURVE",
"237 288 OFFCURVE",
"271 288 CURVE SMOOTH",
"344 288 OFFCURVE",
"398 405 OFFCURVE",
"430 473 CURVE SMOOTH",
"433 478 OFFCURVE",
"434 482 OFFCURVE",
"434 485 CURVE SMOOTH",
"434 490 OFFCURVE",
"432 492 OFFCURVE",
"428 492 CURVE SMOOTH",
"425 492 OFFCURVE",
"420 489 OFFCURVE",
"417 481 CURVE SMOOTH",
"382 409 OFFCURVE",
"332 314 OFFCURVE",
"283 314 CURVE SMOOTH",
"271 315 OFFCURVE",
"261 324 OFFCURVE",
"261 349 CURVE SMOOTH",
"261 356 OFFCURVE",
"262 364 OFFCURVE",
"264 374 CURVE SMOOTH",
"269 409 OFFCURVE",
"303 477 OFFCURVE",
"331 533 CURVE SMOOTH",
"360 596 OFFCURVE",
"371 610 OFFCURVE",
"401 634 CURVE",
"397 634 OFFCURVE",
"373 634 OFFCURVE",
"346 634 CURVE SMOOTH",
"327 634 OFFCURVE",
"315 628 OFFCURVE",
"307 612 CURVE SMOOTH",
"268 533 OFFCURVE",
"213 415 OFFCURVE",
"157 350 CURVE SMOOTH",
"134 324 OFFCURVE",
"113 311 OFFCURVE",
"99 311 CURVE SMOOTH",
"85 311 OFFCURVE",
"77 323 OFFCURVE",
"77 344 CURVE SMOOTH",
"77 362 OFFCURVE",
"83 388 OFFCURVE",
"98 419 CURVE SMOOTH",
"115 457 OFFCURVE",
"161 549 OFFCURVE",
"161 549 CURVE",
"188 604 OFFCURVE",
"202 616 OFFCURVE",
"225 634 CURVE",
"221 634 OFFCURVE",
"192 634 OFFCURVE",
"163 634 CURVE SMOOTH",
"145 634 OFFCURVE",
"133 628 OFFCURVE",
"125 612 CURVE SMOOTH",
"110 582 OFFCURVE",
"88 540 OFFCURVE",
"68 501 CURVE SMOOTH",
"63 489 OFFCURVE",
"56 477 OFFCURVE",
"51 466 CURVE SMOOTH",
"49 463 OFFCURVE",
"49 460 OFFCURVE",
"49 458 CURVE SMOOTH",
"49 452 OFFCURVE",
"55 450 OFFCURVE",
"59 450 CURVE",
"44 419 OFFCURVE",
"23 387 OFFCURVE",
"23 352 CURVE SMOOTH",
"23 298 OFFCURVE",
"65 288 OFFCURVE",
"88 288 CURVE SMOOTH"
);
}
);
width = 359;
}
);
note = u;
rightKerningGroup = u;
unicode = 0075;
},
{
glyphname = v;
lastChange = "2021-05-27 10:25:14 +0000";
layers = (
{
layerId = "61E7180A-0B32-4047-B910-001D8BB62225";
paths = (
{
closed = 1;
nodes = (
"219 281 OFFCURVE",
"297 551 OFFCURVE",
"320 620 CURVE",
"320 622 OFFCURVE",
"320 624 OFFCURVE",
"322 626 CURVE",
"324 631 OFFCURVE",
"325 635 OFFCURVE",
"325 638 CURVE SMOOTH",
"325 649 OFFCURVE",
"317 655 OFFCURVE",
"306 655 CURVE SMOOTH",
"286 655 OFFCURVE",
"252 633 OFFCURVE",
"236 580 CURVE SMOOTH",
"233 570 OFFCURVE",
"231 557 OFFCURVE",
"231 544 CURVE SMOOTH",
"231 522 OFFCURVE",
"235 499 OFFCURVE",
"244 480 CURVE",
"208 391 OFFCURVE",
"161 313 OFFCURVE",
"116 313 CURVE SMOOTH",
"112 313 OFFCURVE",
"107 314 OFFCURVE",
"102 316 CURVE SMOOTH",
"94 320 OFFCURVE",
"91 329 OFFCURVE",
"91 342 CURVE SMOOTH",
"91 372 OFFCURVE",
"109 423 OFFCURVE",
"126 469 CURVE SMOOTH",
"139 503 OFFCURVE",
"154 557 OFFCURVE",
"155 591 CURVE SMOOTH",
"156 627 OFFCURVE",
"152 634 OFFCURVE",
"139 634 CURVE SMOOTH",
"133 634 OFFCURVE",
"127 633 OFFCURVE",
"119 632 CURVE SMOOTH",
"111 631 OFFCURVE",
"70 624 OFFCURVE",
"70 624 CURVE",
"81 621 OFFCURVE",
"86 605 OFFCURVE",
"86 584 CURVE SMOOTH",
"86 557 OFFCURVE",
"78 522 OFFCURVE",
"67 500 CURVE SMOOTH",
"60 488 OFFCURVE",
"55 477 OFFCURVE",
"48 465 CURVE SMOOTH",
"45 457 OFFCURVE",
"48 452 OFFCURVE",
"53 452 CURVE SMOOTH",
"57 452 OFFCURVE",
"62 455 OFFCURVE",
"67 462 CURVE",
"52 419 OFFCURVE",
"37 373 OFFCURVE",
"37 338 CURVE SMOOTH",
"37 304 OFFCURVE",
"51 281 OFFCURVE",
"92 281 CURVE SMOOTH"
);
}
);
width = 264;
}
);
note = v;
unicode = 0076;
},
{
glyphname = w;
lastChange = "2021-05-27 10:25:14 +0000";
layers = (
{
anchors = (
{
name = bottom;
position = "{161, 267}";
},
{
name = top;
position = "{338, 634}";
}
);
layerId = "61E7180A-0B32-4047-B910-001D8BB62225";
paths = (
{
closed = 1;
nodes = (
"410 286 OFFCURVE",
"481 555 OFFCURVE",
"501 622 CURVE",
"501 623 OFFCURVE",
"501 626 OFFCURVE",
"503 626 CURVE",
"505 631 OFFCURVE",
"506 635 OFFCURVE",
"506 638 CURVE SMOOTH",
"506 649 OFFCURVE",
"499 655 OFFCURVE",
"489 655 CURVE SMOOTH",
"469 655 OFFCURVE",
"438 634 OFFCURVE",
"422 582 CURVE SMOOTH",
"419 571 OFFCURVE",
"418 559 OFFCURVE",
"418 546 CURVE SMOOTH",
"418 524 OFFCURVE",
"422 501 OFFCURVE",
"430 481 CURVE",
"394 387 OFFCURVE",
"342 306 OFFCURVE",
"287 306 CURVE SMOOTH",
"265 306 OFFCURVE",
"257 321 OFFCURVE",
"257 342 CURVE SMOOTH",
"257 391 OFFCURVE",
"296 472 OFFCURVE",
"304 490 CURVE SMOOTH",
"330 545 OFFCURVE",
"338 561 OFFCURVE",
"359 596 CURVE SMOOTH",
"371 618 OFFCURVE",
"391 626 OFFCURVE",
"399 634 CURVE",
"397 634 OFFCURVE",
"364 634 OFFCURVE",
"338 634 CURVE SMOOTH",
"320 634 OFFCURVE",
"307 628 OFFCURVE",
"300 612 CURVE SMOOTH",
"276 564 OFFCURVE",
"198 389 OFFCURVE",
"137 330 CURVE SMOOTH",
"123 316 OFFCURVE",
"110 310 OFFCURVE",
"101 310 CURVE SMOOTH",
"87 310 OFFCURVE",
"78 323 OFFCURVE",
"78 345 CURVE SMOOTH",
"78 363 OFFCURVE",
"84 389 OFFCURVE",
"98 419 CURVE SMOOTH",
"115 457 OFFCURVE",
"161 549 OFFCURVE",
"161 549 CURVE",
"188 604 OFFCURVE",
"202 616 OFFCURVE",
"225 634 CURVE",
"221 634 OFFCURVE",
"190 634 OFFCURVE",
"163 634 CURVE SMOOTH",
"145 634 OFFCURVE",
"133 628 OFFCURVE",
"125 612 CURVE SMOOTH",
"110 582 OFFCURVE",
"88 541 OFFCURVE",
"68 501 CURVE SMOOTH",
"63 489 OFFCURVE",
"56 477 OFFCURVE",
"51 466 CURVE SMOOTH",
"49 463 OFFCURVE",
"49 460 OFFCURVE",
"49 458 CURVE SMOOTH",
"49 452 OFFCURVE",
"55 450 OFFCURVE",
"59 450 CURVE",
"44 419 OFFCURVE",
"23 387 OFFCURVE",
"23 352 CURVE SMOOTH",
"23 346 OFFCURVE",
"24 340 OFFCURVE",
"25 334 CURVE SMOOTH",
"31 304 OFFCURVE",
"59 288 OFFCURVE",
"87 288 CURVE SMOOTH",
"143 288 OFFCURVE",
"198 381 OFFCURVE",
"221 423 CURVE",
"216 407 OFFCURVE",
"212 385 OFFCURVE",
"212 364 CURVE SMOOTH",
"212 329 OFFCURVE",
"223 295 OFFCURVE",
"256 288 CURVE SMOOTH",
"263 286 OFFCURVE",
"271 286 OFFCURVE",
"278 286 CURVE SMOOTH"
);
}
);
width = 478;
}
);
note = w;
unicode = 0077;
},
{
glyphname = x;
lastChange = "2021-05-27 10:25:14 +0000";
layers = (
{
layerId = "61E7180A-0B32-4047-B910-001D8BB62225";
paths = (
{
closed = 1;
nodes = (
"18 254 OFFCURVE",
"32 258 OFFCURVE",
"44 264 CURVE SMOOTH",
"80 280 OFFCURVE",
"126 340 OFFCURVE",
"159 406 CURVE",
"159 400 OFFCURVE",
"159 389 OFFCURVE",
"159 381 CURVE SMOOTH",
"159 338 OFFCURVE",
"184 288 OFFCURVE",
"232 288 CURVE SMOOTH",
"328 288 OFFCURVE",
"374 409 OFFCURVE",
"407 476 CURVE SMOOTH",
"411 484 OFFCURVE",
"408 491 OFFCURVE",
"404 491 CURVE SMOOTH",
"400 491 OFFCURVE",
"396 488 OFFCURVE",
"393 481 CURVE SMOOTH",
"356 411 OFFCURVE",
"310 311 OFFCURVE",
"251 311 CURVE SMOOTH",
"247 311 OFFCURVE",
"244 311 OFFCURVE",
"240 312 CURVE SMOOTH",
"221 317 OFFCURVE",
"210 345 OFFCURVE",
"210 385 CURVE SMOOTH",
"210 396 OFFCURVE",
"211 409 OFFCURVE",
"213 422 CURVE",
"235 486 OFFCURVE",
"281 559 OFFCURVE",
"322 598 CURVE",
"324 587 OFFCURVE",
"334 580 OFFCURVE",
"347 580 CURVE SMOOTH",
"367 580 OFFCURVE",
"388 598 OFFCURVE",
"388 620 CURVE SMOOTH",
"388 636 OFFCURVE",
"375 643 OFFCURVE",
"359 643 CURVE SMOOTH",
"355 643 OFFCURVE",
"351 643 OFFCURVE",
"347 642 CURVE SMOOTH",
"318 634 OFFCURVE",
"263 565 OFFCURVE",
"228 497 CURVE",
"232 516 OFFCURVE",
"234 535 OFFCURVE",
"234 553 CURVE SMOOTH",
"234 592 OFFCURVE",
"222 624 OFFCURVE",
"183 624 CURVE SMOOTH",
"165 624 OFFCURVE",
"147 615 OFFCURVE",
"131 602 CURVE SMOOTH",
"105 578 OFFCURVE",
"63 493 OFFCURVE",
"44 453 CURVE SMOOTH",
"41 447 OFFCURVE",
"40 442 OFFCURVE",
"40 438 CURVE SMOOTH",
"40 433 OFFCURVE",
"42 431 OFFCURVE",
"44 431 CURVE SMOOTH",
"47 431 OFFCURVE",
"50 434 OFFCURVE",
"54 440 CURVE SMOOTH",
"66 461 OFFCURVE",
"103 535 OFFCURVE",
"115 555 CURVE SMOOTH",
"134 586 OFFCURVE",
"151 598 OFFCURVE",
"162 598 CURVE SMOOTH",
"176 598 OFFCURVE",
"181 583 OFFCURVE",
"181 563 CURVE SMOOTH",
"181 541 OFFCURVE",
"177 519 OFFCURVE",
"172 493 CURVE",
"143 401 OFFCURVE",
"78 303 OFFCURVE",
"38 284 CURVE SMOOTH",
"27 279 OFFCURVE",
"16 276 OFFCURVE",
"7 276 CURVE SMOOTH",
"-2 276 OFFCURVE",
"-9 279 OFFCURVE",
"-15 284 CURVE SMOOTH",
"-21 291 OFFCURVE",
"-34 282 OFFCURVE",
"-34 274 CURVE SMOOTH",
"-34 272 OFFCURVE",
"-33 270 OFFCURVE",
"-31 268 CURVE SMOOTH",
"-21 258 OFFCURVE",
"-8 254 OFFCURVE",
"5 254 CURVE SMOOTH"
);
}
);
width = 335;
}
);
note = x;
unicode = 0078;
},
{
glyphname = y;
lastChange = "2021-05-27 10:25:14 +0000";
layers = (
{
anchors = (
{
name = bottom;
position = "{265, 269}";
},
{
name = top;
position = "{265, 626}";
}
);
layerId = "61E7180A-0B32-4047-B910-001D8BB62225";
paths = (
{
closed = 1;
nodes = (
"70 -31 OFFCURVE",
"169 123 OFFCURVE",
"232 237 CURVE",
"377 289 OFFCURVE",
"403 332 OFFCURVE",
"472 470 CURVE SMOOTH",
"474 474 OFFCURVE",
"475 478 OFFCURVE",
"475 481 CURVE SMOOTH",
"475 487 OFFCURVE",
"472 490 OFFCURVE",
"468 490 CURVE SMOOTH",
"465 490 OFFCURVE",
"460 487 OFFCURVE",
"457 480 CURVE SMOOTH",
"448 461 OFFCURVE",
"425 414 OFFCURVE",
"394 369 CURVE SMOOTH",
"355 312 OFFCURVE",
"293 283 OFFCURVE",
"249 269 CURVE",
"279 348 OFFCURVE",
"304 433 OFFCURVE",
"330 500 CURVE SMOOTH",
"355 567 OFFCURVE",
"370 607 OFFCURVE",
"409 634 CURVE",
"354 634 OFFCURVE",
"409 634 OFFCURVE",
"354 634 CURVE SMOOTH",
"335 634 OFFCURVE",
"323 628 OFFCURVE",
"315 612 CURVE SMOOTH",
"276 533 OFFCURVE",
"213 415 OFFCURVE",
"157 350 CURVE SMOOTH",
"134 324 OFFCURVE",
"113 311 OFFCURVE",
"99 311 CURVE SMOOTH",
"85 311 OFFCURVE",
"77 323 OFFCURVE",
"77 344 CURVE SMOOTH",
"77 362 OFFCURVE",
"83 388 OFFCURVE",
"98 419 CURVE SMOOTH",
"126 480 OFFCURVE",
"154 539 OFFCURVE",
"188 598 CURVE SMOOTH",
"200 618 OFFCURVE",
"216 626 OFFCURVE",
"225 634 CURVE",
"221 634 OFFCURVE",
"192 634 OFFCURVE",
"163 634 CURVE SMOOTH",
"145 634 OFFCURVE",
"133 628 OFFCURVE",
"125 612 CURVE SMOOTH",
"110 582 OFFCURVE",
"88 540 OFFCURVE",
"68 501 CURVE SMOOTH",
"63 489 OFFCURVE",
"56 477 OFFCURVE",
"51 466 CURVE SMOOTH",
"49 463 OFFCURVE",
"49 460 OFFCURVE",
"49 458 CURVE SMOOTH",
"49 452 OFFCURVE",
"55 450 OFFCURVE",
"59 450 CURVE",
"44 419 OFFCURVE",
"23 387 OFFCURVE",
"23 352 CURVE SMOOTH",
"23 298 OFFCURVE",
"65 288 OFFCURVE",
"88 288 CURVE SMOOTH",
"166 288 OFFCURVE",
"232 413 OFFCURVE",
"265 473 CURVE",
"249 421 OFFCURVE",
"217 314 OFFCURVE",
"180 248 CURVE",
"98 224 OFFCURVE",
"3 208 OFFCURVE",
"-66 176 CURVE SMOOTH",
"-105 157 OFFCURVE",
"-141 130 OFFCURVE",
"-159 92 CURVE SMOOTH",
"-169 74 OFFCURVE",
"-175 55 OFFCURVE",
"-175 38 CURVE SMOOTH",
"-175 0 OFFCURVE",
"-148 -31 OFFCURVE",
"-79 -31 CURVE SMOOTH"
);
},
{
closed = 1;
nodes = (
"-136 -11 OFFCURVE",
"-151 6 OFFCURVE",
"-151 30 CURVE SMOOTH",
"-151 69 OFFCURVE",
"-112 126 OFFCURVE",
"-48 153 CURVE SMOOTH",
"9 178 OFFCURVE",
"95 198 OFFCURVE",
"161 216 CURVE",
"153 202 OFFCURVE",
"146 189 OFFCURVE",
"139 178 CURVE SMOOTH",
"92 115 OFFCURVE",
"-15 -11 OFFCURVE",
"-103 -11 CURVE SMOOTH"
);
}
);
width = 401;
}
);
note = y;
unicode = 0079;
},
{
glyphname = z;
lastChange = "2021-05-27 10:25:14 +0000";
layers = (
{
anchors = (
{
name = bottom;
position = "{172, 0}";
},
{
name = center;
position = "{-60, -16}";
},
{
name = top;
position = "{220, 642}";
}
);
layerId = "61E7180A-0B32-4047-B910-001D8BB62225";
paths = (
{
closed = 1;
nodes = (
"-90 -24 OFFCURVE",
"-75 -21 OFFCURVE",
"-60 -17 CURVE SMOOTH",
"84 25 OFFCURVE",
"188 135 OFFCURVE",
"240 276 CURVE",
"324 292 OFFCURVE",
"369 379 OFFCURVE",
"414 473 CURVE SMOOTH",
"417 478 OFFCURVE",
"418 482 OFFCURVE",
"418 485 CURVE SMOOTH",
"418 489 OFFCURVE",
"416 491 OFFCURVE",
"413 491 CURVE SMOOTH",
"409 491 OFFCURVE",
"404 488 OFFCURVE",
"401 481 CURVE SMOOTH",
"360 398 OFFCURVE",
"312 314 OFFCURVE",
"245 300 CURVE",
"251 316 OFFCURVE",
"256 360 OFFCURVE",
"256 374 CURVE SMOOTH",
"256 411 OFFCURVE",
"237 441 OFFCURVE",
"188 440 CURVE",
"253 478 OFFCURVE",
"285 536 OFFCURVE",
"285 582 CURVE SMOOTH",
"285 619 OFFCURVE",
"256 641 OFFCURVE",
"218 641 CURVE SMOOTH",
"178 641 OFFCURVE",
"130 616 OFFCURVE",
"99 559 CURVE SMOOTH",
"76 519 OFFCURVE",
"58 480 OFFCURVE",
"39 445 CURVE SMOOTH",
"36 439 OFFCURVE",
"35 434 OFFCURVE",
"35 431 CURVE SMOOTH",
"35 426 OFFCURVE",
"37 423 OFFCURVE",
"40 423 CURVE SMOOTH",
"43 423 OFFCURVE",
"48 427 OFFCURVE",
"51 433 CURVE SMOOTH",
"67 465 OFFCURVE",
"92 513 OFFCURVE",
"105 533 CURVE SMOOTH",
"128 574 OFFCURVE",
"158 590 OFFCURVE",
"183 590 CURVE SMOOTH",
"210 590 OFFCURVE",
"232 570 OFFCURVE",
"232 542 CURVE SMOOTH",
"232 531 OFFCURVE",
"228 518 OFFCURVE",
"220 505 CURVE SMOOTH",
"206 485 OFFCURVE",
"173 437 OFFCURVE",
"107 417 CURVE SMOOTH",
"101 415 OFFCURVE",
"98 410 OFFCURVE",
"98 406 CURVE SMOOTH",
"98 401 OFFCURVE",
"102 396 OFFCURVE",
"109 396 CURVE SMOOTH",
"111 396 OFFCURVE",
"113 396 OFFCURVE",
"115 397 CURVE SMOOTH",
"131 403 OFFCURVE",
"146 409 OFFCURVE",
"159 417 CURVE",
"187 421 OFFCURVE",
"196 400 OFFCURVE",
"196 371 CURVE SMOOTH",
"196 340 OFFCURVE",
"186 301 OFFCURVE",
"178 276 CURVE",
"51 236 OFFCURVE",
"-121 196 OFFCURVE",
"-176 114 CURVE SMOOTH",
"-189 94 OFFCURVE",
"-194 74 OFFCURVE",
"-194 56 CURVE SMOOTH",
"-194 10 OFFCURVE",
"-158 -24 OFFCURVE",
"-103 -24 CURVE SMOOTH"
);
},
{
closed = 1;
nodes = (
"-145 -2 OFFCURVE",
"-159 17 OFFCURVE",
"-159 43 CURVE SMOOTH",
"-159 82 OFFCURVE",
"-129 136 OFFCURVE",
"-80 163 CURVE SMOOTH",
"-23 200 OFFCURVE",
"79 224 OFFCURVE",
"169 252 CURVE",
"110 95 OFFCURVE",
"-39 -2 OFFCURVE",
"-113 -2 CURVE SMOOTH"
);
}
);
width = 343;
}
);
note = z;
unicode = 007A;
},
{
glyphname = z.alt;
lastChange = "2021-05-27 10:25:14 +0000";
layers = (
{
layerId = "61E7180A-0B32-4047-B910-001D8BB62225";
paths = (
{
closed = 1;
nodes = (
"65 276 OFFCURVE",
"87 297 OFFCURVE",
"112 297 CURVE SMOOTH",
"142 297 OFFCURVE",
"192 284 OFFCURVE",
"244 281 CURVE SMOOTH",
"320 279 OFFCURVE",
"381 389 OFFCURVE",
"426 498 CURVE SMOOTH",
"428 502 OFFCURVE",
"428 504 OFFCURVE",
"428 507 CURVE SMOOTH",
"428 511 OFFCURVE",
"425 513 OFFCURVE",
"422 513 CURVE SMOOTH",
"419 513 OFFCURVE",
"415 511 OFFCURVE",
"413 507 CURVE SMOOTH",
"389 458 OFFCURVE",
"340 344 OFFCURVE",
"280 328 CURVE SMOOTH",
"274 326 OFFCURVE",
"267 326 OFFCURVE",
"260 326 CURVE SMOOTH",
"228 326 OFFCURVE",
"184 338 OFFCURVE",
"158 346 CURVE",
"220 402 OFFCURVE",
"281 539 OFFCURVE",
"350 576 CURVE SMOOTH",
"359 582 OFFCURVE",
"374 583 OFFCURVE",
"375 602 CURVE SMOOTH",
"375 614 OFFCURVE",
"367 623 OFFCURVE",
"358 623 CURVE SMOOTH",
"348 623 OFFCURVE",
"339 603 OFFCURVE",
"314 603 CURVE SMOOTH",
"284 603 OFFCURVE",
"255 632 OFFCURVE",
"221 632 CURVE SMOOTH",
"180 632 OFFCURVE",
"134 622 OFFCURVE",
"84 533 CURVE SMOOTH",
"75 516 OFFCURVE",
"32 429 OFFCURVE",
"25 417 CURVE SMOOTH",
"23 413 OFFCURVE",
"22 409 OFFCURVE",
"22 407 CURVE SMOOTH",
"22 403 OFFCURVE",
"24 401 OFFCURVE",
"27 401 CURVE SMOOTH",
"30 401 OFFCURVE",
"36 404 OFFCURVE",
"39 409 CURVE SMOOTH",
"110 551 OFFCURVE",
"134 570 OFFCURVE",
"197 570 CURVE SMOOTH",
"224 570 OFFCURVE",
"257 561 OFFCURVE",
"281 556 CURVE",
"228 501 OFFCURVE",
"159 373 OFFCURVE",
"110 348 CURVE",
"96 340 OFFCURVE",
"32 320 OFFCURVE",
"25 308 CURVE SMOOTH",
"23 303 OFFCURVE",
"20 297 OFFCURVE",
"20 291 CURVE SMOOTH",
"20 283 OFFCURVE",
"25 276 OFFCURVE",
"38 276 CURVE SMOOTH"
);
}
);
width = 343;
}
);
note = z.alt;
unicode = E001;
},
{
glyphname = z.stroke;
lastChange = "2021-05-27 10:25:14 +0000";
layers = (
{
layerId = "61E7180A-0B32-4047-B910-001D8BB62225";
paths = (
{
closed = 1;
nodes = (
"65 276 OFFCURVE",
"87 297 OFFCURVE",
"112 297 CURVE SMOOTH",
"142 297 OFFCURVE",
"192 284 OFFCURVE",
"244 281 CURVE SMOOTH",
"320 279 OFFCURVE",
"381 389 OFFCURVE",
"426 498 CURVE SMOOTH",
"428 502 OFFCURVE",
"428 504 OFFCURVE",
"428 507 CURVE SMOOTH",
"428 511 OFFCURVE",
"425 513 OFFCURVE",
"422 513 CURVE SMOOTH",
"419 513 OFFCURVE",
"415 511 OFFCURVE",
"413 507 CURVE SMOOTH",
"389 458 OFFCURVE",
"340 344 OFFCURVE",
"280 328 CURVE SMOOTH",
"274 326 OFFCURVE",
"267 326 OFFCURVE",
"260 326 CURVE SMOOTH",
"228 326 OFFCURVE",
"184 338 OFFCURVE",
"158 346 CURVE",
"184 370 OFFCURVE",
"204 401 OFFCURVE",
"232 441 CURVE",
"255 444 OFFCURVE",
"277 445 OFFCURVE",
"303 445 CURVE SMOOTH",
"311 445 OFFCURVE",
"315 449 OFFCURVE",
"315 453 CURVE SMOOTH",
"315 458 OFFCURVE",
"309 464 OFFCURVE",
"300 464 CURVE SMOOTH",
"280 464 OFFCURVE",
"264 465 OFFCURVE",
"248 465 CURVE",
"281 513 OFFCURVE",
"316 557 OFFCURVE",
"350 576 CURVE SMOOTH",
"359 582 OFFCURVE",
"374 583 OFFCURVE",
"375 602 CURVE SMOOTH",
"375 614 OFFCURVE",
"367 623 OFFCURVE",
"358 623 CURVE SMOOTH",
"348 623 OFFCURVE",
"339 603 OFFCURVE",
"314 603 CURVE SMOOTH",
"284 603 OFFCURVE",
"255 632 OFFCURVE",
"221 632 CURVE SMOOTH",
"180 632 OFFCURVE",
"134 622 OFFCURVE",
"84 533 CURVE SMOOTH",
"75 516 OFFCURVE",
"32 429 OFFCURVE",
"25 417 CURVE SMOOTH",
"23 413 OFFCURVE",
"22 409 OFFCURVE",
"22 407 CURVE SMOOTH",
"22 403 OFFCURVE",
"24 401 OFFCURVE",
"27 401 CURVE SMOOTH",
"30 401 OFFCURVE",
"36 404 OFFCURVE",
"39 409 CURVE SMOOTH",
"110 551 OFFCURVE",
"134 570 OFFCURVE",
"197 570 CURVE SMOOTH",
"224 570 OFFCURVE",
"257 561 OFFCURVE",
"281 556 CURVE",
"260 533 OFFCURVE",
"241 504 OFFCURVE",
"214 465 CURVE",
"180 466 OFFCURVE",
"155 466 OFFCURVE",
"138 466 CURVE SMOOTH",
"129 466 OFFCURVE",
"126 459 OFFCURVE",
"126 452 CURVE SMOOTH",
"126 443 OFFCURVE",
"131 433 OFFCURVE",
"137 433 CURVE SMOOTH",
"137 433 OFFCURVE",
"138 433 OFFCURVE",
"138 433 CURVE",
"196 438 LINE",
"163 397 OFFCURVE",
"134 359 OFFCURVE",
"110 348 CURVE",
"96 340 OFFCURVE",
"32 320 OFFCURVE",
"25 308 CURVE SMOOTH",
"23 303 OFFCURVE",
"20 297 OFFCURVE",
"20 291 CURVE SMOOTH",
"20 283 OFFCURVE",
"25 276 OFFCURVE",
"38 276 CURVE SMOOTH"
);
}
);
width = 343;
}
);
note = z.stroke;
unicode = E002;
},
{
glyphname = braceleft;
lastChange = "2021-05-27 10:25:14 +0000";
layers = (
{
layerId = "61E7180A-0B32-4047-B910-001D8BB62225";
paths = (
{
closed = 1;
nodes = (
"243 155 LINE SMOOTH",
"248 155 OFFCURVE",
"252 163 OFFCURVE",
"252 170 CURVE SMOOTH",
"252 174 OFFCURVE",
"250 178 OFFCURVE",
"246 178 CURVE SMOOTH",
"246 178 OFFCURVE",
"245 178 OFFCURVE",
"245 178 CURVE SMOOTH",
"200 178 OFFCURVE",
"170 186 OFFCURVE",
"155 204 CURVE SMOOTH",
"146 214 OFFCURVE",
"141 230 OFFCURVE",
"141 252 CURVE SMOOTH",
"141 268 OFFCURVE",
"143 286 OFFCURVE",
"147 306 CURVE SMOOTH",
"155 343 OFFCURVE",
"181 430 OFFCURVE",
"181 491 CURVE SMOOTH",
"181 510 OFFCURVE",
"178 527 OFFCURVE",
"172 539 CURVE SMOOTH",
"155 565 OFFCURVE",
"122 583 OFFCURVE",
"67 594 CURVE",
"130 604 OFFCURVE",
"176 626 OFFCURVE",
"201 658 CURVE SMOOTH",
"267 737 OFFCURVE",
"249 910 OFFCURVE",
"315 967 CURVE SMOOTH",
"335 985 OFFCURVE",
"370 994 OFFCURVE",
"418 994 CURVE SMOOTH",
"423 994 OFFCURVE",
"434 1004 OFFCURVE",
"434 1011 CURVE SMOOTH",
"434 1014 OFFCURVE",
"431 1017 OFFCURVE",
"423 1017 CURVE SMOOTH",
"419 1017 LINE SMOOTH",
"352 1017 OFFCURVE",
"304 1005 OFFCURVE",
"272 982 CURVE SMOOTH",
"212 935 OFFCURVE",
"198 811 OFFCURVE",
"184 744 CURVE SMOOTH",
"174 694 OFFCURVE",
"159 659 OFFCURVE",
"137 642 CURVE SMOOTH",
"115 624 OFFCURVE",
"78 614 OFFCURVE",
"21 607 CURVE",
"21 607 OFFCURVE",
"8 593 OFFCURVE",
"8 585 CURVE SMOOTH",
"8 582 OFFCURVE",
"10 580 OFFCURVE",
"15 580 CURVE SMOOTH",
"44 580 OFFCURVE",
"66 578 OFFCURVE",
"80 571 CURVE SMOOTH",
"95 565 OFFCURVE",
"107 556 OFFCURVE",
"115 545 CURVE SMOOTH",
"125 534 OFFCURVE",
"129 518 OFFCURVE",
"129 496 CURVE SMOOTH",
"129 481 OFFCURVE",
"127 464 OFFCURVE",
"123 444 CURVE SMOOTH",
"117 411 OFFCURVE",
"89 322 OFFCURVE",
"89 256 CURVE SMOOTH",
"89 229 OFFCURVE",
"93 206 OFFCURVE",
"106 192 CURVE SMOOTH",
"127 168 OFFCURVE",
"172 155 OFFCURVE",
"237 155 CURVE SMOOTH"
);
}
);
width = 371;
}
);
note = braceleft;
unicode = 007B;
},
{
glyphname = bar;
lastChange = "2021-05-27 10:25:14 +0000";
layers = (
{
layerId = "61E7180A-0B32-4047-B910-001D8BB62225";
paths = (
{
closed = 1;
nodes = (
"265 55 LINE",
"265 1040 LINE",
"222 1040 LINE",
"222 55 LINE"
);
}
);
width = 488;
}
);
note = bar;
unicode = 007C;
},
{
glyphname = braceright;
lastChange = "2021-05-27 10:25:14 +0000";
layers = (
{
layerId = "61E7180A-0B32-4047-B910-001D8BB62225";
paths = (
{
closed = 1;
nodes = (
"31 155 LINE SMOOTH",
"96 155 OFFCURVE",
"146 168 OFFCURVE",
"180 190 CURVE SMOOTH",
"285 264 OFFCURVE",
"265 466 OFFCURVE",
"351 531 CURVE SMOOTH",
"382 555 OFFCURVE",
"422 565 OFFCURVE",
"470 565 CURVE",
"470 565 OFFCURVE",
"486 581 OFFCURVE",
"486 589 CURVE SMOOTH",
"486 592 OFFCURVE",
"484 594 OFFCURVE",
"480 594 CURVE SMOOTH",
"429 598 OFFCURVE",
"397 610 OFFCURVE",
"383 626 CURVE SMOOTH",
"376 635 OFFCURVE",
"373 648 OFFCURVE",
"373 663 CURVE SMOOTH",
"373 733 OFFCURVE",
"436 852 OFFCURVE",
"436 929 CURVE SMOOTH",
"436 949 OFFCURVE",
"432 965 OFFCURVE",
"422 978 CURVE SMOOTH",
"405 1002 OFFCURVE",
"360 1013 OFFCURVE",
"292 1013 CURVE SMOOTH",
"288 1013 LINE",
"288 1013 OFFCURVE",
"274 1001 OFFCURVE",
"274 994 CURVE SMOOTH",
"274 992 OFFCURVE",
"276 990 OFFCURVE",
"281 990 CURVE SMOOTH",
"330 990 OFFCURVE",
"360 981 OFFCURVE",
"373 963 CURVE SMOOTH",
"378 955 OFFCURVE",
"380 945 OFFCURVE",
"380 932 CURVE SMOOTH",
"380 914 OFFCURVE",
"376 891 OFFCURVE",
"367 863 CURVE SMOOTH",
"355 824 OFFCURVE",
"321 732 OFFCURVE",
"321 671 CURVE SMOOTH",
"321 657 OFFCURVE",
"323 644 OFFCURVE",
"328 634 CURVE SMOOTH",
"343 606 OFFCURVE",
"374 588 OFFCURVE",
"425 579 CURVE",
"367 568 OFFCURVE",
"324 549 OFFCURVE",
"295 524 CURVE SMOOTH",
"209 445 OFFCURVE",
"214 264 OFFCURVE",
"141 205 CURVE SMOOTH",
"119 188 OFFCURVE",
"83 178 OFFCURVE",
"35 178 CURVE SMOOTH",
"26 178 OFFCURVE",
"21 170 OFFCURVE",
"21 163 CURVE SMOOTH",
"21 159 OFFCURVE",
"23 156 OFFCURVE",
"27 155 CURVE SMOOTH"
);
}
);
width = 488;
}
);
note = braceright;
unicode = 007D;
},
{
glyphname = asciitilde;
lastChange = "2021-05-27 10:25:14 +0000";
layers = (
{
layerId = "61E7180A-0B32-4047-B910-001D8BB62225";
paths = (
{
closed = 1;
nodes = (
"406 704 OFFCURVE",
"438 748 OFFCURVE",
"456 784 CURVE SMOOTH",
"457 787 OFFCURVE",
"448 789 OFFCURVE",
"441 789 CURVE SMOOTH",
"438 789 OFFCURVE",
"435 788 OFFCURVE",
"434 787 CURVE SMOOTH",
"424 764 OFFCURVE",
"408 750 OFFCURVE",
"384 750 CURVE SMOOTH",
"340 750 OFFCURVE",
"299 787 OFFCURVE",
"251 787 CURVE SMOOTH",
"209 787 OFFCURVE",
"177 745 OFFCURVE",
"159 712 CURVE",
"158 709 OFFCURVE",
"165 706 OFFCURVE",
"172 706 CURVE SMOOTH",
"177 706 OFFCURVE",
"181 707 OFFCURVE",
"182 710 CURVE",
"191 727 OFFCURVE",
"207 742 OFFCURVE",
"229 742 CURVE SMOOTH",
"274 742 OFFCURVE",
"316 704 OFFCURVE",
"363 704 CURVE SMOOTH"
);
}
);
width = 488;
}
);
note = asciitilde;
unicode = 007E;
},
